<svg id="filled_outline" height="512" viewBox="0 0 512 512" width="512" xmlns="http://www.w3.org/2000/svg" data-name="filled outline"><path d="m488 196.118-62.588 35.764-13.754-25.159 44.342-26.605-5.593-9.322a33.13 33.13 0 0 1 13.593-46.678 32.92 32.92 0 0 1 17.218-45.288l6.782-2.712z" fill="#b7b7b7"/><path d="m421.466 200.838-9.808 5.885 13.754 25.159 62.588-35.764v-13.4l-43.244 24.711a16.955 16.955 0 0 1 -23.29-6.591z" fill="#898989"/><path d="m432 16h-75.966l-21.652 14.412a17.285 17.285 0 0 0 -4.794 23.97l.517.776-25.5 10.2a16.46 16.46 0 0 0 -8.605 22.642l-14.059 4.686a31.03 31.03 0 0 0 -17.941 43.314l-29.2 10.95a33.46 33.46 0 0 0 -18.179 46.294l3.4 6.645 76.163-27.232a25.876 25.876 0 0 0 15.816-32.539l31.457-9.865a23.426 23.426 0 0 0 16.543-30.135 40 40 0 0 0 40-40v-4.918a40.011 40.011 0 0 0 32-39.2z" fill="#b7b7b7"/><path d="m410.91 16a40.062 40.062 0 0 1 -28.662 23.2v4.92a40 40 0 0 1 -40 40 23.426 23.426 0 0 1 -16.543 30.135l-31.457 9.865a25.876 25.876 0 0 1 -15.814 32.539l-65.3 23.349a33.347 33.347 0 0 0 3.492 13.238l3.4 6.645 76.163-27.232a25.876 25.876 0 0 0 15.811-32.541l31.457-9.865a23.426 23.426 0 0 0 16.543-30.135 40 40 0 0 0 40-40v-4.918a40.011 40.011 0 0 0 32-39.2z" fill="#898989"/><path d="m208 272v-75.882l48-16 27.195 63.455z" fill="#4abdcc"/><path d="m166.487 392.5a26.372 26.372 0 0 1 -25.045-6.937 26.373 26.373 0 0 1 -4.94-30.443l15.5-31a53.574 53.574 0 0 1 28.175-47.171l59.851-32.228a71.958 71.958 0 0 1 34.116-8.6 71.957 71.957 0 0 0 26.725-5.147l67.131-26.856v-48l32-16 16 64 24 40-180.374 109.512a336.915 336.915 0 0 1 -93.139 38.87z" fill="#77d5d8"/><path d="m416 204.118-16-64-15.715 7.857 7.715 30.859 15.8 26.329a16.027 16.027 0 0 1 -5.425 21.945l-166.749 101.238a336.915 336.915 0 0 1 -93.139 38.866 26.347 26.347 0 0 1 -8.733.677 26.339 26.339 0 0 0 7.688 17.67 26.372 26.372 0 0 0 25.045 6.937 336.915 336.915 0 0 0 93.139-38.866l180.374-109.512z" fill="#4abdcc"/><g fill="#066991"><path d="m24 426.975a67.9 67.9 0 0 0 88-6.857 67.883 67.883 0 0 0 96 0 67.883 67.883 0 0 0 96 0 67.883 67.883 0 0 0 96 0 67.9 67.9 0 0 0 88 6.857v53.025h-464z"/><path d="m155.416 325a108.749 108.749 0 0 0 57.021-18.23l-8.875-13.313a92.757 92.757 0 0 1 -48.639 15.551l-.75.023a53.406 53.406 0 0 0 -1.71 8.078l.246 7.974z"/><path d="m223.056 280.118h17.889v16h-17.889z" transform="matrix(.894 -.447 .447 .894 -104.357 134.171)"/><path d="m255.056 264.118h17.889v16h-17.889z" transform="matrix(.894 -.447 .447 .894 -93.824 146.793)"/></g><path d="m248 324.118 176 24 40-32-104-56z" fill="#afeaef"/><path d="m440.6 323.4 8.547 4.6 14.853-11.882-104-56-112 64 28.091 3.83 4.43-2.532a164.989 164.989 0 0 1 160.079-2.016z" fill="#77d5d8"/><path d="m402.343 329.775a25.668 25.668 0 0 1 4.944-40.159c.075-.045.15-.089.227-.131l36.6-20.359 7.778 13.983-36.466 20.285a9.667 9.667 0 0 0 -1.766 15.066z" fill="#f99321"/><path d="m463.056 256.118h17.889v16h-17.889z" fill="#f99321" transform="matrix(.894 -.447 .447 .894 -68.287 238.968)"/><path d="m483.279 420.517a59.9 59.9 0 0 1 -77.622-6.056 8 8 0 0 0 -11.314 0 59.95 59.95 0 0 1 -84.686 0 8 8 0 0 0 -11.314 0 59.95 59.95 0 0 1 -84.686 0 8 8 0 0 0 -11.314 0 59.95 59.95 0 0 1 -84.686 0 8 8 0 0 0 -11.314 0 59.9 59.9 0 0 1 -77.622 6.056l-9.442 12.916a75.9 75.9 0 0 0 92.721-2.541 76.024 76.024 0 0 0 96 0 75.918 75.918 0 0 0 96.007 0 76.022 76.022 0 0 0 96 0 75.9 75.9 0 0 0 92.718 2.541z"/><path d="m223.056 280.118h17.889v16h-17.889z" transform="matrix(.894 -.447 .447 .894 -104.357 134.171)"/><path d="m255.056 264.118h17.889v16h-17.889z" transform="matrix(.894 -.447 .447 .894 -93.823 146.793)"/><path d="m455.2 94.854a41.045 41.045 0 0 0 -1.034 25.981 41.121 41.121 0 0 0 -10.614 54.078l1.477 2.461-23.886 14.326-13.382-53.526a8 8 0 0 0 -11.339-5.215l-32 16a8 8 0 0 0 -4.422 7.159v42.582l-62.1 24.842a63.788 63.788 0 0 1 -13.02 3.658l-15.6-36.394 29.6-10.615a34.128 34.128 0 0 0 22.321-34.574l24.435-7.662a31.4 31.4 0 0 0 23.55-30.718 48.081 48.081 0 0 0 38.782-45.978 48.075 48.075 0 0 0 32.032-45.259h-16a32.036 32.036 0 0 1 -32 32h-24v16h23.756a32.04 32.04 0 0 1 -31.756 28.118 8 8 0 0 0 -7.589 10.529 15.426 15.426 0 0 1 -10.894 19.845c-.153.038-.3.081-.453.128l-31.457 9.864a8 8 0 0 0 -5.2 10.163 17.979 17.979 0 0 1 -10.925 22.479l-30.58 10.966a8 8 0 0 0 -9.436-3.564l-31.921 10.642a25.506 25.506 0 0 1 16.065-28.73l29.2-10.949a8 8 0 0 0 4.346-11.069 23.03 23.03 0 0 1 13.316-32.146l14.059-4.687a8 8 0 0 0 4.625-11.167 8.461 8.461 0 0 1 4.425-11.638l19.469-7.784 10.294 15.442 13.312-8.876-14.411-21.621a9.3 9.3 0 0 1 2.575-12.877l9.618-6.412-8.875-13.312-9.618 6.411a25.329 25.329 0 0 0 -10.531 27.063l-17.776 7.111a24.439 24.439 0 0 0 -15.276 24.851l-6.951 2.32a39.033 39.033 0 0 0 -25.6 46.18l-21.819 8.182a41.434 41.434 0 0 0 -25.674 48.787l-.848.282a8 8 0 0 0 -5.47 7.59v61.067l-23.618 12.712a61.5 61.5 0 0 0 -32.351 52.265l-14.685 29.37a34.4 34.4 0 0 0 39.081 48.719 344.6 344.6 0 0 0 95.351-39.788l35.138-21.334 124 16.909a7.99 7.99 0 0 0 6.084-1.676l40-32a8 8 0 0 0 -1.2-13.291l-31.8-17.123 15.895-8.842-7.778-13.983-24.842 13.82-14.736-7.935 39.619-24.055a8 8 0 0 0 2.702-10.956l-4.987-8.312 50.1-28.627-7.938-13.891-50.392 28.8-6.663-11.106 33.14-19.883a8 8 0 0 0 2.74-10.981l-5.593-9.321a25.131 25.131 0 0 1 10.311-35.408 8 8 0 0 0 3.577-10.733 24.92 24.92 0 0 1 13.035-34.28l6.781-2.713-5.942-14.855-6.782 2.71a41.029 41.029 0 0 0 -23.047 23.454zm-239.2 107.03 35.547-11.849 16.428 38.333a80.234 80.234 0 0 0 -31.741 9.307l-20.234 10.895zm172.194 64.329-24.4-13.139a8 8 0 0 0 -7.762.1l-39.678 22.673 7.939 13.891 35.823-20.47 43.22 23.272a25.665 25.665 0 0 0 -.992 37.237l11.314-11.315a9.667 9.667 0 0 1 1.766-15.066l3.971-2.209 30.163 16.242-27.875 22.3-149.258-20.354 27.984-15.991-7.939-13.892-48.439 27.68a8 8 0 0 0 2.888 14.872l26.822 3.658-18.267 11.09a328.589 328.589 0 0 1 -90.928 37.943 18.374 18.374 0 0 1 -20.89-26.042l15.5-31a7.979 7.979 0 0 0 .808-2.937 108.733 108.733 0 0 0 52.475-17.984l-8.875-13.313a92.75 92.75 0 0 1 -40.764 14.961 45.5 45.5 0 0 1 21.171-24.429l59.851-32.228a64.162 64.162 0 0 1 30.323-7.645 79.6 79.6 0 0 0 29.7-5.719l67.133-26.854a8 8 0 0 0 5.022-7.427v-43.056l18.658-9.329 13.581 54.325a7.989 7.989 0 0 0 .9 2.176l19.906 33.176z"/><path d="m463.056 256.118h17.889v16h-17.889z" transform="matrix(.894 -.447 .447 .894 -68.287 238.969)"/></svg>