<svg id="filled_outline" height="512" viewBox="0 0 512 512" width="512" xmlns="http://www.w3.org/2000/svg" data-name="filled outline"><path d="m176 112v-16.048a23.952 23.952 0 0 1 23.952-23.952h112.1a23.952 23.952 0 0 1 23.948 23.952v16.048z" fill="#4abdcc"/><path d="m312.048 72h-112.1a23.952 23.952 0 0 0 -23.948 23.952v16a23.952 23.952 0 0 1 23.952-23.952h112.1a23.952 23.952 0 0 1 23.948 23.952v-16a23.952 23.952 0 0 0 -23.952-23.952z" fill="#77d5d8"/><path d="m96 168h-24a16 16 0 0 1 -16-16 16 16 0 0 1 16-16h24z" fill="#f44a2a"/><path d="m416 136h24a16 16 0 0 1 16 16 16 16 0 0 1 -16 16h-24z" fill="#f44a2a"/><path d="m216 72h80v40h-80z" fill="#ce3521"/><path d="m88 424v-302.452a17.549 17.549 0 0 1 17.548-17.548h300.9a17.549 17.549 0 0 1 17.552 17.548v302.452z" fill="#e5e5e5"/><path d="m104 112v-7.922a17.543 17.543 0 0 0 -16 17.47v302.452h336v-40a16 16 0 0 1 -16-16v-224a16 16 0 0 0 -16-16h-272a16 16 0 0 1 -16-16z" fill="#b7b7b7"/><path d="m88 408h336v16h-336z" fill="#898989"/><path d="m216 72h80v16h-80z" fill="#f44a2a"/><path d="m72 240h368v64h-368z" fill="#ce3521"/><path d="m72 288h368v16h-368z" fill="#a52016"/><path d="m120 408v-240.844a23.156 23.156 0 0 1 23.156-23.156h225.688a23.156 23.156 0 0 1 23.156 23.156v240.844z" fill="#e5e5e5"/><path d="m192 232v-88h-48.844a23.156 23.156 0 0 0 -23.156 23.156v240.844h272a88 88 0 0 0 -88-88h-24a88 88 0 0 1 -88-88z" fill="#b7b7b7"/><path d="m144 360.475v-52.058a12.417 12.417 0 0 1 12.417-12.417h235.583v-16h-248v-136h-.844a23.156 23.156 0 0 0 -23.156 23.156v240.844h272v-24h-224.475a23.524 23.524 0 0 1 -23.525-23.525z" fill="#898989"/><path d="m328 432h64v56h-64z" fill="#898989"/><path d="m344.27 464.27v-8.27h47.73v-24h-64v56h64v-8h-32a15.73 15.73 0 0 1 -15.73-15.73z" fill="#605f5f"/><path d="m120 432h64v56h-64z" fill="#898989"/><path d="m136.27 464.27v-8.27h47.73v-16h-64v48h64v-8h-32a15.73 15.73 0 0 1 -15.73-15.73z" fill="#605f5f"/><g fill="#4abdcc"><path d="m248 16h16v24h-16z"/><path d="m295.351 28h25.298v16h-25.298z" transform="matrix(.316 -.949 .949 .316 176.433 316.803)"/><path d="m340.686 48h22.627v16h-22.627z" transform="matrix(.707 -.707 .707 .707 63.5 265.304)"/><path d="m152 44.686h16v22.627h-16z" transform="matrix(.707 -.707 .707 .707 7.265 129.539)"/><path d="m196 23.351h16v25.298h-16z" transform="matrix(.949 -.316 .316 .949 -.916 66.358)"/></g><path d="m120 176h272v112h-272z" fill="#afeaef"/><path d="m144 184h248v-8h-272v112h272v-16h-160a88 88 0 0 1 -88-88z" fill="#77d5d8"/><rect fill="#e5e5e5" height="48" rx="16.749" width="304" x="104" y="400"/><path d="m391.251 424h-270.5a16.749 16.749 0 0 1 -16.056-12 16.734 16.734 0 0 0 -.693 4.749v14.5a16.749 16.749 0 0 0 16.747 16.751h270.5a16.749 16.749 0 0 0 16.751-16.749v-14.5a16.734 16.734 0 0 0 -.693-4.749 16.749 16.749 0 0 1 -16.056 11.998z" fill="#b7b7b7"/><rect fill="#f9e48c" height="32" rx="16" width="48" x="320" y="336"/><path d="m360 360h-16a16 16 0 0 1 -16-16 15.9 15.9 0 0 1 1.425-6.575 15.99 15.99 0 0 0 -9.425 14.575 16 16 0 0 0 16 16h16a15.99 15.99 0 0 0 14.575-9.425 15.921 15.921 0 0 1 -6.575 1.425z" fill="#f7ce23"/><rect fill="#f9e48c" height="32" rx="16" width="48" x="144" y="336"/><path d="m184 360h-16a16 16 0 0 1 -16-16 15.9 15.9 0 0 1 1.425-6.575 15.99 15.99 0 0 0 -9.425 14.575 16 16 0 0 0 16 16h16a15.99 15.99 0 0 0 14.575-9.425 15.921 15.921 0 0 1 -6.575 1.425z" fill="#f7ce23"/><path d="m224 424h64v32h-64z" fill="#f7b023"/><path d="m224 424h64v8h-64z" fill="#f99321"/><g fill="#faa6a6"><path d="m472 171.056h16v17.889h-16z" transform="matrix(.447 -.894 .894 .447 104.341 528.827)"/><path d="m471.056 116h17.889v16h-17.889z" transform="matrix(.894 -.447 .447 .894 -4.78 227.754)"/><path d="m480 144h16v16h-16z"/><path d="m16 144h16v16h-16z"/><path d="m23.056 172h17.889v16h-17.889z" transform="matrix(.894 -.447 .447 .894 -77.12 33.314)"/><path d="m24 115.056h16v17.889h-16z" transform="matrix(.447 -.894 .894 .447 -93.22 97.167)"/></g><path d="m216 288h80v112h-80z" fill="#ce3521"/><path d="m216 144h80v32h-80z" fill="#f44a2a"/><path d="m216 288h80a0 0 0 0 1 0 0v32a0 0 0 0 1 0 0h-48a32 32 0 0 1 -32-32 0 0 0 0 1 0 0z" fill="#f44a2a"/><path d="m216 288h80v8h-80z" fill="#ce3521"/><path d="m216 384h80v16h-80z" fill="#a52016"/><circle cx="368" cy="200" fill="#fff" r="8"/><rect fill="#fff" height="16" rx="8" width="32" x="312" y="192"/><path d="m285.656 329.559-10.285-12.256-11.371 9.541v-14.844h-16v14.844l-11.371-9.541-10.285 12.256 17.211 14.441-17.211 14.441 10.285 12.256 11.371-9.541v14.844h16v-14.844l11.371 9.541 10.285-12.256-17.211-14.441z" fill="#fff"/><path d="m248 16h16v24h-16z"/><path d="m295.351 28h25.298v16h-25.298z" transform="matrix(.316 -.949 .949 .316 176.449 316.81)"/><path d="m340.686 48h22.627v16h-22.627z" transform="matrix(.707 -.707 .707 .707 63.491 265.291)"/><path d="m152 44.686h16v22.627h-16z" transform="matrix(.707 -.707 .707 .707 7.268 129.546)"/><path d="m196 23.351h16v25.298h-16z" transform="matrix(.949 -.316 .316 .949 -.916 66.358)"/><path d="m352 328h-16a24 24 0 0 0 0 48h16a24 24 0 0 0 0-48zm0 32h-16a8 8 0 0 1 0-16h16a8 8 0 0 1 0 16z"/><path d="m176 328h-16a24 24 0 0 0 0 48h16a24 24 0 0 0 0-48zm0 32h-16a8 8 0 0 1 0-16h16a8 8 0 0 1 0 16z"/><path d="m440 128h-8v-6.451a25.577 25.577 0 0 0 -25.548-25.549h-62.452v-.048a31.988 31.988 0 0 0 -31.952-31.952h-112.1a31.989 31.989 0 0 0 -31.948 31.952v.048h-62.452a25.577 25.577 0 0 0 -25.548 25.549v6.451h-8a24 24 0 0 0 0 48h8v56h-8a8 8 0 0 0 -8 8v64a8 8 0 0 0 8 8h8v112a8 8 0 0 0 8 8h8.019a24.789 24.789 0 0 0 15.981 22.4v33.6a8 8 0 0 0 8 8h64a8 8 0 0 0 8-8v-32h24a8 8 0 0 0 8 8h64a8 8 0 0 0 8-8h24v32a8 8 0 0 0 8 8h64a8 8 0 0 0 8-8v-33.6a24.787 24.787 0 0 0 15.981-22.4h8.019a8 8 0 0 0 8-8v-112h8a8 8 0 0 0 8-8v-64a8 8 0 0 0 -8-8h-8v-56h8a24 24 0 0 0 0-48zm-112-32.048v.048h-24v-16h8.048a15.97 15.97 0 0 1 15.952 15.952zm-104 .048v-16h64v16zm-40-.048a15.97 15.97 0 0 1 15.952-15.952h8.048v16h-24zm-112 64.048a8 8 0 0 1 0-16h8v16zm8 88h32v48h-32zm48 48h256v96h-256zm256-128h-256v-.844a15.173 15.173 0 0 1 15.156-15.156h225.688a15.173 15.173 0 0 1 15.156 15.156zm-256 16h256v96h-256zm-16 128v81.6a24.789 24.789 0 0 0 -15.981 22.4h-.019v-104zm64 168h-48v-24h48zm104-32h-48v-16h48zm56 32v-24h48v24zm64-48.749a8.759 8.759 0 0 1 -8.748 8.749h-95.252v-16a8 8 0 0 0 -8-8h-64a8 8 0 0 0 -8 8v16h-95.251a8.759 8.759 0 0 1 -8.749-8.749v-14.5a8.759 8.759 0 0 1 8.749-8.751h270.5a8.759 8.759 0 0 1 8.751 8.749zm16-15.251h-.019a24.787 24.787 0 0 0 -15.981-22.4v-81.6h16zm16-120h-32v-48h32zm-32-64v-64.844a31.191 31.191 0 0 0 -31.156-31.156h-225.688a31.192 31.192 0 0 0 -31.156 31.156v64.844h-16v-110.451a9.559 9.559 0 0 1 9.548-9.549h300.9a9.559 9.559 0 0 1 9.552 9.549v110.451zm40-72h-8v-16h8a8 8 0 0 1 0 16z"/><path d="m472 171.056h16v17.889h-16z" transform="matrix(.447 -.894 .894 .447 104.341 528.827)"/><path d="m471.056 116h17.889v16h-17.889z" transform="matrix(.894 -.447 .447 .894 -4.78 227.754)"/><path d="m480 144h16v16h-16z"/><path d="m16 144h16v16h-16z"/><path d="m23.056 172h17.889v16h-17.889z" transform="matrix(.894 -.447 .447 .894 -77.12 33.314)"/><path d="m24 115.056h16v17.889h-16z" transform="matrix(.447 -.894 .894 .447 -93.22 97.167)"/></svg>