<svg id="filled_outline" height="512" viewBox="0 0 512 512" width="512" xmlns="http://www.w3.org/2000/svg" data-name="filled outline"><path d="m280 16a8 8 0 0 1 8 8v136a0 0 0 0 1 0 0h-16a0 0 0 0 1 0 0v-136a8 8 0 0 1 8-8z" fill="#898989"/><rect fill="#f4c7c6" height="169.706" rx="84.853" transform="matrix(.707 -.707 .707 .707 -203.225 275.667)" width="226.274" x="118.01" y="298.294"/><path d="m311.147 303.147a85 85 0 0 0 -16.89-13.109 84.888 84.888 0 0 1 -13.11 103.109l-40 40a84.887 84.887 0 0 1 -103.109 13.11 85 85 0 0 0 13.109 16.89 84.853 84.853 0 0 0 120 0l40-40a84.853 84.853 0 0 0 0-120z" fill="#faa6a6"/><path d="m151.147 343.147a84.853 84.853 0 0 0 0 120 84.853 84.853 0 0 0 120 0l12-12-120-120z" fill="#afeaef"/><circle cx="280" cy="259.147" fill="#f4c7c6" r="104"/><path d="m316.2 161.624a104.024 104.024 0 0 1 -92.39 185.046 104.015 104.015 0 1 0 92.39-185.046z" fill="#faa6a6"/><rect fill="#f7b023" height="64" rx="32" width="96" x="208" y="299.147"/><path d="m272 343.147h-32a32.006 32.006 0 0 1 -30.4-22 31.95 31.95 0 0 0 -1.6 10 32 32 0 0 0 32 32h32a32 32 0 0 0 32-32 31.921 31.921 0 0 0 -1.6-10 32.006 32.006 0 0 1 -30.4 22z" fill="#f99321"/><path d="m272 323.147v16a16 16 0 0 1 -16 16 16 16 0 0 1 -16-16v-16z" fill="#f7ce23"/><path d="m264 187.147h8a16 16 0 0 1 16 16 16 16 0 0 1 -16 16h-10.5a29.5 29.5 0 0 1 -29.5-29.5 34.5 34.5 0 0 1 34.5-34.5h13.5l-1.073.862a39.941 39.941 0 0 0 -14.927 31.138z" fill="#f9e48c"/><path d="m216 259.147a30.43 30.43 0 0 1 -21.657-8.97l11.314-11.315a14.644 14.644 0 0 0 20.686 0l11.314 11.315a30.43 30.43 0 0 1 -21.657 8.97z" fill="#e88080"/><path d="m304 259.147a30.43 30.43 0 0 1 -21.657-8.97l11.314-11.315a14.644 14.644 0 0 0 20.686 0l11.314 11.315a30.43 30.43 0 0 1 -21.657 8.97z" fill="#e88080"/><path d="m160 120a99.259 99.259 0 0 1 81.2-74.031l38.8-5.969 38.8 5.969a99.259 99.259 0 0 1 81.2 74.031l-9.772-4.886a49.706 49.706 0 0 0 -44.456 0l-9.772 4.886a49.7 49.7 0 0 0 -49.8-3.1l-6.2 3.1-6.2-3.1a49.7 49.7 0 0 0 -49.8 3.1l-9.772-4.886a49.706 49.706 0 0 0 -44.456 0z" fill="#afeaef"/><path d="m275.472 41.94a84.927 84.927 0 0 0 -51.472 78.06 49.7 49.7 0 0 1 49.8-3.1l6.2 3.1v-80z" fill="#3b9daf"/><path d="m284.528 41.94-4.528-1.94v80l6.2-3.1a49.7 49.7 0 0 1 49.8 3.1 84.927 84.927 0 0 0 -51.472-78.06z" fill="#066991"/><path d="m253.147 421.147-2 2a84.645 84.645 0 0 1 -66.807 24.56l-21.193-116.56-7.237 7.237 13.69 75.266-43.258-12.359a85.492 85.492 0 0 0 .455 10.9l46.057 13.16 3.891 21.4a84.431 84.431 0 0 1 -45.593-23.6c-1.111-1.111-2.178-2.249-3.214-3.4a84.446 84.446 0 0 0 23.214 43.4 84.853 84.853 0 0 0 120 0l12-12z" fill="#77d5d8"/><rect fill="#afeaef" height="56.569" rx="28.284" transform="matrix(.707 -.707 .707 .707 -183.411 212.069)" width="79.196" x="124.686" y="299.147"/><path d="m184.284 328.284a28.284 28.284 0 0 1 -40 0 28.152 28.152 0 0 1 -7.5-13.357l-.5.5a28.286 28.286 0 0 0 0 40 28.284 28.284 0 0 0 40 0l16-16a28.268 28.268 0 0 0 7.5-26.642z" fill="#77d5d8"/><rect fill="#afeaef" height="56.569" rx="28.284" transform="matrix(.707 -.707 .707 .707 -178.656 335.549)" width="79.196" x="276.118" y="355.147"/><path d="m336.284 383.716a28.286 28.286 0 0 1 -40 0 28.16 28.16 0 0 1 -7.5-13.358l-1.073 1.073a28.284 28.284 0 0 0 0 40 28.284 28.284 0 0 0 40 0l16-16a28.265 28.265 0 0 0 7.5-26.642z" fill="#77d5d8"/><path d="m118.818 413.019a92.893 92.893 0 0 0 157.987 55.786l40-40c1.018-1.02 2.007-2.074 2.978-3.137a36.156 36.156 0 0 0 13.588-8.577l16-16a36.287 36.287 0 0 0 0-51.315c-.516-.516-1.049-1.008-1.59-1.489a111.983 111.983 0 0 0 -59.781-200.851v-22.492l1.779-.889a41.8 41.8 0 0 1 41.784 2.6 8 8 0 0 0 8.015.5l9.772-4.885a41.9 41.9 0 0 1 37.3 0l9.771 4.885a8 8 0 0 0 11.339-9.095 107.018 107.018 0 0 0 -87.746-80l-32.014-4.924v-17.136h-16v17.136l-32.015 4.926a107.019 107.019 0 0 0 -87.746 80 8 8 0 0 0 11.339 9.095l9.772-4.885a41.9 41.9 0 0 1 37.3 0l9.771 4.885a8 8 0 0 0 8.016-.5 41.8 41.8 0 0 1 41.783-2.6l1.779.889v22.2h-8a39.755 39.755 0 0 0 -22.047 6.648 112.036 112.036 0 0 0 -71.346 129.393 36.03 36.03 0 0 0 -23.98 10.586l-16 16a36.277 36.277 0 0 0 -1.456 49.763 93.34 93.34 0 0 0 -10.352 53.483zm18.182 10.406 36.7 10.487 7.252 39.886a76.826 76.826 0 0 1 -43.952-50.373zm5.326-54.483a36.217 36.217 0 0 0 13.96 2.774 36.736 36.736 0 0 0 6.017-.5l8.208 45.147-36.143-10.327a77.321 77.321 0 0 1 7.956-37.094zm55.618-23.853a36.767 36.767 0 0 0 3.348-3.856 40.071 40.071 0 0 0 38.708 29.914h32a40.215 40.215 0 0 0 5.936-.442 36.305 36.305 0 0 0 18.964 55.374l-13.753 13.754-89.976-89.975zm76 9.973a23.893 23.893 0 0 0 6.056-15.915v-16h-16v16a8 8 0 0 1 -16 0v-16h-16v16a23.9 23.9 0 0 0 6.057 15.915 24 24 0 0 1 1.943-47.915h32a24 24 0 0 1 1.943 47.915zm-75.812 123.779-20.712-113.917a36.585 36.585 0 0 0 4.436-3.754l89.977 89.977-6.343 6.343a76.794 76.794 0 0 1 -67.358 21.351zm139.927-89.067-16 16a20.284 20.284 0 1 1 -28.686-28.685l16-16a20.284 20.284 0 0 1 28.686 28.685zm-50.059-282.357v-54.89a76.806 76.806 0 0 1 38.834 54.152 57.891 57.891 0 0 0 -38.834.738zm98.092-2.633a58.042 58.042 0 0 0 -42.944 2.727 92.791 92.791 0 0 0 -26.988-53.854l1.421.219a91.031 91.031 0 0 1 68.511 50.908zm-212.184 0a91.032 91.032 0 0 1 68.511-50.909l1.421-.219a92.791 92.791 0 0 0 -26.988 53.854 58.027 58.027 0 0 0 -42.944-2.725zm77.686-1.114a57.939 57.939 0 0 0 -18.43 3.023 76.8 76.8 0 0 1 38.836-54.166v54.885a57.7 57.7 0 0 0 -20.406-3.741zm-27.084 77.13a40.057 40.057 0 0 0 -.51 6.35v2.5a37.546 37.546 0 0 0 37.5 37.5h10.5a24 24 0 0 0 0-48h-8v16h8a8 8 0 0 1 0 16h-10.5a21.528 21.528 0 0 1 -21.5-21.5v-2.5a24.028 24.028 0 0 1 24-24h16a96.007 96.007 0 0 1 51.715 176.891 36.388 36.388 0 0 0 -21.106 1.55 39.986 39.986 0 0 0 -38.609-50.444h-32a39.988 39.988 0 0 0 -33.056 17.507 36.43 36.43 0 0 0 -18.919-21.929 96.126 96.126 0 0 1 36.485-105.925zm-82.568 140.289 16-16a20.283 20.283 0 0 1 28.685 28.685l-16 16a20.283 20.283 0 1 1 -28.685-28.685z"/></svg>