<svg id="filled_outline" height="512" viewBox="0 0 512 512" width="512" xmlns="http://www.w3.org/2000/svg" data-name="filled outline"><path d="m272.854 68.944a69.265 69.265 0 0 0 -64.854-44.944 69.265 69.265 0 0 0 -64.854 44.944l-7.146 19.056v24h144v-24zm-104.854 19.056 5.267-10.534a38.833 38.833 0 0 1 69.466 0l5.267 10.534z" fill="#4abdcc"/><path d="m306.044 88h-196.088a29.956 29.956 0 0 0 -29.956 29.956v171.468a70.574 70.574 0 0 0 22.306 51.488 70.547 70.547 0 0 0 17.694 12.1v50.2a12.788 12.788 0 0 0 12.788 12.788h6.424a12.788 12.788 0 0 0 12.788-12.788v-34.28a8.932 8.932 0 0 1 8.932-8.932h22.136a8.932 8.932 0 0 1 8.932 8.932v47.068h32v-47.068a8.932 8.932 0 0 1 8.932-8.932h22.136a8.932 8.932 0 0 1 8.932 8.932v34.668a12.4 12.4 0 0 0 12.4 12.4h7.2a12.4 12.4 0 0 0 12.4-12.4v-50.59a70.547 70.547 0 0 0 17.694-12.1 70.574 70.574 0 0 0 22.306-51.486v-171.468a29.956 29.956 0 0 0 -29.956-29.956z" fill="#afeaef"/><path d="m120 88h-10.044a29.956 29.956 0 0 0 -29.956 29.956v171.468a70.574 70.574 0 0 0 22.306 51.488 70.547 70.547 0 0 0 17.694 12.1v50.2a12.788 12.788 0 0 0 12.788 12.788h6.424a12.788 12.788 0 0 0 12.788-12.788v-34.28a8.932 8.932 0 0 1 8.932-8.932h22.136a8.932 8.932 0 0 1 8.932 8.932v47.068h32v-47.068a8.932 8.932 0 0 1 8.932-8.932h22.136a8.932 8.932 0 0 1 8.932 8.932v34.668a12.4 12.4 0 0 0 12.4 12.4h7.2a12.4 12.4 0 0 0 12.4-12.4v-50.59a70.547 70.547 0 0 0 17.694-12.1 70.567 70.567 0 0 0 21.985-44.91h-7.679c-114.875 0-208-93.125-208-208z" fill="#77d5d8"/><g fill="#4abdcc"><path d="m136 403.212v-50.2a70.547 70.547 0 0 1 -17.694-12.1 70.574 70.574 0 0 1 -22.306-51.488v-171.468a29.964 29.964 0 0 1 24.008-29.363c0-.2-.008-.4-.008-.593h-10.044a29.956 29.956 0 0 0 -29.956 29.956v171.468a70.574 70.574 0 0 0 22.306 51.488 70.547 70.547 0 0 0 17.694 12.1v50.2a12.788 12.788 0 0 0 12.788 12.788h6.424a12.726 12.726 0 0 0 4.788-.936 12.784 12.784 0 0 1 -8-11.852z"/><path d="m199.068 360h-16a8.932 8.932 0 0 1 8.932 8.932v47.068h16v-47.068a8.932 8.932 0 0 0 -8.932-8.932z"/><path d="m280 403.6v-34.67a8.932 8.932 0 0 0 -8.932-8.93h-16a8.932 8.932 0 0 1 8.932 8.932v34.668a12.4 12.4 0 0 0 12.4 12.4h7.2a12.328 12.328 0 0 0 4.4-.818 12.391 12.391 0 0 1 -8-11.582z"/></g><path d="m112 176v107.074a31.722 31.722 0 0 0 16 27.536v33.39h16v-26.821a194.871 194.871 0 0 0 56 10.642v24.179h16v-24.179a194.871 194.871 0 0 0 56-10.642v26.821h16v-33.39a31.722 31.722 0 0 0 16-27.536v-107.074z" fill="#ce3521"/><path d="m341.3 47.451-31.035 46.556a37.3 37.3 0 0 0 4.661 47.067 37.3 37.3 0 0 0 52.753 0 37.3 37.3 0 0 0 4.661-47.067z" fill="#ce3521"/><path d="m338.926 125.624a37.3 37.3 0 0 1 -4.66-47.068l13.886-20.83-6.852-10.275-31.034 46.556a37.3 37.3 0 0 0 4.66 47.067 37.3 37.3 0 0 0 52.753 0 37.317 37.317 0 0 0 4.284-5.13 37.25 37.25 0 0 1 -33.037-10.32z" fill="#a52016"/><path d="m386.44 55.037 20.692-31.037 20.691 31.037a24.869 24.869 0 0 1 -3.107 31.379 24.869 24.869 0 0 1 -35.169 0 24.869 24.869 0 0 1 -3.107-31.379z" fill="#ce3521"/><path d="m405.547 78.416a24.869 24.869 0 0 1 -3.107-31.379l10.025-15.037-5.333-8-20.692 31.037a24.869 24.869 0 0 0 3.107 31.379 24.869 24.869 0 0 0 35.169 0c.267-.267.5-.551.757-.827a24.818 24.818 0 0 1 -19.926-7.173z" fill="#a52016"/><path d="m192 432h32v56h-32z" fill="#b7b7b7"/><path d="m192 432h16v56h-16z" fill="#898989"/><path d="m136 220.124v-44.124h-24v107.074a31.722 31.722 0 0 0 16 27.536v33.39h16v-26.821a194.871 194.871 0 0 0 56 10.642v24.179h16v-24.179a194.871 194.871 0 0 0 56-10.642v26.821h16v-33.39a31.722 31.722 0 0 0 16-27.536v-3.074h-108.124a59.875 59.875 0 0 1 -59.876-59.876z" fill="#a52016"/><path d="m176 408h64v32h-64z" fill="#f9e48c"/><path d="m184 408h-8v32h64v-16h-40a16 16 0 0 1 -16-16z" fill="#f7b023"/><path d="m144 128h128v144h-128z" fill="#b7b7b7"/><path d="m168 128h104a0 0 0 0 1 0 0v120a0 0 0 0 1 0 0h-27.459a76.541 76.541 0 0 1 -76.541-76.541v-43.459a0 0 0 0 1 0 0z" fill="#e5e5e5"/><g fill="#066991"><path d="m256 176h-16v-16h-16v16h-16v16h16v16h16v-16h16z"/><path d="m215.353 212.849-24-56a8 8 0 0 0 -14.706 0l-24 56 14.706 6.3 4.779-11.149h23.736l4.779 11.151zm-36.364-20.849 5.011-11.691 5.011 11.691z"/><path d="m176 232h16v16h-16z"/><path d="m208 232h40v16h-40z"/></g><path d="m347.959 43.014a8 8 0 0 0 -13.312 0l-31.038 46.555a45.275 45.275 0 0 0 24.391 68.419v131.436a62.467 62.467 0 0 1 -35.467 56.376 8 8 0 0 0 -4.533 7.21v50.59a4.4 4.4 0 0 1 -4.4 4.4h-7.2a4.4 4.4 0 0 1 -4.4-4.4v-34.67a16.952 16.952 0 0 0 -16.932-16.93h-22.136a16.952 16.952 0 0 0 -16.932 16.932v31.068h-16v-31.068a16.952 16.952 0 0 0 -16.932-16.932h-22.136a16.952 16.952 0 0 0 -16.932 16.932v34.281a4.792 4.792 0 0 1 -4.787 4.787h-6.425a4.793 4.793 0 0 1 -4.788-4.787v-50.2a8 8 0 0 0 -4.533-7.21 62.467 62.467 0 0 1 -35.467-56.379v-171.468a21.982 21.982 0 0 1 21.956-21.956h186.044v-16h-10.456l-5.2-13.865a77.265 77.265 0 0 0 -144.69 0l-5.198 13.865h-20.5a38 38 0 0 0 -37.956 37.956v171.468a78.454 78.454 0 0 0 40 68.436v45.353a20.811 20.811 0 0 0 20.788 20.787h6.425a20.811 20.811 0 0 0 20.787-20.787v-34.281a.933.933 0 0 1 .932-.932h22.136a.933.933 0 0 1 .932.932v31.068h-8a8 8 0 0 0 -8 8v32a8 8 0 0 0 8 8h8v40a8 8 0 0 0 8 8h32a8 8 0 0 0 8-8v-40h8a8 8 0 0 0 8-8v-32a8 8 0 0 0 -8-8h-8v-31.068a.933.933 0 0 1 .932-.932h22.136a.933.933 0 0 1 .932.932v34.668a20.421 20.421 0 0 0 20.4 20.4h7.2a20.42 20.42 0 0 0 20.4-20.4v-45.74a78.447 78.447 0 0 0 40-68.436v-129.535a45.264 45.264 0 0 0 35-70.32zm-166.969 36.986a30.8 30.8 0 0 1 54.02 0zm-30.353-8.248a61.264 61.264 0 0 1 114.726 0l3.093 8.248h-15.512l-3.056-6.112a46.832 46.832 0 0 0 -83.776 0l-3.056 6.112h-15.512zm65.363 408.248h-16v-32h16zm16-48h-48v-16h48zm130.023-296.583a29.3 29.3 0 0 1 -45.1-36.973l24.377-36.571 24.381 36.571a29.382 29.382 0 0 1 -3.658 36.973z"/><path d="m272 280a8 8 0 0 0 8-8v-144a8 8 0 0 0 -8-8h-128a8 8 0 0 0 -8 8v144a8 8 0 0 0 8 8zm-120-144h112v128h-112z"/><path d="m413.788 19.562a8 8 0 0 0 -13.312 0l-20.692 31.038a32.868 32.868 0 1 0 54.7 0zm5.271 61.2a16.868 16.868 0 0 1 -25.959-21.287l14.036-21.053 14.035 21.053a16.914 16.914 0 0 1 -2.112 21.284z"/><path d="m215.353 212.849-24-56a8 8 0 0 0 -14.706 0l-24 56 14.706 6.3 4.779-11.149h23.736l4.779 11.151zm-36.363-20.849 5.01-11.691 5.011 11.691z"/><path d="m240 160h-16v16h-16v16h16v16h16v-16h16v-16h-16z"/><path d="m176 232h16v16h-16z"/><path d="m208 232h40v16h-40z"/><path d="m288 344v-24.443a39.688 39.688 0 0 0 24-36.483v-107.074h-16v107.074a23.707 23.707 0 0 1 -14.386 21.816 186.874 186.874 0 0 1 -147.228 0 23.709 23.709 0 0 1 -14.386-21.816v-107.074h-16v107.074a39.69 39.69 0 0 0 24 36.483v24.443h16v-18.363a201.2 201.2 0 0 0 56 10.192v16.171h16v-16.171a201.2 201.2 0 0 0 56-10.192v18.363z"/></svg>