<svg id="filled_outline" height="512" viewBox="0 0 512 512" width="512" xmlns="http://www.w3.org/2000/svg" data-name="filled outline"><rect fill="#faa6a6" height="48" rx="24" width="224" x="144" y="112"/><rect fill="#faa6a6" height="208" rx="69.472" width="160" x="176" y="24"/><path d="m282.528 216h-21.056a69.472 69.472 0 0 1 -69.472-69.472v-69.056a69.132 69.132 0 0 1 13.014-40.458 69.363 69.363 0 0 0 -29.014 56.458v69.056a69.472 69.472 0 0 0 69.472 69.472h21.056a69.361 69.361 0 0 0 56.458-29.014 69.132 69.132 0 0 1 -40.458 13.014z" fill="#e88080"/><path d="m266.528 24h-21.056a69.472 69.472 0 0 0 -69.472 69.472v32a69.472 69.472 0 0 1 69.472-69.472h21.056a69.472 69.472 0 0 1 69.472 69.472v-32a69.472 69.472 0 0 0 -69.472-69.472z" fill="#f4c7c6"/><path d="m261.472 24h-16a69.472 69.472 0 0 0 -69.472 69.472v32a69.193 69.193 0 0 1 17.406-45.972 69.5 69.5 0 0 1 68.066-55.5z" fill="#faa6a6"/><path d="m120 496v-193.167a46.833 46.833 0 0 1 46.833-46.833h178.334a46.833 46.833 0 0 1 46.833 46.833v193.167z" fill="#faa6a6"/><path d="m144 312h16v184h-16z" fill="#e88080"/><path d="m352 312h16v184h-16z" fill="#e88080"/><path d="m284.438 337.344-20.438-13.625v-59.719h-16v59.719l-20.437 13.625 8.875 13.312 19.562-13.041 19.563 13.041z" fill="#a52016"/><path d="m280 304.49a8.49 8.49 0 0 1 8.49-8.49 39.51 39.51 0 0 1 39.51 39.51v58.753a8.491 8.491 0 0 1 -12.287 7.594l-16.86-8.43a34.108 34.108 0 0 1 -18.853-30.506z" fill="#ce3521"/><path d="m232 304.49a8.49 8.49 0 0 0 -8.49-8.49 39.51 39.51 0 0 0 -39.51 39.51v58.753a8.49 8.49 0 0 0 12.287 7.593l16.86-8.43a34.106 34.106 0 0 0 18.853-30.505z" fill="#ce3521"/><g fill="#f7ce23"><path d="m200 336h16v16h-16z"/><path d="m296 344h16v16h-16z"/><path d="m216 352h16v16h-16z"/><path d="m280 312h16v16h-16z"/><path d="m128 336h16v16h-16z"/><path d="m136 384h16v16h-16z"/><path d="m208 312h16v16h-16z"/><path d="m160 272h16v16h-16z"/><path d="m328 272h16v16h-16z"/><path d="m360 288h16v16h-16z"/><path d="m352 352h16v16h-16z"/></g><path d="m232 120h-24v-16h20.687l5.656-5.657 11.314 11.314-8 8a8 8 0 0 1 -5.657 2.343z" fill="#e88080"/><path d="m304 120h-24a8 8 0 0 1 -5.657-2.343l-8-8 11.314-11.314 5.656 5.657h20.687z" fill="#e88080"/><path d="m96 84.723h-16v-28.723a8 8 0 0 0 -16 0v28.723h-16v-28.723a24 24 0 0 1 48 0z" fill="#afeaef"/><path d="m43.418 72h57.165a11.418 11.418 0 0 1 11.417 11.418v60.7a23.88 23.88 0 0 1 -23.88 23.882h-32.24a23.88 23.88 0 0 1 -23.88-23.88v-60.7a11.418 11.418 0 0 1 11.418-11.42z" fill="#77d5d8"/><path d="m104.151 368a24.178 24.178 0 0 1 -24.151-24.151v-135.849h8v-16h-8v-32h-16v32h-8v16h8v135.849a40.2 40.2 0 0 0 40.151 40.151h23.849v-16z" fill="#afeaef"/><path d="m72 116a16.338 16.338 0 0 0 -20.9-5.55l-19.1 9.55v24.12a23.879 23.879 0 0 0 23.88 23.88h32.24a23.879 23.879 0 0 0 23.88-23.88v-32.12l-19.1 9.55a16.338 16.338 0 0 1 -20.9-5.55z" fill="#1dbf5e"/><g fill="#e88080"><path d="m187.155 440h-3.155v-16h3.155a45.807 45.807 0 0 0 38.189-20.438l13.312 8.876a61.775 61.775 0 0 1 -51.501 27.562z"/><path d="m187.155 480h-3.155v-16h3.155a45.807 45.807 0 0 0 38.189-20.438l13.312 8.876a61.775 61.775 0 0 1 -51.501 27.562z"/><path d="m328 440h-3.155a61.775 61.775 0 0 1 -51.5-27.562l13.312-8.876a45.807 45.807 0 0 0 38.188 20.438h3.155z"/><path d="m328 480h-3.155a61.775 61.775 0 0 1 -51.5-27.562l13.312-8.876a45.807 45.807 0 0 0 38.188 20.438h3.155z"/></g><path d="m228.812 154.879-52.764-63.317c-.017.637-.048 1.269-.048 1.91v23.028l40.521 48.625z" fill="#e5e5e5"/><path d="m295.479 165.121 40.521-48.621v-23.028c0-.641-.031-1.273-.048-1.91l-52.764 63.317z" fill="#e5e5e5"/><path d="m269.976 272h-27.952a34.024 34.024 0 0 1 -34.024-34.024v-57.484a36.491 36.491 0 0 1 27.642-35.4 37.082 37.082 0 0 1 8.948-1.111c6.006-.012 16.562-.04 22.557-.056a36.069 36.069 0 0 1 8.853 1.075l.358.089a36.5 36.5 0 0 1 27.642 35.403v57.484a34.024 34.024 0 0 1 -34.024 34.024z" fill="#77d5d8"/><path d="m299.976 242a61.975 61.975 0 0 1 -61.976-61.976v-29.532a36.552 36.552 0 0 1 .5-5.984c-.957.161-1.91.346-2.853.582a36.491 36.491 0 0 0 -27.647 35.402v57.484a34.024 34.024 0 0 0 34.024 34.024h27.952a34.025 34.025 0 0 0 33.807-30.217 34.443 34.443 0 0 1 -3.807.217z" fill="#4abdcc"/><path d="m279.976 262h-27.952a34.024 34.024 0 0 1 -34.024-34.024v-57.484a36.41 36.41 0 0 1 6.185-20.317 36.491 36.491 0 0 0 -16.185 30.317v57.484a34.024 34.024 0 0 0 34.024 34.024h27.952a33.98 33.98 0 0 0 28.531-15.5 33.843 33.843 0 0 1 -18.531 5.5z" fill="#3b9daf"/><path d="m240 200v24.171a31.829 31.829 0 0 0 31.829 31.829h120.451a31.721 31.721 0 0 0 31.72-31.72v-128.28h-32v119.39a8.61 8.61 0 0 1 -8.61 8.61h-103.99a7.4 7.4 0 0 1 -7.4-7.4v-16.6a16 16 0 0 0 -16-16 16 16 0 0 0 -16 16z" fill="#f9e48c"/><path d="m393.39 214a8.61 8.61 0 0 0 8.61-8.61v-109.39h-10v118z" fill="#f7b023"/><path d="m402.28 246h-120.451a31.829 31.829 0 0 1 -31.829-31.829v-24.171a15.964 15.964 0 0 1 .859-5.141 16 16 0 0 0 -10.859 15.141v24.171a31.829 31.829 0 0 0 31.829 31.829h120.451a31.691 31.691 0 0 0 26.862-14.858 31.557 31.557 0 0 1 -16.862 4.858z" fill="#f7b023"/><path d="m152 384h-16v16h16v88h16v-176h-16z"/><path d="m360 312h-16v176h16v-120h8v-16h-8z"/><path d="m288.49 288a16.509 16.509 0 0 0 -16.49 16.49v7.51h8v16h16v-16h-8v-7.51a.491.491 0 0 1 .49-.49 31.545 31.545 0 0 1 31.51 31.51v58.753a.489.489 0 0 1 -.709.438l-16.859-8.43a25.962 25.962 0 0 1 -14.432-23.35v-2.921h-16v2.921a41.877 41.877 0 0 0 23.276 37.661l16.86 8.43a16.489 16.489 0 0 0 23.864-14.749v-58.753a47.563 47.563 0 0 0 -47.51-47.51z"/><path d="m200 336h16v16h-16z"/><path d="m296 344h16v16h-16z"/><path d="m232 352h-16v16h7.5a25.932 25.932 0 0 1 -13.932 18.271l-16.858 8.429a.49.49 0 0 1 -.71-.438v-58.752a31.545 31.545 0 0 1 31.51-31.51.491.491 0 0 1 .49.489v7.511h16v-7.511a16.508 16.508 0 0 0 -16.49-16.489 47.563 47.563 0 0 0 -47.51 47.51v58.753a16.466 16.466 0 0 0 23.865 14.749l16.86-8.43a41.878 41.878 0 0 0 23.275-37.661v-2.921h-8z"/><path d="m208 312h16v16h-16z"/><path d="m160 272h16v16h-16z"/><path d="m328 272h16v16h-16z"/><path d="m360 288h16v16h-16z"/><path d="m424 88h-32a8 8 0 0 0 -8 8v119.391a.609.609 0 0 1 -.609.609h-60.784a77.052 77.052 0 0 0 21.2-48h.2a32 32 0 0 0 0-64v-10.528a77.56 77.56 0 0 0 -77.479-77.472h-21.056a77.56 77.56 0 0 0 -77.472 77.472v10.528a32 32 0 0 0 0 64h.2a77.125 77.125 0 0 0 31.8 57.253v12.723a41.944 41.944 0 0 0 1.218 10.024h-34.385a54.9 54.9 0 0 0 -54.833 54.833v65.167h-7.849a24.178 24.178 0 0 1 -24.151-24.151v-135.849h8v-16h-8v-16h8.12a31.916 31.916 0 0 0 31.88-31.88v-60.7a19.44 19.44 0 0 0 -19.418-19.42h-4.582v-8a24 24 0 0 0 -48 0v8h-4.582a19.44 19.44 0 0 0 -19.418 19.418v60.7a31.916 31.916 0 0 0 31.88 31.882h8.12v16h-8v16h8v135.849a40.2 40.2 0 0 0 40.151 40.151h7.849v112h16v-144h16v-16h-16v-33.167a38.877 38.877 0 0 1 38.833-38.833h42.232a41.961 41.961 0 0 0 32.96 16h5.975v43.719l-20.437 13.625 8.875 13.312 19.562-13.041 19.563 13.041 8.875-13.312-20.438-13.625v-43.719h5.976a41.764 41.764 0 0 0 32.982-16h42.209a38.877 38.877 0 0 1 38.833 38.833v193.167h16v-193.167a54.661 54.661 0 0 0 -16.16-38.833h8.44a39.765 39.765 0 0 0 39.72-39.72v-128.28a8 8 0 0 0 -8-8zm-360-32a8 8 0 0 1 16 0v8h-16zm-20.582 24h57.164a3.421 3.421 0 0 1 3.418 3.418v23.638l-14.679 7.344a8.351 8.351 0 0 1 -10.665-2.833 24.37 24.37 0 0 0 -31.132-8.267l-7.524 3.756v-23.638a3.421 3.421 0 0 1 3.418-3.418zm-3.418 64.12v-19.176l14.679-7.339a8.35 8.35 0 0 1 10.665 2.833 24.356 24.356 0 0 0 31.133 8.267l7.523-3.761v19.176a15.9 15.9 0 0 1 -15.88 15.88h-32.24a15.9 15.9 0 0 1 -15.88-15.88zm179.486-.433-32.046-38.455a61.567 61.567 0 0 1 58.032-41.232h21.056a61.569 61.569 0 0 1 58.033 41.232l-32.047 38.455a44.559 44.559 0 0 0 -14.227-6.362l-.344-.086a44.18 44.18 0 0 0 -10.7-1.316h-.115c-5.994.016-16.545.045-22.55.056a45.163 45.163 0 0 0 -10.874 1.35 44.507 44.507 0 0 0 -14.218 6.358zm92.514 60.226v-23.421a44.4 44.4 0 0 0 -8.048-25.539l24.048-28.853v36.433a61.215 61.215 0 0 1 -16 41.38zm48-67.913a16.019 16.019 0 0 1 -16 16v-32a16.019 16.019 0 0 1 16 16zm-114.528-104h21.056a61.576 61.576 0 0 1 58.587 42.869 77.3 77.3 0 0 0 -58.587-26.869h-21.056a77.3 77.3 0 0 0 -58.587 26.869 61.576 61.576 0 0 1 58.587-42.869zm-93.472 104a16.019 16.019 0 0 1 16-16v32a16.019 16.019 0 0 1 -16-16zm32 26.528v-36.428l24.048 28.858a44.408 44.408 0 0 0 -8.048 25.534v23.421a61.215 61.215 0 0 1 -16-41.385zm58.025 101.472a26.055 26.055 0 0 1 -26.025-26.024v-57.484a28.452 28.452 0 0 1 21.582-27.641 29.154 29.154 0 0 1 7.024-.872c6.007-.011 16.566-.04 22.562-.056h.073a28.169 28.169 0 0 1 6.836.843l.344.085a28.45 28.45 0 0 1 21.579 27.641v35.508h-16v-16a24 24 0 0 0 -48 0v24.171a39.868 39.868 0 0 0 38.8 39.8c-.274.008-.548.026-.824.026zm173.975-39.72a23.747 23.747 0 0 1 -23.72 23.72h-120.451a23.856 23.856 0 0 1 -23.829-23.829v-24.171a8 8 0 0 1 16 0v16.6a15.415 15.415 0 0 0 15.4 15.4h103.991a16.628 16.628 0 0 0 16.609-16.609v-111.391h16z"/><path d="m245.657 109.657-11.314-11.314-5.656 5.657h-20.687v16h24a8 8 0 0 0 5.657-2.343z"/><path d="m280 120h24v-16h-20.686l-5.657-5.657-11.314 11.314 8 8a8 8 0 0 0 5.657 2.343z"/><path d="m187.155 424h-3.155v16h3.155a61.772 61.772 0 0 0 51.5-27.562l-13.312-8.876a45.806 45.806 0 0 1 -38.188 20.438z"/><path d="m187.155 464h-3.155v16h3.155a61.772 61.772 0 0 0 51.5-27.562l-13.312-8.876a45.806 45.806 0 0 1 -38.188 20.438z"/><path d="m286.656 403.562-13.312 8.876a61.775 61.775 0 0 0 51.501 27.562h3.155v-16h-3.155a45.807 45.807 0 0 1 -38.189-20.438z"/><path d="m286.656 443.562-13.312 8.876a61.775 61.775 0 0 0 51.501 27.562h3.155v-16h-3.155a45.807 45.807 0 0 1 -38.189-20.438z"/></svg>