<svg id="filled_outline" height="512" viewBox="0 0 512 512" width="512" xmlns="http://www.w3.org/2000/svg" data-name="filled outline"><path d="m256 272a133.687 133.687 0 0 1 -88-125.638v-50.362l88-32 88 32v50.362a133.687 133.687 0 0 1 -88 125.638z" fill="#77d5d8"/><path d="m184 154.362v-50.362l82-29.817 78 29.817v-8l-88-32-88 32v50.362a133.676 133.676 0 0 0 82.029 123.285 133.687 133.687 0 0 1 -66.029-115.285z" fill="#afeaef"/><path d="m256 64 88 32v50.362a133.687 133.687 0 0 1 -88 125.638z" fill="#4abdcc"/><path d="m256 64v13.636l78 28.364v50.362a133.6 133.6 0 0 1 -34.4 89.5 133.668 133.668 0 0 0 44.4-99.5v-50.362z" fill="#3b9daf"/><path d="m320 152h-32v-32h-32v32h-32v32h32v32h32v-32h32z" fill="#3b9daf"/><path d="m256 120h-8v32h-32v32h32v32h8z" fill="#4abdcc"/><path d="m304 144h-32v-32h-32v32h-32v32h32v32h32v-32h32z" fill="#f44a2a"/><path d="m120 392 32-32v-28.686a27.315 27.315 0 0 1 8-19.314l8-8a27.315 27.315 0 0 1 19.314-8h49.372a27.315 27.315 0 0 1 19.314 8 27.315 27.315 0 0 1 8 19.314v20.686h72l45-45a26.874 26.874 0 0 1 38 0 18.381 18.381 0 0 1 0 26l-83 83h-120l-40 40z" fill="#faa6a6"/><path d="m419 301-77.619 77.619a18.377 18.377 0 0 1 -13 5.383h-104.768a18.377 18.377 0 0 0 -13 5.383l-17.195 17.195a24.638 24.638 0 0 1 -34.844 0l-26.574-26.58-12 12 56 56 40-40h120l83-83a18.37 18.37 0 0 0 .9-25c-.288.338-.577.677-.9 1z" fill="#e88080"/><path d="m113.373 375.431h45.255v113.137h-45.255z" fill="#4abdcc" transform="matrix(.707 -.707 .707 .707 -265.637 222.696)"/><path d="m144 440-48-48-16 16 80 80 32-32-16-16a22.627 22.627 0 0 1 -32 0z" fill="#066991"/><g fill="#f7ce23"><path d="m248 16h16v24h-16z"/><path d="m168 37.578h16v28.844h-16z" transform="matrix(.832 -.555 .555 .832 .715 106.361)"/><path d="m204 23.351h16v25.298h-16z" transform="matrix(.949 -.316 .316 .949 -.505 68.888)"/><path d="m321.578 44h28.844v16h-28.844z" transform="matrix(.555 -.832 .832 .555 106.354 302.724)"/><path d="m287.351 28h25.298v16h-25.298z" transform="matrix(.316 -.949 .949 .316 170.979 309.221)"/></g><path d="m208 328h56v16h-56z" fill="#e88080"/><path d="m196.974 102.562 16.948-6.11a7.526 7.526 0 0 1 10.078 7.08 7.525 7.525 0 0 1 -4.974 7.08l-16.948 6.11a7.526 7.526 0 0 1 -10.078-7.08 7.526 7.526 0 0 1 4.974-7.08z" fill="#fff"/><circle cx="240" cy="96" fill="#fff" r="8"/><path d="m232 208a8 8 0 0 0 8 8h32a8 8 0 0 0 8-8v-24h24a8 8 0 0 0 8-8v-32a8 8 0 0 0 -8-8h-24v-24a8 8 0 0 0 -8-8h-32a8 8 0 0 0 -8 8v24h-24a8 8 0 0 0 -8 8v32a8 8 0 0 0 8 8h24zm-16-40v-16h24a8 8 0 0 0 8-8v-24h16v24a8 8 0 0 0 8 8h24v16h-24a8 8 0 0 0 -8 8v24h-16v-24a8 8 0 0 0 -8-8z"/><path d="m253.266 279.519a8.011 8.011 0 0 0 5.468 0 142.12 142.12 0 0 0 93.266-133.157v-50.362a8 8 0 0 0 -5.266-7.519l-88-32a8.014 8.014 0 0 0 -5.468 0l-88 32a8 8 0 0 0 -5.266 7.519v50.362a142.12 142.12 0 0 0 93.266 133.157zm-77.266-177.919 72-26.182v12.582h16v-12.578l72 26.178v44.758a126.126 126.126 0 0 1 -72 113.625v-27.983h-16v27.987a126.126 126.126 0 0 1 -72-113.625z"/><path d="m154.343 493.657a8 8 0 0 0 11.314 0l32-32a8 8 0 0 0 0-11.314l-6.343-6.343 28-28h116.686a8 8 0 0 0 5.657-2.343l83-83a26.381 26.381 0 0 0 0-37.309 34.873 34.873 0 0 0 -49.318 0l-42.652 42.652h-60.687v-12.687a35.313 35.313 0 0 0 -35.313-35.313h-49.373a35.082 35.082 0 0 0 -24.971 10.343l-8 8a35.082 35.082 0 0 0 -10.343 24.97v25.374l-20 20-6.343-6.344a8 8 0 0 0 -11.314 0l-32 32a8 8 0 0 0 0 11.314zm3.314-128a8 8 0 0 0 2.343-5.657v-28.687a19.187 19.187 0 0 1 5.657-13.656l8-8a19.187 19.187 0 0 1 13.657-5.657h49.373a19.314 19.314 0 0 1 19.313 19.313v12.687h-48v16h128a8 8 0 0 0 5.657-2.343l45-45a18.9 18.9 0 0 1 26.691 0 10.4 10.4 0 0 1 0 14.682l-80.661 80.661h-116.687a8 8 0 0 0 -5.657 2.343l-30.343 30.344-44.686-44.687zm-45.657 21.657 68.686 68.686-20.686 20.686-68.686-68.686z"/><path d="m248 16h16v24h-16z"/><path d="m168 37.578h16v28.844h-16z" transform="matrix(.832 -.555 .555 .832 .715 106.361)"/><path d="m204 23.351h16v25.298h-16z" transform="matrix(.949 -.316 .316 .949 -.505 68.888)"/><path d="m321.578 44h28.844v16h-28.844z" transform="matrix(.555 -.832 .832 .555 106.354 302.725)"/><path d="m287.351 28h25.298v16h-25.298z" transform="matrix(.316 -.949 .949 .316 170.979 309.221)"/></svg>