<svg id="filled_outline" height="512" viewBox="0 0 512 512" width="512" xmlns="http://www.w3.org/2000/svg" data-name="filled outline"><rect fill="#faa6a6" height="48" rx="24" width="224" x="144" y="112"/><rect fill="#faa6a6" height="208" rx="69.472" width="160" x="176" y="24"/><path d="m200 162.528v-69.056a69.458 69.458 0 0 1 68-69.435c-.491-.01-.978-.037-1.472-.037h-21.056a69.472 69.472 0 0 0 -69.472 69.472v69.056a69.472 69.472 0 0 0 69.472 69.472h21.056c.494 0 .981-.027 1.472-.037a69.458 69.458 0 0 1 -68-69.435z" fill="#e88080"/><path d="m128 384h-23.849a40.2 40.2 0 0 1 -40.151-40.151v-183.849h16v183.849a24.178 24.178 0 0 0 24.151 24.151h23.849z" fill="#066991"/><path d="m120 496v-193.167a46.833 46.833 0 0 1 46.833-46.833h178.334a46.833 46.833 0 0 1 46.833 46.833v193.167z" fill="#faa6a6"/><path d="m182.833 256h-16a46.833 46.833 0 0 0 -46.833 46.833v193.167h16v-193.167a46.833 46.833 0 0 1 46.833-46.833z" fill="#e88080"/><path d="m232 120h-24v-16h20.687l5.656-5.657 11.314 11.314-8 8a8 8 0 0 1 -5.657 2.343z" fill="#ce6b6b"/><path d="m304 120h-24a8 8 0 0 1 -5.657-2.343l-8-8 11.314-11.314 5.656 5.657h20.687z" fill="#ce6b6b"/><path d="m96 80h-16v-24a8 8 0 0 0 -16 0v24h-16v-24a24 24 0 0 1 48 0z" fill="#066991"/><path d="m43.418 72h57.165a11.418 11.418 0 0 1 11.417 11.418v60.7a23.88 23.88 0 0 1 -23.88 23.882h-32.24a23.88 23.88 0 0 1 -23.88-23.88v-60.7a11.418 11.418 0 0 1 11.418-11.42z" fill="#afeaef"/><path d="m48 144.12v-60.7a11.418 11.418 0 0 1 11.418-11.42h-16a11.418 11.418 0 0 0 -11.418 11.418v60.7a23.88 23.88 0 0 0 23.88 23.882h16a23.88 23.88 0 0 1 -23.88-23.88z" fill="#77d5d8"/><path d="m72 116a16.338 16.338 0 0 0 -20.9-5.55l-19.1 9.55v24.12a23.88 23.88 0 0 0 23.88 23.88h32.24a23.88 23.88 0 0 0 23.88-23.88v-32.12l-19.1 9.55a16.338 16.338 0 0 1 -20.9-5.55z" fill="#4abdcc"/><path d="m56 192h32v16h-32z" fill="#3b9daf"/><path d="m200.762 40.314a69.308 69.308 0 0 0 -24.762 53.158v18.528l85.005-51z" fill="#77d5d8"/><path d="m200 93.472a69.174 69.174 0 0 1 18.44-47.089l-17.678-6.069a69.308 69.308 0 0 0 -24.762 53.158v18.528l24-14.4z" fill="#4abdcc"/><path d="m336 96v-2.528a69.472 69.472 0 0 0 -69.472-69.472h-21.056a69.18 69.18 0 0 0 -44.71 16.314z" fill="#afeaef"/><path d="m217.762 47.314a69.18 69.18 0 0 1 44.71-16.314h21.056a69.572 69.572 0 0 1 17.654 2.27 69.119 69.119 0 0 0 -34.654-9.27h-21.056a69.18 69.18 0 0 0 -44.71 16.314z" fill="#77d5d8"/><path d="m280 440v24.6a15.4 15.4 0 0 1 -15.4 15.4h-17.2a15.4 15.4 0 0 1 -15.4-15.4v-24.6z" fill="#066991"/><path d="m176 392v-80h-16v184h40v-80z" fill="#e88080"/><path d="m336 312v80l-24 24v80h40v-184z" fill="#e88080"/><path d="m256 256a48 48 0 0 1 -48-48v-41.941a14.058 14.058 0 0 1 14.059-14.059 24 24 0 0 0 16.97-7.029 24 24 0 0 1 33.942 0 24 24 0 0 0 16.97 7.029 14.058 14.058 0 0 1 14.059 14.059v41.941a48 48 0 0 1 -48 48z" fill="#e5e5e5"/><path d="m240 160a63.972 63.972 0 0 1 2.567-17.937 24.08 24.08 0 0 0 -3.538 2.907 24 24 0 0 1 -16.97 7.03 14.058 14.058 0 0 0 -14.059 14.059v41.941a48 48 0 0 0 48 48 48.011 48.011 0 0 0 45.281-32.069 63.993 63.993 0 0 1 -61.281-63.931z" fill="#b7b7b7"/><path d="m224 208v-41.941a14.058 14.058 0 0 1 14.059-14.059 24 24 0 0 0 16.97-7.029 23.866 23.866 0 0 1 8.971-5.633 23.981 23.981 0 0 0 -24.971 5.632 24 24 0 0 1 -16.97 7.03 14.058 14.058 0 0 0 -14.059 14.059v41.941a48 48 0 0 0 48 48 48.267 48.267 0 0 0 8-.676 48 48 0 0 1 -40-47.324z" fill="#898989"/><path d="m256 184a16 16 0 0 1 16 16v96a0 0 0 0 1 0 0h-32a0 0 0 0 1 0 0v-96a16 16 0 0 1 16-16z" fill="#4abdcc"/><path d="m272 280a16 16 0 0 1 -16-16v-64a15.98 15.98 0 0 1 8-13.842 15.916 15.916 0 0 0 -9.288-2.107 16.3 16.3 0 0 0 -14.712 16.393v95.556h32z" fill="#3b9daf"/><path d="m88 152a32.007 32.007 0 0 1 -29.955-43.264 16.272 16.272 0 0 0 -6.945 1.714l-19.1 9.55v24.12a23.88 23.88 0 0 0 23.88 23.88h32.24a23.88 23.88 0 0 0 23.88-23.88v-2.965a31.916 31.916 0 0 1 -24 10.845z" fill="#3b9daf"/><circle cx="88" cy="144" fill="#fff" r="8"/><rect fill="#fff" height="32" rx="8" width="16" x="80" y="80"/><path d="m224 288h64v40h-64z" fill="#066991"/><path d="m288 448h-64a81.941 81.941 0 0 1 -24-57.941v-12.118a81.941 81.941 0 0 1 24-57.941h64a81.941 81.941 0 0 1 24 57.941v12.118a81.941 81.941 0 0 1 -24 57.941z" fill="#f9e48c"/><path d="m240 432a81.941 81.941 0 0 1 -24-57.941v-12.118a81.938 81.938 0 0 1 11.551-41.941h-3.551a81.941 81.941 0 0 0 -24 57.941v12.118a81.941 81.941 0 0 0 24 57.941h64a81.921 81.921 0 0 0 12.449-16z" fill="#f7b023"/><path d="m200 384v6.059a81.941 81.941 0 0 0 24 57.941h64a81.941 81.941 0 0 0 24-57.941v-6.059z" fill="#f7b023"/><path d="m200 384v6.059a81.941 81.941 0 0 0 24 57.941h64a81.921 81.921 0 0 0 12.449-16h-60.449a81.942 81.942 0 0 1 -23.4-48z" fill="#f99321"/><path d="m345.167 248h-49.994a56.287 56.287 0 0 0 13.227-20.286 77.927 77.927 0 0 0 35.4-59.714h.2a32 32 0 0 0 0-64v-10.528a77.559 77.559 0 0 0 -77.472-77.472h-21.056a77.56 77.56 0 0 0 -77.472 77.472v10.528a32 32 0 0 0 0 64h.2a77.93 77.93 0 0 0 35.4 59.714 56.287 56.287 0 0 0 13.227 20.286h-49.994a54.9 54.9 0 0 0 -54.833 54.833v65.167h-7.849a24.178 24.178 0 0 1 -24.151-24.151v-135.849h8v-16h-8v-16h8.12a31.916 31.916 0 0 0 31.88-31.88v-60.7a19.44 19.44 0 0 0 -19.418-19.42h-4.582v-8a24 24 0 0 0 -48 0v8h-4.582a19.44 19.44 0 0 0 -19.418 19.418v60.7a31.916 31.916 0 0 0 31.88 31.882h8.12v16h-8v16h8v135.849a40.2 40.2 0 0 0 40.151 40.151h7.849v112h16v-193.167a38.877 38.877 0 0 1 38.833-38.833h65.167v16h-8a8 8 0 0 0 -8 8v28.8a89.292 89.292 0 0 0 -24 61.138v12.118a89.356 89.356 0 0 0 26.343 63.6 8 8 0 0 0 5.657 2.344v8.6a23.431 23.431 0 0 0 23.4 23.4h17.2a23.431 23.431 0 0 0 23.4-23.4v-8.6a8 8 0 0 0 5.657-2.343 89.352 89.352 0 0 0 26.343-63.598v-12.118a89.292 89.292 0 0 0 -24-61.141v-28.8a8 8 0 0 0 -8-8h-8v-16h65.167a38.876 38.876 0 0 1 38.833 38.833v193.167h16v-193.167a54.9 54.9 0 0 0 -54.833-54.833zm-281.167-192a8 8 0 0 1 16 0v8h-16zm-20.582 24h57.164a3.421 3.421 0 0 1 3.418 3.418v23.638l-14.679 7.344a8.352 8.352 0 0 1 -10.665-2.833 24.371 24.371 0 0 0 -31.133-8.267l-7.523 3.756v-23.638a3.421 3.421 0 0 1 3.418-3.418zm-3.418 64.12v-19.176l14.679-7.339a8.349 8.349 0 0 1 10.665 2.833 24.356 24.356 0 0 0 31.133 8.267l7.523-3.761v19.176a15.9 15.9 0 0 1 -15.88 15.88h-32.24a15.9 15.9 0 0 1 -15.88-15.88zm320-8.12a16.019 16.019 0 0 1 -16 16v-32a16.019 16.019 0 0 1 16 16zm-93.472-104a61.564 61.564 0 0 1 60.693 51.733l-109.5-45.087a61.063 61.063 0 0 1 27.751-6.646zm-64.108 17.648 36.737 15.127-55.157 33.095v-4.4a61.28 61.28 0 0 1 18.42-43.822zm-50.42 86.352a16.019 16.019 0 0 1 16-16v32a16.019 16.019 0 0 1 -16-16zm48 30.059v37.788a61.743 61.743 0 0 1 -16-41.319v-46l73.6-44.161 70.4 28.99v61.171a61.743 61.743 0 0 1 -16 41.319v-37.788a22.084 22.084 0 0 0 -22.059-22.059 15.9 15.9 0 0 1 -11.313-4.686 32 32 0 0 0 -45.255 0 15.892 15.892 0 0 1 -11.314 4.686 22.084 22.084 0 0 0 -22.059 22.059zm16 0a6.066 6.066 0 0 1 6.059-6.059 31.789 31.789 0 0 0 22.628-9.373 16 16 0 0 1 22.627 0 31.79 31.79 0 0 0 22.627 9.373 6.066 6.066 0 0 1 6.059 6.059v41.941a40.091 40.091 0 0 1 -16 32v-40a24 24 0 0 0 -48 0v40a40.089 40.089 0 0 1 -16-32zm64 129.941v16h-48v-16zm-8 168.6a7.412 7.412 0 0 1 -7.4 7.4h-17.2a7.412 7.412 0 0 1 -7.4-7.4v-8.6h32zm32-74.537a73.408 73.408 0 0 1 -19.412 49.937h-57.176a73.359 73.359 0 0 1 -19.367-48h71.955v-16h-71.955a73.359 73.359 0 0 1 19.367-48h57.176a73.408 73.408 0 0 1 19.412 49.941zm-56-110.063v-80a8 8 0 0 1 16 0v80z"/><path d="m168 312h-16v176h16v-92.686l10.343 10.343 11.314-11.314-21.657-21.657z"/><path d="m344 365.333-22.4 29.867 12.8 9.6 9.6-12.8v96h16v-176h-16z"/><path d="m237.657 117.657 8-8-11.314-11.314-5.656 5.657h-20.687v16h24a8 8 0 0 0 5.657-2.343z"/><path d="m280 120h24v-16h-20.686l-5.657-5.657-11.314 11.314 8 8a8 8 0 0 0 5.657 2.343z"/></svg>