<svg id="filled_outline" height="512" viewBox="0 0 512 512" width="512" xmlns="http://www.w3.org/2000/svg" data-name="filled outline"><rect fill="#b7b7b7" height="336" rx="12.412" width="288" x="88" y="24"/><path d="m113.86 344a12.412 12.412 0 0 1 -12.412-12.412v-307.588h-1.036a12.412 12.412 0 0 0 -12.412 12.412v311.176a12.412 12.412 0 0 0 12.412 12.412h263.176a12.412 12.412 0 0 0 12.412-12.412v-3.588z" fill="#898989"/><path d="m120 56h224v272h-224z" fill="#77d5d8"/><path d="m121.226 63.968-1.226-7.968h224v272a331.437 331.437 0 0 1 -222.774-264.032z" fill="#afeaef"/><path d="m144 432h176v56h-176z" fill="#3b9daf"/><path d="m320 448v40h-104a40 40 0 0 1 -40-40z" fill="#4abdcc"/><path d="m216 344h32v80h-32z" fill="#f7b023"/><path d="m224 344h24v56h-24z" fill="#f9e48c"/><path d="m152 352h32v64h-32z" fill="#f7b023"/><path d="m160 352h24v48h-24z" fill="#f9e48c"/><path d="m280 352h32v64h-32z" fill="#f7b023"/><path d="m288 352h24v48h-24z" fill="#f9e48c"/><path d="m176 255.388a23.388 23.388 0 0 1 23.388-23.388h65.224a23.388 23.388 0 0 1 23.388 23.388v64.612h-112z" fill="#066991"/><path d="m264.612 232h-65.224a23.328 23.328 0 0 0 -17.661 8.065c.549-.038 1.1-.065 1.661-.065h65.224a23.388 23.388 0 0 1 23.388 23.388v56.612h16v-64.612a23.388 23.388 0 0 0 -23.388-23.388z" fill="#3b9daf"/><path d="m282.053 330.053a19.724 19.724 0 0 1 -3.695-22.769l17.642-35.284 17.642 35.284a19.724 19.724 0 0 1 -3.695 22.769 19.724 19.724 0 0 1 -27.894 0z" fill="#f7ce23"/><path d="m301.778 314.223a19.724 19.724 0 0 1 -3.695-22.769l3.822-7.644-5.905-11.81-17.642 35.284a19.72 19.72 0 1 0 36.967 12.7 19.642 19.642 0 0 1 -13.547-5.761z" fill="#f99321"/><path d="m136 408h192v32h-192z" fill="#e5e5e5"/><path d="m152 408h-16v32h192v-16h-160a16 16 0 0 1 -16-16z" fill="#b7b7b7"/><path d="m154.053 330.053a19.724 19.724 0 0 1 -3.695-22.769l17.642-35.284 17.642 35.284a19.724 19.724 0 0 1 -3.695 22.769 19.724 19.724 0 0 1 -27.894 0z" fill="#f7ce23"/><path d="m173.778 314.223a19.724 19.724 0 0 1 -3.695-22.769l3.822-7.644-5.905-11.81-17.642 35.284a19.72 19.72 0 1 0 36.967 12.7 19.642 19.642 0 0 1 -13.547-5.761z" fill="#f99321"/><path d="m218.053 314.053a19.724 19.724 0 0 1 -3.695-22.769l17.642-35.284 17.642 35.284a19.724 19.724 0 0 1 -3.695 22.769 19.724 19.724 0 0 1 -27.894 0z" fill="#f7ce23"/><path d="m237.778 298.223a19.724 19.724 0 0 1 -3.695-22.769l3.822-7.644-5.905-11.81-17.642 35.284a19.724 19.724 0 0 0 3.695 22.769 19.724 19.724 0 0 0 27.894 0 19.681 19.681 0 0 0 5.378-10.072 19.642 19.642 0 0 1 -13.547-5.758z" fill="#f99321"/><path d="m344 48h-224v8h224v272h8v-280z" fill="#898989"/><path d="m240 24 136 136v-48l-88-88z" fill="#e5e5e5"/><path d="m415.011 120h8.989a0 0 0 0 1 0 0v8.989a39.011 39.011 0 0 1 -39.011 39.011h-8.989a0 0 0 0 1 0 0v-8.989a39.011 39.011 0 0 1 39.011-39.011z" fill="#1dbf5e" transform="matrix(0 1 -1 0 544 -256)"/><path d="m415.011 32h8.989a0 0 0 0 1 0 0v8.989a39.011 39.011 0 0 1 -39.011 39.011h-8.989a0 0 0 0 1 0 0v-8.989a39.011 39.011 0 0 1 39.011-39.011z" fill="#1dbf5e"/><path d="m385.879 113.759a11.915 11.915 0 0 0 -5.24 12.647v.014a11.917 11.917 0 0 1 -14.222 14.222h-.014a11.919 11.919 0 0 0 -12.647 5.24 11.917 11.917 0 0 1 -20.115 0 11.915 11.915 0 0 0 -12.641-5.243h-.014a11.917 11.917 0 0 1 -14.222-14.222v-.014a11.915 11.915 0 0 0 -5.24-12.647 11.918 11.918 0 0 1 0-20.115 11.916 11.916 0 0 0 5.24-12.641v-.014a11.918 11.918 0 0 1 14.222-14.222h.014a11.915 11.915 0 0 0 12.647-5.24 11.918 11.918 0 0 1 20.115 0 11.916 11.916 0 0 0 12.647 5.239h.014a11.918 11.918 0 0 1 14.222 14.222v.014a11.919 11.919 0 0 0 5.24 12.647 11.917 11.917 0 0 1 -.006 20.113z" fill="#f9e48c"/><circle cx="343.702" cy="103.702" fill="#f7ce23" r="16"/><rect fill="#f4c7c6" height="112" rx="40" width="80" x="192" y="104"/><path d="m208 176v-32a40.011 40.011 0 0 1 32-39.2 40.161 40.161 0 0 0 -8-.8 40 40 0 0 0 -40 40v32a40 40 0 0 0 40 40 40.161 40.161 0 0 0 8-.8 40.011 40.011 0 0 1 -32-39.2z" fill="#faa6a6"/><path d="m232 104a40 40 0 0 0 -40 40v16h16a24 24 0 0 0 24-24l12.686 12.686a38.628 38.628 0 0 0 27.314 11.314v-16a40 40 0 0 0 -40-40z" fill="#f7ce23"/><path d="m268 144a35.968 35.968 0 0 1 -35.774-39.994c-.076 0-.15-.006-.226-.006a40 40 0 0 0 -40 40v16h16a24 24 0 0 0 24-24l12.686 12.686a38.628 38.628 0 0 0 27.314 11.314v-16c0-.076 0-.15-.006-.226a36.322 36.322 0 0 1 -3.994.226z" fill="#f7b023"/><path d="m144 496h176a8 8 0 0 0 8-8v-40a8 8 0 0 0 8-8v-32a8 8 0 0 0 -8-8h-8v-40a8 8 0 0 0 -8-8h-32a8 8 0 0 0 -8 8v40h-16v-56a8 8 0 0 0 -8-8h-32a8 8 0 0 0 -8 8v56h-16v-40a8 8 0 0 0 -8-8h-32a8 8 0 0 0 -8 8v40h-8a8 8 0 0 0 -8 8v32a8 8 0 0 0 8 8v40a8 8 0 0 0 8 8zm144-128h16v32h-16zm-64-16h16v48h-16zm-64 16h16v32h-16zm-16 48h176v16h-176zm168 32v32h-160v-32z"/><path d="m160.845 268.422-17.645 35.285a27.724 27.724 0 1 0 49.594 0l-17.642-35.285a8 8 0 0 0 -14.31 0zm17.642 42.44a11.725 11.725 0 1 1 -20.974 0l10.487-20.973z"/><path d="m232 248a8 8 0 0 0 -7.155 4.422l-17.645 35.285a27.724 27.724 0 1 0 49.594 0l-17.642-35.285a8 8 0 0 0 -7.152-4.422zm8.291 60.4a11.725 11.725 0 0 1 -18.778-13.534l10.487-20.977 10.487 20.973a11.711 11.711 0 0 1 -2.196 13.538z"/><path d="m280 176v-32a48 48 0 0 0 -96 0v32a48 48 0 0 0 96 0zm-48-64a32.036 32.036 0 0 1 32 32v6.942a30.445 30.445 0 0 1 -13.657-7.912l-12.686-12.687a8 8 0 0 0 -13.657 5.657 16.019 16.019 0 0 1 -16 16h-8v-8a32.036 32.036 0 0 1 32-32zm0 96a32.036 32.036 0 0 1 -32-32v-8h8a32.028 32.028 0 0 0 28.06-16.627l2.97 2.97a46.272 46.272 0 0 0 24.97 12.963v8.694a32.036 32.036 0 0 1 -32 32z"/><path d="m168 255.388h16a15.405 15.405 0 0 1 15.388-15.388h65.224a15.405 15.405 0 0 1 15.388 15.388v30.724l-8.8 17.595a27.724 27.724 0 1 0 49.594 0l-17.642-35.285a8 8 0 0 0 -7.152-4.422v-8.612a31.423 31.423 0 0 0 -31.388-31.388h-65.224a31.424 31.424 0 0 0 -31.388 31.388zm138.487 55.474a11.725 11.725 0 1 1 -20.974 0l10.487-20.973z"/><path d="m367.7 103.7a24 24 0 1 0 -24 24 24.027 24.027 0 0 0 24-24zm-32 0a8 8 0 1 1 8 8 8.009 8.009 0 0 1 -8-8z"/><path d="m432 40.989v-8.989a8 8 0 0 0 -8-8h-8.989a46.874 46.874 0 0 0 -31.046 11.723 20.42 20.42 0 0 0 -20.377-19.723h-263.176a20.435 20.435 0 0 0 -20.412 20.412v311.176a20.435 20.435 0 0 0 20.412 20.412h27.588v-16h-27.588a4.417 4.417 0 0 1 -4.412-4.412v-311.176a4.417 4.417 0 0 1 4.412-4.412h136.275l16 16h-132.687a8 8 0 0 0 -8 8v272h16v-264h140.687l25.384 25.385a19.916 19.916 0 0 0 3.163 31.126 3.931 3.931 0 0 1 1.718 4.171 19.918 19.918 0 0 0 23.769 23.769l.042-.01a3.927 3.927 0 0 1 4.13 1.729 19.832 19.832 0 0 0 9.107 7.688v170.142h16v-170.4a19.764 19.764 0 0 0 6.019-4.268l9.981 9.981v184.275a4.417 4.417 0 0 1 -4.412 4.412h-27.578v16h27.578a20.435 20.435 0 0 0 20.412-20.412v-183.188a46.91 46.91 0 0 0 31.011 11.6h8.989a8 8 0 0 0 8-8v-8.989a47.094 47.094 0 0 0 -35.172-45.5 19.935 19.935 0 0 0 -5.649-25.932 47.074 47.074 0 0 0 40.821-46.59zm-64-4.577v22.1a20.176 20.176 0 0 0 -3.318.445l-.042.01a3.932 3.932 0 0 1 -4.129-1.729 19.917 19.917 0 0 0 -31.126-3.162l-22.071-22.076h56.274a4.417 4.417 0 0 1 4.412 4.412zm-83.313-4.412 27.472 27.473a19.956 19.956 0 0 0 -12.685 12.687l-40.16-40.16zm38.872 100.357a19.751 19.751 0 0 0 -4.3.473l-.044.01a3.918 3.918 0 0 1 -4.642-4.695 19.972 19.972 0 0 0 -8.757-21.137 3.917 3.917 0 0 1 0-6.612 19.976 19.976 0 0 0 8.758-21.136l-.01-.044a3.918 3.918 0 0 1 4.695-4.643 19.973 19.973 0 0 0 21.141-8.757 3.918 3.918 0 0 1 6.612 0 19.973 19.973 0 0 0 21.136 8.759l.043-.01a3.918 3.918 0 0 1 4.655 4.642l-.012.053a19.973 19.973 0 0 0 8.758 21.137 3.918 3.918 0 0 1 0 6.612 19.973 19.973 0 0 0 -8.757 21.136l.009.044a3.918 3.918 0 0 1 -4.641 4.654l-.053-.012a19.977 19.977 0 0 0 -21.137 8.757 3.812 3.812 0 0 1 -3.313 1.812 3.811 3.811 0 0 1 -3.306-1.816 19.987 19.987 0 0 0 -16.835-9.227zm92.441 26.654v.989h-.989a30.848 30.848 0 0 1 -29.147-20.385 19.749 19.749 0 0 0 3.048-11.358 31.051 31.051 0 0 1 27.088 30.754zm0-118.022a31.05 31.05 0 0 1 -28.166 30.875 19.858 19.858 0 0 0 -3.394-6.052 31.014 31.014 0 0 1 30.571-25.812h.989z"/></svg>