<svg id="filled_outline" height="512" viewBox="0 0 512 512" width="512" xmlns="http://www.w3.org/2000/svg" data-name="filled outline"><path d="m344 488h-176l-40-336 56-128h144l56 128z" fill="#066991"/><path d="m352 152-40-96h-112l-40 96 32 304h127.935z" fill="#3b9daf"/><path d="m352 152-40-96h-55.996v400h63.931z" fill="#4abdcc"/><path d="m352 152-40-96h-55.996v96z" fill="#77d5d8"/><path d="m304 120h-32v-32h-32v32h-32v32h32v64h32v-64h32z" fill="#f7ce23"/><path d="m352.571 416h-193.141l-12.382-104h217.904z" fill="#f7b023"/><path d="m256 416h-96.57l-12.382-104h108.952z" fill="#f99321"/><path d="m271.241 380.722-8.209 6.218a12.149 12.149 0 0 0 -4.72 8.176l-1.281 10.235a12.149 12.149 0 0 1 -16.774 9.686l-9.51-4.009a12.142 12.142 0 0 0 -9.439 0l-9.509 4.009a12.149 12.149 0 0 1 -16.775-9.686l-1.281-10.235a12.152 12.152 0 0 0 -4.72-8.176l-8.209-6.218a12.148 12.148 0 0 1 0-19.369l8.209-6.218a12.152 12.152 0 0 0 4.72-8.176l1.281-10.235a12.149 12.149 0 0 1 16.774-9.686l9.51 4.009a12.142 12.142 0 0 0 9.439 0l9.509-4.009a12.149 12.149 0 0 1 16.775 9.685l1.281 10.236a12.152 12.152 0 0 0 4.72 8.176l8.209 6.218a12.148 12.148 0 0 1 0 19.369z" fill="#77d5d8"/><circle cx="226.028" cy="371.037" fill="#f9e48c" r="16"/><path d="m375.241 342.647-8.209 6.218a12.152 12.152 0 0 0 -4.72 8.176l-1.281 10.235a12.149 12.149 0 0 1 -16.774 9.686l-9.51-4.009a12.142 12.142 0 0 0 -9.439 0l-9.509 4.009a12.149 12.149 0 0 1 -16.775-9.685l-1.281-10.236a12.152 12.152 0 0 0 -4.72-8.176l-8.209-6.218a12.148 12.148 0 0 1 0-19.369l8.209-6.218a12.149 12.149 0 0 0 4.72-8.176l1.281-10.235a12.149 12.149 0 0 1 16.774-9.686l9.51 4.009a12.142 12.142 0 0 0 9.439 0l9.509-4.009a12.149 12.149 0 0 1 16.775 9.686l1.281 10.235a12.152 12.152 0 0 0 4.72 8.176l8.209 6.218a12.148 12.148 0 0 1 0 19.369z" fill="#afeaef"/><circle cx="330.028" cy="332.963" fill="#f9e48c" r="16"/><g fill="#1dbf5e"><path d="m280 400h13.1a50.9 50.9 0 0 1 50.9 50.9v13.1a0 0 0 0 1 0 0h-13.1a50.9 50.9 0 0 1 -50.9-50.9v-13.1a0 0 0 0 1 0 0z"/><path d="m120 408h6.018a41.982 41.982 0 0 1 41.982 41.982v6.018a0 0 0 0 1 0 0h-6.018a41.982 41.982 0 0 1 -41.982-41.982v-6.018a0 0 0 0 1 0 0z" transform="matrix(0 -1 1 0 -288 576)"/><path d="m232 256h6.018a41.982 41.982 0 0 1 41.982 41.982v6.018a0 0 0 0 1 0 0h-6.018a41.982 41.982 0 0 1 -41.982-41.982v-6.018a0 0 0 0 1 0 0z" transform="matrix(-1 0 0 -1 512 560)"/><path d="m360 392h6.018a41.982 41.982 0 0 1 41.982 41.982v6.018a0 0 0 0 1 0 0h-6.018a41.982 41.982 0 0 1 -41.982-41.982v-6.018a0 0 0 0 1 0 0z" transform="matrix(-1 0 0 -1 768 832)"/></g><path d="m304 112h-24v-24a8 8 0 0 0 -8-8h-32a8 8 0 0 0 -8 8v24h-24a8 8 0 0 0 -8 8v32a8 8 0 0 0 8 8h24v56a8 8 0 0 0 8 8h32a8 8 0 0 0 8-8v-56h24a8 8 0 0 0 8-8v-32a8 8 0 0 0 -8-8zm-8 32h-24a8 8 0 0 0 -8 8v56h-16v-56a8 8 0 0 0 -8-8h-24v-16h24a8 8 0 0 0 8-8v-24h16v24a8 8 0 0 0 8 8h24z"/><path d="m226.027 347.038a24 24 0 1 0 24 24 24.027 24.027 0 0 0 -24-24zm0 32a8 8 0 1 1 8-8 8.009 8.009 0 0 1 -8 8z"/><path d="m330.027 308.962a24 24 0 1 0 24 24 24.028 24.028 0 0 0 -24-24zm0 32a8 8 0 1 1 8-8 8.009 8.009 0 0 1 -8 8z"/><path d="m120 464h6.019a49.721 49.721 0 0 0 29.883-9.941l4.154 34.887a8 8 0 0 0 7.944 7.054h176a8 8 0 0 0 7.944-7.054l7.673-64.452a49.984 49.984 0 0 0 42.365 23.506h6.018a8 8 0 0 0 8-8v-6.019a50.038 50.038 0 0 0 -49.981-49.981h-1.581l.741-6.23a20.068 20.068 0 0 0 3.791-9.5l1.281-10.237a4.174 4.174 0 0 1 1.611-2.791l8.209-6.218a20.148 20.148 0 0 0 0-32.123l-7.012-5.312 18.885-158.643a8 8 0 0 0 -.615-4.153l-56-128a8 8 0 0 0 -7.329-4.793h-144a8 8 0 0 0 -7.329 4.793l-56 128a8.005 8.005 0 0 0 -.615 4.153l29.6 248.6a50.07 50.07 0 0 0 -37.656 48.435v6.019a8 8 0 0 0 8 8zm279.94-32.061a34.027 34.027 0 0 1 -31.879-31.878 34.028 34.028 0 0 1 31.879 31.878zm-73.334-147.1-7.7-3.247a20.15 20.15 0 0 0 -27.821 16.065l-.793 6.343h-2.292v-6.019a50.038 50.038 0 0 0 -49.981-49.981h-6.019a8 8 0 0 0 -8 8v6.019a49.972 49.972 0 0 0 22.909 41.981h-59.016l-19.682-150.9 37.122-89.1h101.334l37.122 89.1zm-46.622 64.186 8.209 6.218a4.177 4.177 0 0 1 1.612 2.792l1.281 10.236a20.2 20.2 0 0 0 19.972 17.665 20.2 20.2 0 0 0 7.849-1.6l9.509-4.009a4.181 4.181 0 0 1 3.224 0l9.509 4.009a20.217 20.217 0 0 0 6.948 1.577l-2.63 22.087h-12.067a58.672 58.672 0 0 0 -40.3-16h-13.1a8 8 0 0 0 -8 8v8h-7.314c.114-.545.214-1.1.284-1.655l1.281-10.237a4.174 4.174 0 0 1 1.611-2.791l8.209-6.218a20.148 20.148 0 0 0 0-32.123l-8.209-6.219a4.17 4.17 0 0 1 -1.611-2.791l-1.281-10.236a19.993 19.993 0 0 0 -9.918-14.947c-.5-.286-1-.542-1.514-.783h23.178a20.158 20.158 0 0 0 3.268 29.024zm8.016 64.075v-5.1h5.1a42.949 42.949 0 0 1 42.9 42.9v5.1h-5.1a42.949 42.949 0 0 1 -42.9-42.9zm-42.928-5.1a4.119 4.119 0 0 1 -1.707-.334l-9.509-4.01a20.261 20.261 0 0 0 -15.657 0l-9.508 4.01a4.115 4.115 0 0 1 -1.706.334h-.017a4.207 4.207 0 0 1 -1.963-.564 4.076 4.076 0 0 1 -2.042-3.078l-1.282-10.237a20.272 20.272 0 0 0 -7.827-13.559l-8.21-6.218a4.148 4.148 0 0 1 0-6.614l8.211-6.218a20.275 20.275 0 0 0 7.827-13.56l1.28-10.235a4.073 4.073 0 0 1 2.038-3.077 4.182 4.182 0 0 1 2.071-.567 4.12 4.12 0 0 1 1.616.337l9.508 4.009a20.263 20.263 0 0 0 15.656 0l9.51-4.009a4.149 4.149 0 0 1 5.728 3.307l1.281 10.235a20.261 20.261 0 0 0 7.828 13.56l8.209 6.218a4.148 4.148 0 0 1 0 6.614l-8.209 6.217a20.268 20.268 0 0 0 -7.828 13.56l-1.281 10.235a4.074 4.074 0 0 1 -2.042 3.078 4.179 4.179 0 0 1 -1.964.565zm-29.372-88h20.661l-8.72 3.676a4.174 4.174 0 0 1 -3.223 0zm24.363-55.939a34.028 34.028 0 0 1 31.879 31.878 34.027 34.027 0 0 1 -31.881-31.878zm-41.546 55.939c-.511.241-1.018.5-1.514.784a19.989 19.989 0 0 0 -9.918 14.947l-1.279 10.234a4.178 4.178 0 0 1 -1.613 2.792l-8.209 6.219a20.148 20.148 0 0 0 0 32.123l8.209 6.218a4.173 4.173 0 0 1 1.612 2.792l1.281 10.236c.07.56.17 1.11.284 1.655h-11.37a8 8 0 0 0 -8-8h-2.419l-9.524-80zm-23.412 160-5.045-42.374a49.609 49.609 0 0 0 4.94-13.626h98.031a58.622 58.622 0 0 0 10.462 24h-91.493v16h109.319a58.519 58.519 0 0 0 29.582 8h6.947l-.952 8zm195.306-143.73-8.209 6.218a20.261 20.261 0 0 0 -7.828 13.559l-1.281 10.236a4.149 4.149 0 0 1 -5.729 3.307l-9.508-4.009a20.257 20.257 0 0 0 -15.657 0l-9.508 4.009a4.148 4.148 0 0 1 -5.728-3.307l-1.282-10.237a20.268 20.268 0 0 0 -7.827-13.558l-8.21-6.218a4.148 4.148 0 0 1 0-6.614l8.211-6.219a20.275 20.275 0 0 0 7.827-13.56l1.28-10.234a4.074 4.074 0 0 1 2.038-3.078 4.061 4.061 0 0 1 3.687-.231l9.508 4.01a20.265 20.265 0 0 0 15.657 0l9.509-4.01a4.148 4.148 0 0 1 5.728 3.308l1.281 10.234a20.263 20.263 0 0 0 7.828 13.561l8.209 6.219a4.148 4.148 0 0 1 0 6.614zm-181.178-304.27h133.535l53.032 121.214-15.51 130.276c-.4-.272-.813-.536-1.239-.782a19.965 19.965 0 0 0 -15.788-1.873l16.67-127.8a8.012 8.012 0 0 0 -.548-4.112l-40-96a8 8 0 0 0 -7.385-4.923h-112a8 8 0 0 0 -7.385 4.923l-40 96a8 8 0 0 0 -.547 4.112l19.69 150.965h-17.606l-17.952-150.786zm-29.293 384.061a34.028 34.028 0 0 1 -31.879 31.878 34.027 34.027 0 0 1 31.879-31.878z"/></svg>