<svg id="filled_outline" height="512" viewBox="0 0 512 512" width="512" xmlns="http://www.w3.org/2000/svg" data-name="filled outline"><path d="m256 16a8 8 0 0 1 8 8v144a0 0 0 0 1 0 0h-16a0 0 0 0 1 0 0v-144a8 8 0 0 1 8-8z" fill="#b7b7b7"/><path d="m40 328h136v136h-136z" fill="#4abdcc"/><path d="m40 328v24h104.283a15.717 15.717 0 0 1 15.717 15.717v96.283h16v-136z" fill="#3b9daf"/><path d="m336 320h136v144h-136z" fill="#4abdcc"/><path d="m383.055 352h88.945v-32h-136v144h32v-96.945a15.055 15.055 0 0 1 15.055-15.055z" fill="#3b9daf"/><path d="m168.002 168h176v320h-176z" fill="#4abdcc"/><path d="m344 168v320h-16v-220.5a67.5 67.5 0 0 0 -67.5-67.5h-92.5v-32z" fill="#3b9daf"/><path d="m312 256h-32v-32h-32v32h-32v32h32v32h32v-32h32z" fill="#3b9daf"/><path d="m304 248h-32v-32h-32v32h-32v32h32v32h32v-32h32z" fill="#f44a2a"/><path d="m304 184h-160v-32h224v32h-48" fill="#e5e5e5"/><path d="m304 184h-160v-16h224v16h-48" fill="#b7b7b7"/><path d="m168 336h-144v-32l144-24z" fill="#e5e5e5"/><path d="m160 281.333v13.717a24.949 24.949 0 0 1 -24.95 24.95h-111.05v16h144v-56z" fill="#b7b7b7"/><path d="m488 336h-144v-56l144 24z" fill="#e5e5e5"/><path d="m360 291.7v-9.031l-16-2.669v56h144v-16h-99.7a28.3 28.3 0 0 1 -28.3-28.3z" fill="#b7b7b7"/><path d="m208 400h112v32h-112z" fill="#3b9daf"/><path d="m224 416h64v72h-64z" fill="#77d5d8"/><path d="m256 416h32v72h-32z" fill="#afeaef"/><path d="m200 392h112v32h-112z" fill="#e5e5e5"/><path d="m312 424h-112v-16h85.954a10.046 10.046 0 0 0 10.046-10.046v-5.954h16z" fill="#b7b7b7"/><path d="m72 368h64v32h-64z" fill="#77d5d8"/><path d="m104 368h32v32h-32z" fill="#afeaef"/><path d="m376 368h64v32h-64z" fill="#77d5d8"/><path d="m408 368h32v32h-32z" fill="#afeaef"/><path d="m136 120a99.259 99.259 0 0 1 81.2-74.031l38.8-5.969 38.8 5.969a99.259 99.259 0 0 1 81.2 74.031l-9.772-4.886a49.706 49.706 0 0 0 -44.456 0l-9.772 4.886a49.7 49.7 0 0 0 -49.8-3.1l-6.2 3.1-6.2-3.1a49.7 49.7 0 0 0 -49.8 3.1l-9.772-4.886a49.706 49.706 0 0 0 -44.456 0z" fill="#f9e48c"/><path d="m256 40 38.8 5.969a99.259 99.259 0 0 1 81.2 74.031l-9.772-4.886a49.706 49.706 0 0 0 -44.456 0l-9.772 4.886a49.7 49.7 0 0 0 -49.8-3.1l-6.2 3.1z" fill="#f99321"/><path d="m260.528 41.941-4.528-1.941-4.528 1.941a84.925 84.925 0 0 0 -51.472 78.059 49.7 49.7 0 0 1 49.8-3.1l6.2 3.1 6.2-3.1a49.7 49.7 0 0 1 49.8 3.1 84.925 84.925 0 0 0 -51.472-78.059z" fill="#f7b023"/><path d="m260.528 41.941-4.528-1.941v80l6.2-3.1a49.7 49.7 0 0 1 49.8 3.1 84.925 84.925 0 0 0 -51.472-78.059z" fill="#f7ce23"/><path d="m304 240h-24v-24a8 8 0 0 0 -8-8h-32a8 8 0 0 0 -8 8v24h-24a8 8 0 0 0 -8 8v32a8 8 0 0 0 8 8h24v24a8 8 0 0 0 8 8h32a8 8 0 0 0 8-8v-24h24a8 8 0 0 0 8-8v-32a8 8 0 0 0 -8-8zm-8 32h-24a8 8 0 0 0 -8 8v24h-16v-24a8 8 0 0 0 -8-8h-24v-16h24a8 8 0 0 0 8-8v-24h16v24a8 8 0 0 0 8 8h24z"/><path d="m489.316 296.109-137.316-22.886v-81.223h16a8 8 0 0 0 8-8v-32a8 8 0 0 0 -8-8h-104v-19.056l1.779-.889a41.8 41.8 0 0 1 41.784 2.6 8 8 0 0 0 8.015.5l9.772-4.885a41.9 41.9 0 0 1 37.3 0l9.771 4.885a8 8 0 0 0 11.339-9.095 107.019 107.019 0 0 0 -87.746-80l-32.014-4.924v-17.136h-16v17.136l-32.015 4.926a107.02 107.02 0 0 0 -87.746 80 8 8 0 0 0 11.339 9.095l9.772-4.885a41.9 41.9 0 0 1 37.3 0l9.771 4.885a8 8 0 0 0 8.016-.5 41.793 41.793 0 0 1 41.783-2.6l1.779.889v19.054h-103.999a8 8 0 0 0 -8 8v32a8 8 0 0 0 8 8h16v81.223l-137.315 22.886a8 8 0 0 0 -6.685 7.891v32a8 8 0 0 0 8 8h8v120a8 8 0 0 0 8 8h120v16a8 8 0 0 0 8 8h176a8 8 0 0 0 8-8v-16h120a8 8 0 0 0 8-8v-120h8a8 8 0 0 0 8-8v-32a8 8 0 0 0 -6.684-7.891zm-225.316-188.691v-54.891a76.8 76.8 0 0 1 38.834 54.153 57.885 57.885 0 0 0 -38.834.738zm98.092-2.633a58.042 58.042 0 0 0 -42.944 2.726 92.788 92.788 0 0 0 -26.988-53.854l1.421.218a91.038 91.038 0 0 1 68.511 50.91zm-212.184 0a91.036 91.036 0 0 1 68.511-50.909l1.421-.219a92.791 92.791 0 0 0 -26.988 53.854 58.042 58.042 0 0 0 -42.944-2.726zm77.685-1.114a57.938 57.938 0 0 0 -18.429 3.023 76.8 76.8 0 0 1 38.836-54.167v54.885a57.705 57.705 0 0 0 -20.407-3.741zm-195.593 207.106 128-21.333v38.556h-128zm16 145.223v-112h112v112zm232-24v48h-16v-48zm-72-16v-16h96v16zm40 16v48h-16v-48zm48 48v-48h16a8 8 0 0 0 8-8v-32a8 8 0 0 0 -8-8h-112a8 8 0 0 0 -8 8v32a8 8 0 0 0 8 8h16v48h-40v-288h128v-16h-152v-16h208v16h-40v16h16v87.952 56.048 144zm168-24h-112v-112h112zm16-128h-128v-38.556l128 21.333z"/><path d="m136 360h-64a8 8 0 0 0 -8 8v32a8 8 0 0 0 8 8h64a8 8 0 0 0 8-8v-32a8 8 0 0 0 -8-8zm-40 32h-16v-16h16zm32 0h-16v-16h16z"/><path d="m376 408h64a8 8 0 0 0 8-8v-32a8 8 0 0 0 -8-8h-64a8 8 0 0 0 -8 8v32a8 8 0 0 0 8 8zm56-16h-16v-16h16zm-48-16h16v16h-16z"/></svg>