<svg id="filled_outline" height="512" viewBox="0 0 512 512" width="512" xmlns="http://www.w3.org/2000/svg" data-name="filled outline"><path d="m488 224h-32l-40 40-.919-1.05a184.334 184.334 0 0 0 -138.727-62.95 184.326 184.326 0 0 0 -84.947 20.739v.007l8.593-68.746 32-48 24 40h56v-32h32l8-88-144 8-184 232v88l112 48 232 16 48-16 72 80z" fill="#faa6a6"/><path d="m400 312h-32v-32h-32v32h-32v32h32v32h32v-32h32z" fill="#e88080"/><path d="m280 384a65.223 65.223 0 0 1 -56-64.568v-55.432l56-8 56 8v55.432a65.223 65.223 0 0 1 -56 64.568z" fill="#e88080"/><path d="m264 368a65.223 65.223 0 0 1 -56-64.568v-55.432l56-8 56 8v55.432a65.223 65.223 0 0 1 -56 64.568z" fill="#afeaef"/><path d="m384 304h-32v-32h-32v32h-32v32h32v32h32v-32h32z" fill="#1dbf5e"/><path d="m208 248v55.432a65.223 65.223 0 0 0 56 64.568v-128z" fill="#77d5d8"/><path d="m200 152 32-48 24 40h56v-16h-16a8 8 0 0 1 -8-8 8 8 0 0 1 8-8h48l1.455-16h-49.455a8 8 0 0 1 -8-8 8 8 0 0 1 8-8h16a8 8 0 0 0 8-8 8 8 0 0 0 -8-8h-33.374a19.308 19.308 0 0 1 -13.655-5.657 19.312 19.312 0 0 0 -13.656-5.656h-1.06a19.309 19.309 0 0 0 -16.384 9.089l-54.347 87.109a19.309 19.309 0 0 0 -2.435 5.888l-17.348 75.332a4.464 4.464 0 0 0 6.553 4.884l25.113-14.25z" fill="#e88080"/><path d="m415.352 373.549-21.352 7.119a53.244 53.244 0 0 1 -20.5 2.607l-212.488-14.654a53.254 53.254 0 0 1 -17.315-4.179l-71.42-30.609a53.256 53.256 0 0 1 -32.277-48.95v-41.057l-16 20.174v88l112 48 232 16 48-16 72 80v-49.778l-44.261-49.178a26.792 26.792 0 0 0 -28.387-7.495z" fill="#e88080"/><path d="m320 376h32a8 8 0 0 0 8-8v-24h24a8 8 0 0 0 8-8v-32a8 8 0 0 0 -8-8h-24v-24a8 8 0 0 0 -8-8h-32a8 8 0 0 0 -8 8v24h-24a8 8 0 0 0 -8 8v32a8 8 0 0 0 8 8h7.156a56.6 56.6 0 0 1 -23.156 13.994v-108.77l46.868 6.7 2.264-15.838-56-8a7.951 7.951 0 0 0 -2.264 0l-56 8a8 8 0 0 0 -6.868 7.914v55.432a73.222 73.222 0 0 0 62.868 72.487 7.944 7.944 0 0 0 2.263 0 72.685 72.685 0 0 0 46.869-26.785v18.866a8 8 0 0 0 8 8zm-104-72.568v-48.494l40-5.714v108.76a57.563 57.563 0 0 1 -40-54.552zm80 8.568h24a8 8 0 0 0 8-8v-24h16v24a8 8 0 0 0 8 8h24v16h-24a8 8 0 0 0 -8 8v24h-16v-24a8 8 0 0 0 -8-8h-24z"/><path d="m450.343 218.343-34.043 34.048a192.334 192.334 0 0 0 -213.545-45.75c-.538.223-1.069.46-1.6.687l6.557-52.462 23.941-35.91 17.495 29.16a8 8 0 0 0 6.852 3.884h56a8 8 0 0 0 8-8v-24h24a8 8 0 0 0 7.967-7.276l8-88a8 8 0 0 0 -8.41-8.712l-144 8a8 8 0 0 0 -5.824 3.017l-184 232a7.992 7.992 0 0 0 -1.733 4.971v88a8 8 0 0 0 4.849 7.353l112 48a8 8 0 0 0 2.6.628l232 16a7.994 7.994 0 0 0 3.081-.392l43.029-14.342 68.495 76.1 11.892-10.7-72-80a8 8 0 0 0 -8.476-2.237l-46.5 15.5-229.07-15.798-105.9-45.387v-79.938l180.034-227 131.16-7.287-6.5 71.5h-40.694v-16h24v-16h-52.686l-13.657-13.657-11.314 11.314 16 16a8 8 0 0 0 5.657 2.343h16v24a8 8 0 0 0 8 8h16v16h-43.471l-21.669-36.116a8 8 0 0 0 -13.516-.322l-32 48a7.989 7.989 0 0 0 -1.282 3.446l-8.078 64.627a191.374 191.374 0 0 0 -43.631 32.7l-18.01 18.009 11.314 11.314 18.01-18.01a176.336 176.336 0 0 1 257.394 8.571l.919 1.05a8 8 0 0 0 11.677.389l37.657-37.658h36.686v-16h-40a8 8 0 0 0 -5.657 2.343z"/></svg>