<svg id="filled_outline" height="512" viewBox="0 0 512 512" width="512" xmlns="http://www.w3.org/2000/svg" data-name="filled outline"><path d="m116.584 48.925a85.094 85.094 0 0 1 110.222-8.648l29.194 21.232 29.194-21.232a85.094 85.094 0 0 1 110.222 8.648 85.1 85.1 0 0 1 14.913 100.217 239.7 239.7 0 0 1 -98.7 98.7l-55.629 29.667-55.633-29.671a239.7 239.7 0 0 1 -98.7-98.7 85.1 85.1 0 0 1 14.917-100.213z" fill="#f44a2a"/><path d="m395.416 48.925a85.108 85.108 0 0 0 -86.8-20.657 128.042 128.042 0 0 1 -154.775 187.15 239.66 239.66 0 0 0 46.522 32.42l55.637 29.671 55.633-29.671a239.7 239.7 0 0 0 98.7-98.7 85.1 85.1 0 0 0 -14.917-100.213z" fill="#ce3521"/><path d="m395.416 48.925a85 85 0 0 0 -66.388-24.685 84.878 84.878 0 0 1 54.046 24.685 85.1 85.1 0 0 1 14.913 100.217 239.692 239.692 0 0 1 -98.695 98.7l-49.462 26.379 6.17 3.288 55.633-29.671a239.7 239.7 0 0 0 98.7-98.7 85.1 85.1 0 0 0 -14.917-100.213z" fill="#a52016"/><path d="m264 384 58.829-58.829a18.627 18.627 0 0 1 26.342 0l18.829 18.829-72 72z" fill="#e88080"/><path d="m56 392 40-40v-40l48-48h56l48 48a22.627 22.627 0 0 1 0 32 22.627 22.627 0 0 1 -32 0l32 32h72l48-48a22.627 22.627 0 0 1 32 0 22.627 22.627 0 0 1 0 32l-64 64h-184l-32 32z" fill="#faa6a6"/><path d="m400 328a22.482 22.482 0 0 0 -8.674-5.386 22.591 22.591 0 0 1 -5.953 21.386l-55.48 55.479a29.088 29.088 0 0 1 -20.57 8.521h-169.733a8.666 8.666 0 0 0 -6.129 2.539 30.351 30.351 0 0 1 -42.922 0l-26.539-26.539-8 8 64 64 32-32h184l64-64a22.627 22.627 0 0 0 0-32z" fill="#e88080"/><path d="m233.373 328a22.627 22.627 0 0 1 -32 0l19.943 19.943a22.63 22.63 0 0 0 26.684-3.943 22.627 22.627 0 0 0 0-32l-10.684-10.684a22.63 22.63 0 0 1 -3.943 26.684z" fill="#e88080"/><path d="m57.373 375.431h45.255v113.137h-45.255z" fill="#f7ce23" transform="matrix(.707 -.707 .707 .707 -282.039 183.098)"/><path d="m86.805 446.805-50.805-50.805-12 12 80 80 32-32-12-12-2.805 2.805a24.317 24.317 0 0 1 -34.39 0z" fill="#f7b023"/><path d="m288 216a8 8 0 0 1 -7.822-6.324l-18.106-84.492-30.538 85.506a8 8 0 0 1 -15.2-.391l-16.734-55.799-8.01 24.028a8 8 0 0 1 -7.59 5.472h-112v-16h106.234l14.177-42.53a8 8 0 0 1 15.252.231l17 56.662 31.803-89.053a8 8 0 0 1 15.356 1.014l20.319 94.821 13.459-17.945a8 8 0 0 1 6.4-3.2h128v16h-124l-21.6 28.8a8 8 0 0 1 -6.4 3.2z" fill="#afeaef"/><path d="m232 328a11.314 11.314 0 0 1 -16 0l-8-8 16-16 8 8a11.314 11.314 0 0 1 0 16z" fill="#f4c7c6"/><path d="m121.616 87.106a7.992 7.992 0 0 1 -3.1-11.4 92.082 92.082 0 0 1 36.765-32.795 8 8 0 0 1 10.989 4.383 7.956 7.956 0 0 1 -3.892 9.957 76.05 76.05 0 0 0 -30.431 27.149 7.95 7.95 0 0 1 -10.331 2.706z" fill="#fff"/><circle cx="184" cy="46.928" fill="#fff" r="8"/><path d="m98.343 493.657a8 8 0 0 0 11.314 0l32-32a8 8 0 0 0 0-11.314l-2.343-2.343 16-16h180.686a8 8 0 0 0 5.657-2.343l64-64a30.628 30.628 0 0 0 -43.314-43.314l-2.343 2.344-5.173-5.173a26.624 26.624 0 0 0 -37.654 0l-48.486 48.486h-17.373l-10.635-10.635a30.621 30.621 0 0 0 12.978-51.022l-45.037-45.037 43.615 23.261a8 8 0 0 0 7.53 0l55.635-29.667a247.064 247.064 0 0 0 66.431-51.622l-11.821-10.783a231.126 231.126 0 0 1 -62.139 48.288l-51.871 27.659-51.869-27.663a231 231 0 0 1 -69.545-56.779h49.414a8 8 0 0 0 7.589-5.47l8.011-24.03 16.739 55.8a8 8 0 0 0 15.2.391l30.538-85.506 18.106 84.492a8 8 0 0 0 14.217 3.123l21.6-28.8h124v-16h-128a8 8 0 0 0 -6.4 3.2l-13.459 17.945-20.319-94.821a8 8 0 0 0 -15.356-1.014l-31.805 89.053-17-56.662a8 8 0 0 0 -15.252-.231l-14.175 42.53h-55.734a233.15 233.15 0 0 1 -13.772-22.623 77.1 77.1 0 0 1 113.372-98.63l29.2 21.232a8 8 0 0 0 9.411 0l29.189-21.232a77.1 77.1 0 0 1 113.371 98.629q-1.11 2.079-2.258 4.131l13.961 7.817q1.228-2.195 2.414-4.418a93.1 93.1 0 0 0 -136.9-119.1l-24.488 17.811-24.488-17.81a93.1 93.1 0 0 0 -136.9 119.1q4.12 7.726 8.747 15.094h-31.359v16h42.268a246.8 246.8 0 0 0 82.332 70.899l2.068 1.1h-54.668a8 8 0 0 0 -5.657 2.343l-48 48a8 8 0 0 0 -2.343 5.657v36.686l-24 24-2.343-2.344a8 8 0 0 0 -11.314 0l-32 32a8 8 0 0 0 0 11.314zm230.143-162.83a10.627 10.627 0 0 1 15.028 0l5.173 5.173-32 32h-25.373zm-226.829 26.83a8 8 0 0 0 2.343-5.657v-36.687l43.314-43.313h49.373l45.656 45.657a14.627 14.627 0 0 1 -20.686 20.686l-40-40-11.314 11.314 40 40 32 32a8 8 0 0 0 5.657 2.343h72a8 8 0 0 0 5.657-2.343l48-48a14.627 14.627 0 0 1 20.686 20.686l-61.656 61.657h-180.687a8 8 0 0 0 -5.657 2.343l-18.343 18.344-52.686-52.687zm-45.657 29.657 68.686 68.686-20.686 20.686-68.686-68.686z"/></svg>