<svg id="filled_outline" height="512" viewBox="0 0 512 512" width="512" xmlns="http://www.w3.org/2000/svg" data-name="filled outline"><path d="m108.857 83.143a83.64 83.64 0 0 1 118.286 0l28.857 28.857 28.857-28.857a83.64 83.64 0 0 1 118.286 0 83.64 83.64 0 0 1 13.757 100.148 314.873 314.873 0 0 1 -112.433 115.63l-48.467 29.079-48.466-29.079a314.873 314.873 0 0 1 -112.434-115.63 83.64 83.64 0 0 1 13.757-100.148z" fill="#ce3521"/><path d="m206.785 83.143 39.036 39.036 10.179-10.179-28.857-28.857a83.471 83.471 0 0 0 -69.322-23.856 83.245 83.245 0 0 1 48.964 23.856z" fill="#a52016"/><path d="m403.143 83.143a83.471 83.471 0 0 0 -69.322-23.856 83.248 83.248 0 0 1 48.964 23.856 83.64 83.64 0 0 1 13.756 100.148 314.865 314.865 0 0 1 -112.433 115.63l-38.287 22.972 10.179 6.107 48.466-29.079a314.873 314.873 0 0 0 112.434-115.63 83.64 83.64 0 0 0 -13.757-100.148z" fill="#a52016"/><path d="m240 296a16 16 0 0 1 -16-16 16 16 0 0 1 16-16h112l-16-16a33.941 33.941 0 0 1 0-48l88 88h5.49a64 64 0 0 0 45.255-18.745l13.255-13.255v56a64 64 0 0 1 -64 64 54.626 54.626 0 0 1 -38.627 16h-145.373z" fill="#e88080"/><g fill="#faa6a6"><path d="m240 280h128l-16-16h-112a16 16 0 0 0 -16 16 15.9 15.9 0 0 0 2.158 8 15.98 15.98 0 0 1 13.842-8z"/><path d="m474.745 269.255a64 64 0 0 1 -45.255 18.745h-5.49l-88-88a33.92 33.92 0 0 0 -8.988 32 33.782 33.782 0 0 1 8.988-16l88 88h5.49a64 64 0 0 0 45.255-18.745l13.255-13.255v-16z"/><path d="m280 328a16 16 0 0 0 16-16 16 16 0 0 0 -16-16h-112l16-16a33.941 33.941 0 0 0 0-48l-88 88h-10.177a72 72 0 0 1 -50.911-21.088l-10.912-10.912v48a72 72 0 0 0 72 72 54.626 54.626 0 0 0 38.627 16h129.373a16 16 0 0 0 16-16 16 16 0 0 0 -16-16h24a16 16 0 0 0 16-16 16 16 0 0 0 -16-16 16 16 0 0 0 16-16 16 16 0 0 0 -16-16z"/></g><path d="m264 408h-129.373a54.626 54.626 0 0 1 -38.627-16 72 72 0 0 1 -72-72v16a72 72 0 0 0 72 72 54.626 54.626 0 0 0 38.627 16h129.373a16 16 0 0 0 16-16 15.9 15.9 0 0 0 -2.158-8 15.98 15.98 0 0 1 -13.842 8z" fill="#e88080"/><path d="m85.823 336h10.177l88-88a33.782 33.782 0 0 1 8.988 16 33.92 33.92 0 0 0 -8.988-32l-88 88h-10.177a72 72 0 0 1 -50.911-21.088l-10.912-10.912v16l10.912 10.912a72 72 0 0 0 50.911 21.088z" fill="#f4c7c6"/><path d="m152 312h128a15.98 15.98 0 0 1 13.842 8 15.9 15.9 0 0 0 2.158-8 16 16 0 0 0 -16-16h-112z" fill="#f4c7c6"/><path d="m304 176h-24v-24h-32v24h-24v32h24v24h32v-24h24z" fill="#a52016"/><g fill="#fff"><path d="m296 168h-24v-24h-32v24h-24v32h24v24h32v-24h24z"/><path d="m105.616 128.178a7.992 7.992 0 0 1 -3.1-11.4 92.082 92.082 0 0 1 36.765-32.795 8 8 0 0 1 10.989 4.383 7.955 7.955 0 0 1 -3.892 9.957 76.06 76.06 0 0 0 -30.435 27.156 7.95 7.95 0 0 1 -10.327 2.699z"/><circle cx="168" cy="88" r="8"/></g><path d="m491.062 248.609a8 8 0 0 0 -8.719 1.734l-13.255 13.257a55.63 55.63 0 0 1 -39.6 16.4h-2.176l-40.3-40.3a323.337 323.337 0 0 0 36.854-52.49 91.737 91.737 0 0 0 -27.508-120.153l-9.158 13.123a75.735 75.735 0 0 1 22.723 99.189 307.471 307.471 0 0 1 -34.244 49l-34.025-34.025a8 8 0 0 0 -11.314 0 41.989 41.989 0 0 0 0 59.314l2.347 2.342h-92.687a23.992 23.992 0 0 0 -22.624 32h-30.062l2.343-2.343a41.989 41.989 0 0 0 0-59.314 8 8 0 0 0 -11.314 0l-22.653 22.657a306.358 306.358 0 0 1 -53.616-69.628 75.64 75.64 0 0 1 119.411-90.572l28.858 28.858a8 8 0 0 0 11.314 0l28.858-28.858a75.54 75.54 0 0 1 81.952-16.616l6.014-14.827a91.508 91.508 0 0 0 -99.281 20.129l-23.2 23.2-23.2-23.2a91.64 91.64 0 0 0 -144.671 109.727 322.334 322.334 0 0 0 56.247 73.1l-51.689 51.687h-6.864a63.578 63.578 0 0 1 -45.255-18.746l-10.912-10.911a8 8 0 0 0 -13.656 5.657v48a80.1 80.1 0 0 0 76.741 79.935 62.177 62.177 0 0 0 41.886 16.065h129.373a23.992 23.992 0 0 0 22.624-32h98.749a62.18 62.18 0 0 0 41.895-16.073 72.092 72.092 0 0 0 68.732-71.927v-56a8 8 0 0 0 -4.938-7.391zm-291.062 135.391v16h64a8 8 0 0 1 0 16h-129.373a46.326 46.326 0 0 1 -32.971-13.657 8 8 0 0 0 -5.656-2.343 64.072 64.072 0 0 1 -64-64v-28.811a79.413 79.413 0 0 0 53.823 20.811h10.177a8 8 0 0 0 5.657-2.343l81.451-81.451a25.988 25.988 0 0 1 -4.765 30.137l-16 16a8 8 0 0 0 5.657 13.657h112a8 8 0 0 1 0 16h-80v16h88a8 8 0 0 1 0 16h-88v16h88a8 8 0 0 1 0 16zm280-72a56.063 56.063 0 0 1 -56 56 8 8 0 0 0 -5.656 2.343 46.326 46.326 0 0 1 -32.971 13.657h-74.749a23.943 23.943 0 0 0 -4.755-24 23.96 23.96 0 0 0 -4.969-36.223 23.93 23.93 0 0 0 1.724-19.777h17.376v-16h-80a8 8 0 0 1 0-16h112a8 8 0 0 0 5.657-13.657l-16-16a25.986 25.986 0 0 1 -4.764-30.137l81.45 81.451a8 8 0 0 0 5.657 2.343h5.49a71.519 71.519 0 0 0 50.51-20.689z"/><path d="m240 232h32a8 8 0 0 0 8-8v-16h16a8 8 0 0 0 8-8v-32a8 8 0 0 0 -8-8h-16v-16a8 8 0 0 0 -8-8h-32a8 8 0 0 0 -8 8v16h-16a8 8 0 0 0 -8 8v32a8 8 0 0 0 8 8h16v16a8 8 0 0 0 8 8zm-16-40v-16h16a8 8 0 0 0 8-8v-16h16v16a8 8 0 0 0 8 8h16v16h-16a8 8 0 0 0 -8 8v16h-16v-16a8 8 0 0 0 -8-8z"/></svg>