<svg id="filled_outline" height="512" viewBox="0 0 512 512" width="512" xmlns="http://www.w3.org/2000/svg" data-name="filled outline"><path d="m488 488h-464v-144l13.622-5.239a521.5 521.5 0 0 1 187.21-34.761h44.626a521.51 521.51 0 0 1 218.542 48z" fill="#faa6a6"/><path d="m168 307.115a521.461 521.461 0 0 0 -130.378 31.646l-13.622 5.239v144h464v-88h-227.115a92.885 92.885 0 0 1 -92.885-92.885z" fill="#e88080"/><path d="m488 352a521.5 521.5 0 0 0 -104-35.254v107.254h-256v-110.924a521.453 521.453 0 0 0 -90.378 25.685l-13.622 5.239v144h464z" fill="#3b9daf"/><path d="m488 352a521.5 521.5 0 0 0 -104-35.254v107.254h-256v-110.924a521.453 521.453 0 0 0 -90.378 25.685l-13.622 5.239a327.754 327.754 0 0 0 229.923 124.079l234.077 19.921z" fill="#77d5d8"/><path d="m224 368h-40v-16h56a16 16 0 0 1 -16 16z" fill="#ce3521"/><path d="m152 352h16v16h-16z" fill="#ce3521"/><path d="m215.029 360 180-180a16.971 16.971 0 0 1 24 0 16.97 16.97 0 0 1 0 24l-84 84v24l-48 48z" fill="#e5e5e5"/><path d="m419.029 180a16.955 16.955 0 0 0 -3.059-2.409 16.885 16.885 0 0 1 -4.941 11.379l-84 84a57.939 57.939 0 0 1 -16.97 40.97l-14.059 14.06a57.943 57.943 0 0 1 -40.971 16.971h-24.97l-15.03 15.029h72l48-48v-24l84-84a16.97 16.97 0 0 0 0-24z" fill="#b7b7b7"/><path d="m384 72a163.882 163.882 0 0 0 -115.882-48h-24.236a163.882 163.882 0 0 0 -115.882 48v16h256z" fill="#066991"/><rect fill="#77d5d8" height="32" rx="10.192" width="288" x="112" y="72"/><path d="m389.808 72h-267.616a10.192 10.192 0 0 0 -10.192 10.192v11.616a10.155 10.155 0 0 0 .243 2.192 10.19 10.19 0 0 1 9.949-8h267.616a10.19 10.19 0 0 1 9.949 8 10.155 10.155 0 0 0 .243-2.192v-11.616a10.192 10.192 0 0 0 -10.192-10.192z" fill="#3b9daf"/><g fill="#f9e48c"><path d="m120 104c17.434 31.382 62.566 31.382 80 0z"/><path d="m216 104c17.434 31.382 62.566 31.382 80 0z"/><path d="m312 104c17.434 31.382 62.566 31.382 80 0z"/></g><g fill="#f7ce23"><path d="m41.591 148h68.819v15.999h-68.819z" transform="matrix(.581 -.814 .814 .581 -95.118 127.178)"/><path d="m151.015 176h65.97v15.999h-65.97z" transform="matrix(.243 -.97 .97 .243 -39.137 317.873)"/><path d="m312 151.015h15.999v65.97h-15.999z" transform="matrix(.97 -.243 .243 .97 -35.072 83.105)"/><path d="m428 121.591h15.999v68.819h-15.999z" transform="matrix(.814 -.581 .581 .814 -9.461 282.477)"/></g><path d="m491.353 344.736a528.858 528.858 0 0 0 -148.324-43.58v-9.843l81.657-81.656a24.971 24.971 0 1 0 -35.314-35.314l-177.657 177.657h-27.715v16h103.029a8 8 0 0 0 5.658-2.343l48-48c.191-.192.371-.393.541-.6q17.514 2.472 34.772 6.136v92.807h-240v-96.287a513.294 513.294 0 0 1 88.832-7.713v-16a527.529 527.529 0 0 0 -190.082 35.294l-13.622 5.239a8 8 0 0 0 -5.128 7.467v144a8 8 0 0 0 8 8h464a8 8 0 0 0 8-8v-136a8 8 0 0 0 -4.647-7.264zm-164.324-56.736v20.687l-43.313 43.313h-49.373l166.343-166.343a8.97 8.97 0 1 1 12.686 12.686l-84 84a8 8 0 0 0 -2.343 5.657zm152.971 192h-448v-130.506l8.494-3.266a513.7 513.7 0 0 1 79.506-23.444v101.216a8 8 0 0 0 8 8h256a8 8 0 0 0 8-8v-97.156a512.838 512.838 0 0 1 88 30.3z"/><path d="m152 352h16v16h-16z"/><path d="m397.617 110.214a18.2 18.2 0 0 0 10.383-16.406v-11.616a18.213 18.213 0 0 0 -18.192-18.192h-2.551a170.7 170.7 0 0 0 -119.139-48h-24.236a170.7 170.7 0 0 0 -119.138 48h-2.551a18.213 18.213 0 0 0 -18.193 18.192v11.616a18.2 18.2 0 0 0 10.383 16.406 53.757 53.757 0 0 0 90.079 1.786h7.076a53.765 53.765 0 0 0 88.924 0h7.076a53.757 53.757 0 0 0 90.079-1.786zm-153.735-78.214h24.236a154.7 154.7 0 0 1 94.643 32h-213.522a154.7 154.7 0 0 1 94.643-32zm-123.882 50.192a2.195 2.195 0 0 1 2.193-2.192h267.615a2.194 2.194 0 0 1 2.192 2.192v11.616a2.194 2.194 0 0 1 -2.192 2.192h-267.615a2.195 2.195 0 0 1 -2.193-2.192zm40 37.344a37.42 37.42 0 0 1 -22.722-7.536h45.444a37.42 37.42 0 0 1 -22.722 7.536zm96 0a37.42 37.42 0 0 1 -22.722-7.536h45.444a37.42 37.42 0 0 1 -22.722 7.536zm118.722-7.536a38.023 38.023 0 0 1 -45.444 0z"/><path d="m41.591 148h68.819v15.999h-68.819z" transform="matrix(.581 -.814 .814 .581 -95.116 127.171)"/><path d="m151.015 176h65.97v15.999h-65.97z" transform="matrix(.243 -.97 .97 .243 -39.137 317.873)"/><path d="m312 151.015h15.999v65.97h-15.999z" transform="matrix(.97 -.243 .243 .97 -35.075 83.116)"/><path d="m428 121.591h15.999v68.819h-15.999z" transform="matrix(.814 -.581 .581 .814 -9.461 282.478)"/></svg>