<svg id="filled_outline" height="512" viewBox="0 0 512 512" width="512" xmlns="http://www.w3.org/2000/svg" data-name="filled outline"><path d="m136 64h-32v-32h-32v32h-32v32h32v32h32v-32h32z" fill="#e5e5e5"/><path d="m128 56h-32v-32h-32v32h-32v32h32v32h32v-32h32z" fill="#1dbf5e"/><path d="m112 488v-336.3a39.7 39.7 0 0 1 39.7-39.7h256.3v376z" fill="#afeaef"/><path d="m167.7 112h-16a39.7 39.7 0 0 0 -39.7 39.7v336.3h16v-336.3a39.7 39.7 0 0 1 39.7-39.7z" fill="#77d5d8"/><path d="m150.893 328h210.214a14.893 14.893 0 0 1 14.893 14.893v145.107a0 0 0 0 1 0 0h-240a0 0 0 0 1 0 0v-145.107a14.893 14.893 0 0 1 14.893-14.893z" fill="#4abdcc"/><path d="m233.147 480a73.147 73.147 0 0 1 -73.147-73.147v-71.96a14.822 14.822 0 0 1 1.7-6.893h-10.807a14.893 14.893 0 0 0 -14.893 14.893v145.107h240v-8z" fill="#3b9daf"/><path d="m368 215.955v-31.91a24.045 24.045 0 0 0 -24.045-24.045h-176.132a23.823 23.823 0 0 0 -23.823 23.823v32.354a23.823 23.823 0 0 0 23.823 23.823h176.132a24.045 24.045 0 0 0 24.045-24.045z" fill="#77d5d8"/><path d="m359.955 224h-176.132a23.823 23.823 0 0 1 -23.823-23.823v-32.354a23.813 23.813 0 0 1 1-6.823 23.831 23.831 0 0 0 -17 22.826v32.354a23.823 23.823 0 0 0 23.823 23.82h176.132a24.053 24.053 0 0 0 23-17.04 24.043 24.043 0 0 1 -7 1.04z" fill="#4abdcc"/><path d="m184 344v-46.354a17.646 17.646 0 0 1 17.646-17.646h108.708a17.646 17.646 0 0 1 17.646 17.646v46.354z" fill="#066991"/><path d="m376.849 416h-56.849v-16h56.849a23.178 23.178 0 0 0 23.151-23.152v-328.848h16v328.848a39.2 39.2 0 0 1 -39.151 39.152z" fill="#77d5d8"/><path d="m310.354 280h-108.708a17.62 17.62 0 0 0 -14.766 8h107.474a17.646 17.646 0 0 1 17.646 17.646v38.354h16v-46.354a17.646 17.646 0 0 0 -17.646-17.646z" fill="#3b9daf"/><rect fill="#77d5d8" height="96" rx="12.983" width="64" x="376" y="88"/><path d="m427.017 88h-38.034a12.982 12.982 0 0 0 -11.983 8h34.022a12.983 12.983 0 0 1 12.978 12.983v70.034a12.933 12.933 0 0 1 -1 4.983h4.012a12.983 12.983 0 0 0 12.988-12.983v-70.034a12.983 12.983 0 0 0 -12.983-12.983z" fill="#afeaef"/><rect fill="#faa6a6" height="128" rx="32.106" width="96" x="208" y="136"/><path d="m208 168.106v63.788a32.107 32.107 0 0 0 32.106 32.106h8a32.107 32.107 0 0 1 -32.106-32.106v-63.788z" fill="#e88080"/><path d="m271.894 136h-16a32.107 32.107 0 0 1 32.106 32.106v63.788a32.107 32.107 0 0 1 -32.106 32.106h16a32.107 32.107 0 0 0 32.106-32.106v-63.788a32.107 32.107 0 0 0 -32.106-32.106z" fill="#f4c7c6"/><path d="m376 342.893a14.893 14.893 0 0 0 -14.893-14.893h-210.214a14.893 14.893 0 0 0 -14.893 14.893v33.107h240z" fill="#e5e5e5"/><path d="m174.893 328h-24a14.893 14.893 0 0 0 -14.893 14.893v33.107h24v-33.107a14.893 14.893 0 0 1 14.893-14.893z" fill="#b7b7b7"/><path d="m464 24v16h-80v-16h-16v24a8 8 0 0 0 8 8h88v256h16v-288z" fill="#b7b7b7"/><path d="m320 376v64a16 16 0 0 1 -16 16 16 16 0 0 1 -16-16v-64z" fill="#3b9daf"/><path d="m328 328v112a16 16 0 0 1 -16 16 16 16 0 0 1 -16-16v-112z" fill="#faa6a6"/><path d="m312 328v112a15.98 15.98 0 0 1 -8 13.842 15.98 15.98 0 0 0 24-13.842v-112z" fill="#f4c7c6"/><path d="m296 392h32v32h-32z" fill="#ce3521"/><path d="m408.792 136.792a12.433 12.433 0 0 0 -17.584 0l-15.208 15.208v19.017a12.983 12.983 0 0 0 12.983 12.983h38.034a12.983 12.983 0 0 0 12.983-12.983v-43.017l-15.519 10.346a12.435 12.435 0 0 1 -15.689-1.554z" fill="#f7b023"/><path d="m424.481 138.346c-.157.1-.32.194-.481.291v32.38a12.983 12.983 0 0 1 -12.983 12.983h16a12.983 12.983 0 0 0 12.983-12.983v-43.017z" fill="#f7ce23"/><path d="m224 280 32 32 32-32z" fill="#faa6a6"/><path d="m271.894 144h-31.788a32.107 32.107 0 0 0 -32.106 32.106v39.894l10.687-7.125a29.9 29.9 0 0 0 13.313-24.875h48a29.9 29.9 0 0 0 13.313 24.875l10.687 7.125v-39.894a32.107 32.107 0 0 0 -32.106-32.106z" fill="#e88080"/><path d="m271.894 136h-31.788a32.107 32.107 0 0 0 -32.106 32.106v39.894l10.687-7.125a29.9 29.9 0 0 0 13.313-24.875h48a29.9 29.9 0 0 0 13.313 24.875l10.687 7.125v-39.894a32.107 32.107 0 0 0 -32.106-32.106z" fill="#f99321"/><path d="m271.894 136h-31.788a32.059 32.059 0 0 0 -26.343 13.763 31.94 31.94 0 0 1 18.343-5.763h31.788a32.107 32.107 0 0 1 32.106 32.106v26.561l8 5.333v-39.894a32.107 32.107 0 0 0 -32.106-32.106z" fill="#f7b023"/><path d="m240 264h32v24h-32z" fill="#faa6a6"/><path d="m288 328h8v48h-8z" fill="#b7b7b7"/><path d="m32 96h24v24a8 8 0 0 0 8 8h32a8 8 0 0 0 8-8v-24h24a8 8 0 0 0 8-8v-32a8 8 0 0 0 -8-8h-24v-24a8 8 0 0 0 -8-8h-32a8 8 0 0 0 -8 8v24h-24a8 8 0 0 0 -8 8v32a8 8 0 0 0 8 8zm8-32h24a8 8 0 0 0 8-8v-24h16v24a8 8 0 0 0 8 8h24v16h-24a8 8 0 0 0 -8 8v24h-16v-24a8 8 0 0 0 -8-8h-24z"/><path d="m361.107 320h-25.107v-22.354a25.675 25.675 0 0 0 -25.645-25.646h-38.461a40.156 40.156 0 0 0 36.718-24h43.388v-16h-40c0-.036 0-.071 0-.106v-63.788c0-.035 0-.07 0-.106h40v-16h-43.388a40.156 40.156 0 0 0 -36.718-24h-31.787a40.157 40.157 0 0 0 -36.719 24h-35.565a31.859 31.859 0 0 0 -31.823 31.823v32.354a31.859 31.859 0 0 0 31.823 31.823h35.565a40.157 40.157 0 0 0 36.719 24h-38.461a25.675 25.675 0 0 0 -25.646 25.646v22.354h-25.106a22.919 22.919 0 0 0 -22.894 22.893v145.107a8 8 0 0 0 8 8h240a8 8 0 0 0 8-8v-72.666a39.21 39.21 0 0 0 32-38.486v-184.848h11.017a21.007 21.007 0 0 0 20.983-20.983v-70.034a21.007 21.007 0 0 0 -20.983-20.983h-11.017v-24h48v256h16v-288h-16v16h-80v-16h-16v24a8 8 0 0 0 8 8h24v24h-11.016a21.007 21.007 0 0 0 -20.984 20.983v70.034a21.007 21.007 0 0 0 20.984 20.983h11.016v184.848a23.187 23.187 0 0 1 -16 22.016v-55.971a22.919 22.919 0 0 0 -22.893-22.893zm-121-176h31.787a24.133 24.133 0 0 1 24.106 24.106v24.8a21.839 21.839 0 0 1 -8-16.906 8 8 0 0 0 -8-8h-48a8 8 0 0 0 -8 8 21.839 21.839 0 0 1 -8 16.91v-24.8a24.134 24.134 0 0 1 24.107-24.11zm-72.284 88a15.841 15.841 0 0 1 -15.823-15.823v-32.354a15.841 15.841 0 0 1 15.823-15.823h32.177v.106 63.788.106zm48.177-.106v-19.613l7.125-4.75a37.806 37.806 0 0 0 16.026-23.531h33.7a37.81 37.81 0 0 0 16.026 23.531l7.125 4.75v19.613a24.133 24.133 0 0 1 -24.108 24.106h-31.787a24.134 24.134 0 0 1 -24.107-24.106zm172.984-135.894h38.033a4.988 4.988 0 0 1 4.983 4.983v22.736l-11.956 7.97a4.445 4.445 0 0 1 -5.595-.554 20.434 20.434 0 0 0 -28.9 0l-1.549 1.551v-31.7a4.988 4.988 0 0 1 4.984-4.986zm-4.984 75.017v-15.7l12.865-12.865a4.438 4.438 0 0 1 6.27 0 20.489 20.489 0 0 0 25.784 2.548l3.081-2.052v28.069a4.988 4.988 0 0 1 -4.983 4.983h-38.033a4.988 4.988 0 0 1 -4.984-4.983zm-16 171.876v25.107h-32v-32h25.107a6.9 6.9 0 0 1 6.893 6.893zm-48-6.893v48h-16v-48zm-16 96h16v8a8 8 0 0 1 -16 0zm16-16h-16v-16h16zm-51.314-128-12.686 12.686-12.686-12.686zm-76.686 9.646a9.657 9.657 0 0 1 9.646-9.646h19.04l29.657 29.657a8 8 0 0 0 11.314 0l29.657-29.657h19.041a9.656 9.656 0 0 1 9.645 9.646v22.354h-128zm-48 182.354v-137.107a6.9 6.9 0 0 1 6.894-6.893h137.106v32h-128v16h128v56a24 24 0 0 0 48 0v-56h32v16h-16v16h16v64z"/><path d="m104 151.7v176.3h16v-176.3a31.737 31.737 0 0 1 31.7-31.7h200.3v-16h-200.3a47.755 47.755 0 0 0 -47.7 47.7z"/></svg>