<svg id="filled_outline" height="512" viewBox="0 0 512 512" width="512" xmlns="http://www.w3.org/2000/svg" data-name="filled outline"><rect fill="#afeaef" height="80" rx="40" transform="matrix(.707 -.707 .707 .707 -185.47 255.431)" width="192" x="119.598" y="311.598"/><path d="m284.284 308.284-79.2 79.2a40 40 0 0 1 -56.568 0 39.863 39.863 0 0 1 -8.775-13.2 40.013 40.013 0 0 0 7.971 45.2 40 40 0 0 0 56.568 0l79.2-79.2a40.009 40.009 0 0 0 8.775-43.364 39.911 39.911 0 0 1 -7.971 11.364z" fill="#4abdcc"/><rect fill="#e5e5e5" height="80" rx="40" width="192" x="24" y="408"/><path d="m184 464h-112a40 40 0 0 1 -40-40 39.824 39.824 0 0 0 -8 24 40 40 0 0 0 40 40h112a40 40 0 0 0 40-40 39.939 39.939 0 0 1 -32 16z" fill="#b7b7b7"/><path d="m64 408a40 40 0 0 0 -40 40 40 40 0 0 0 40 40h56v-80z" fill="#f44a2a"/><path d="m64 408a40 40 0 0 0 -40 40 40 40 0 0 0 40 40h56v-80z" fill="#f44a2a"/><path d="m72 464a40 40 0 0 1 -40-40 40 40 0 0 0 32 64h56v-24z" fill="#ce3521"/><path d="m144 232a133.687 133.687 0 0 1 -88-125.638v-50.362l88-32 88 32v50.362a133.687 133.687 0 0 1 -88 125.638z" fill="#77d5d8"/><path d="m144 24v208a133.685 133.685 0 0 0 88-125.637v-50.363z" fill="#3b9daf"/><path d="m192 104h-32v-32h-32v32h-32v32h32v32h32v-32h32z" fill="#f44a2a"/><path d="m344 160h96v72h-96z" fill="#f7b023"/><path d="m344 160v24h56v48h40v-72z" fill="#f99321"/><rect fill="#f7ce23" height="256" rx="31.163" width="192" x="296" y="216"/><path d="m456.837 216h-24.837v160.837a31.163 31.163 0 0 1 -31.163 31.163h-104.837v32.837a31.163 31.163 0 0 0 31.163 31.163h129.674a31.163 31.163 0 0 0 31.163-31.163v-193.674a31.163 31.163 0 0 0 -31.163-31.163z" fill="#f7b023"/><path d="m296 272h192v112h-192z" fill="#066991"/><path d="m328 120h128v48h-128z" fill="#f9e48c"/><g fill="#f7ce23"><path d="m352 120h16v48h-16z"/><path d="m384 120h16v48h-16z"/><path d="m416 144h16v24h-16z"/></g><path d="m283.48 283.716a40 40 0 0 0 -56.568 0l-39.6 39.6 56.568 56.568 39.6-39.6a40 40 0 0 0 0-56.568z" fill="#1dbf5e"/><path d="m283.48 283.716a40.078 40.078 0 0 0 -8-6.2 40.014 40.014 0 0 1 -7.2 46.769l-40 40 15.6 15.6 39.6-39.6a40 40 0 0 0 0-56.569z" fill="#16994a"/><path d="m296 440.837a31.163 31.163 0 0 0 31.163 31.163h129.674a31.163 31.163 0 0 0 31.163-31.163v-.837h-192z" fill="#f99321"/><path d="m296 272h136v112h-136z" fill="#77d5d8"/><path d="m432 328h-24v-24h-16v24h-24v16h24v24h16v-24h24z" fill="#4abdcc"/><g fill="#fff"><path d="m424 320h-24v-24h-16v24h-24v16h24v24h16v-24h24z"/><rect height="16" rx="8" width="48" x="136" y="448"/><rect height="16" rx="8" width="32" x="64" y="448"/><rect height="16" rx="8" transform="matrix(.707 -.707 .707 .707 -150.5 272.544)" width="32" x="237.74" y="309.941"/><circle cx="56" cy="448" r="8"/><circle cx="269.74" cy="293.841" r="8"/></g><path d="m120 168a8 8 0 0 0 8 8h32a8 8 0 0 0 8-8v-24h24a8 8 0 0 0 8-8v-32a8 8 0 0 0 -8-8h-24v-24a8 8 0 0 0 -8-8h-32a8 8 0 0 0 -8 8v24h-24a8 8 0 0 0 -8 8v32a8 8 0 0 0 8 8h24zm-16-40v-16h24a8 8 0 0 0 8-8v-24h16v24a8 8 0 0 0 8 8h24v16h-24a8 8 0 0 0 -8 8v24h-16v-24a8 8 0 0 0 -8-8z"/><path d="m141.266 239.519a8.011 8.011 0 0 0 5.468 0 142.12 142.12 0 0 0 93.266-133.157v-50.362a8 8 0 0 0 -5.266-7.519l-88-32a8.014 8.014 0 0 0 -5.468 0l-88 32a8 8 0 0 0 -5.266 7.519v50.362a142.122 142.122 0 0 0 93.266 133.157zm-77.266-177.919 72-26.182v12.582h16v-12.578l72 26.178v44.758a126.125 126.125 0 0 1 -72 113.625v-27.983h-16v27.987a126.127 126.127 0 0 1 -72-113.625z"/><path d="m456.837 208h-8.837v-32h8a8 8 0 0 0 8-8v-48a8 8 0 0 0 -8-8h-128a8 8 0 0 0 -8 8v48a8 8 0 0 0 8 8h8v32h-8.837a39.207 39.207 0 0 0 -39.163 39.163v29.812a47.978 47.978 0 0 0 -66.745 1.084l-79.2 79.2a48.21 48.21 0 0 0 -13.228 42.741h-64.827a48 48 0 0 0 0 96h112a47.961 47.961 0 0 0 39-75.925l73-73v93.758a39.207 39.207 0 0 0 39.163 39.167h129.674a39.207 39.207 0 0 0 39.163-39.163v-193.674a39.207 39.207 0 0 0 -39.163-39.163zm-266.948 194.384a43.59 43.59 0 0 0 -13.789-2.384h-30.871a32.148 32.148 0 0 1 8.144-31.432l33.941-33.94 45.254 45.255-28.284 28.284-1.372.124a42.753 42.753 0 0 0 -10.243-4.97l-1.757-.592zm-157.889 45.616a32.037 32.037 0 0 1 32-32h48v64h-48a32.037 32.037 0 0 1 -32-32zm144 32h-48v-64h48a32 32 0 0 1 0 64zm101.823-145.373-33.941 33.942-45.254-45.255 33.941-33.941a32 32 0 1 1 45.254 45.254zm170.177-174.627h-16v-16h-16v16h-16v-32h48zm-80 0v-32h16v32zm-32-32h16v32h-16zm16 48h80v32h-80zm-24.837 48h129.674a23.189 23.189 0 0 1 23.163 23.163v16.837h-176v-16.837a23.189 23.189 0 0 1 23.163-23.163zm-23.163 56h176v96h-176zm152.837 184h-129.674a23.2 23.2 0 0 1 -22.024-16h158.861v-16h-160v-40h176v48.837a23.189 23.189 0 0 1 -23.163 23.163z"/></svg>