<svg id="filled_outline" height="512" viewBox="0 0 512 512" width="512" xmlns="http://www.w3.org/2000/svg" data-name="filled outline"><path d="m56 40h320v448h-320z" fill="#066991"/><path d="m88 40h288v416l-256-48a32 32 0 0 1 -32-32z" fill="#afeaef"/><path d="m324.77 354.118a170.524 170.524 0 0 1 -144.77-168.568v-145.55h-92v336a32 32 0 0 0 32 32l256 48v-94.056z" fill="#77d5d8"/><path d="m120 408 256 48-224-112v32a32 32 0 0 1 -32 32z" fill="#4abdcc"/><path d="m104 40-16 5.333v166.5a161.7 161.7 0 0 0 16 12.167 161.688 161.688 0 0 0 72-134.533v-25.467z" fill="#4abdcc"/><path d="m96 208a161.688 161.688 0 0 1 -72-134.533v-25.467l72-24 72 24v25.467a161.688 161.688 0 0 1 -72 134.533z" fill="#f7b023"/><path d="m96 24 72 24v25.467a161.688 161.688 0 0 1 -72 134.533z" fill="#f99321"/><path d="m280 96h-24v-24h-32v24h-24v32h24v24h32v-24h24z" fill="#f44a2a"/><g fill="#3b9daf"><path d="m144 208h24v16h-24z"/><path d="m184 208h128v16h-128z"/><path d="m144 248h128v16h-128z"/><path d="m288 248h24v16h-24z"/><path d="m144 288h104v16h-104z"/><path d="m264 288h24v16h-24z"/></g><path d="m423.046 72h17.909a15.046 15.046 0 0 1 15.045 15.046v240.954a0 0 0 0 1 0 0h-48a0 0 0 0 1 0 0v-240.954a15.046 15.046 0 0 1 15.046-15.046z" fill="#ce6b6b"/><path d="m439.046 72h-16a15.046 15.046 0 0 0 -15.046 15.046v240.954h16v-240.954a15.046 15.046 0 0 1 15.046-15.046z" fill="#e88080"/><path d="m423.046 72h17.909a15.046 15.046 0 0 1 15.045 15.046v16.954a0 0 0 0 1 0 0h-48a0 0 0 0 1 0 0v-16.954a15.046 15.046 0 0 1 15.046-15.046z" fill="#b7b7b7"/><path d="m439.046 72h-16a15.046 15.046 0 0 0 -15.046 15.046v16.954h16v-16.954a15.046 15.046 0 0 1 15.046-15.046z" fill="#e5e5e5"/><path d="m416 320v80l32-32v-48z" fill="#f7b023"/><path d="m432 336h16v-16h-32v80l16-16z" fill="#f7ce23"/><path d="m496 208h-16v-96h-72v-16h80a8 8 0 0 1 8 8z" fill="#f7ce23"/><path d="m496 208h-16v-96h-56v-16h64a8 8 0 0 1 8 8z" fill="#f7b023"/><path d="m408 264h48v64h-48z" fill="#faa6a6"/><path d="m408 264h16v64h-16z" fill="#f4c7c6"/><circle cx="96" cy="96" fill="#f7ce23" r="40"/><circle cx="84" cy="84" fill="#fff" r="12"/><path d="m42.883 80.168a8.021 8.021 0 0 1 -4.953-11.093 64.487 64.487 0 0 1 14.321-19.781 8.02 8.02 0 0 1 12.081 1.22 8.041 8.041 0 0 1 -1.166 10.476 48.384 48.384 0 0 0 -10.709 14.787 8.045 8.045 0 0 1 -9.574 4.391z" fill="#fff"/><path d="m480 112h8v96h-8z" fill="#f7ce23"/><path d="m368 443.056-212.422-106.211a8 8 0 0 0 -11.578 7.155v32a24 24 0 0 1 -48 0v-144h-16v144a40.048 40.048 0 0 0 39.216 39.992l248.784 46.647v17.361h-304v-272h-16v280a8 8 0 0 0 8 8h320a8 8 0 0 0 8-8v-448a8 8 0 0 0 -8-8h-184v16h176zm-220.495-38.038a39.9 39.9 0 0 0 12.495-29.018v-19.056l161.332 80.666z"/><path d="m91.563 214.656a8 8 0 0 0 8.875 0 169.347 169.347 0 0 0 75.562-141.189v-25.467a8 8 0 0 0 -5.47-7.589l-72-24a7.992 7.992 0 0 0 -5.06 0l-72 24a8 8 0 0 0 -5.47 7.589v25.467a169.348 169.348 0 0 0 75.563 141.189zm-59.563-160.89 64-21.333 64 21.333v19.7a153.363 153.363 0 0 1 -64 124.806 153.363 153.363 0 0 1 -64-124.8z"/><path d="m200 136h16v16a8 8 0 0 0 8 8h32a8 8 0 0 0 8-8v-16h16a8 8 0 0 0 8-8v-32a8 8 0 0 0 -8-8h-16v-16a8 8 0 0 0 -8-8h-32a8 8 0 0 0 -8 8v16h-16a8 8 0 0 0 -8 8v32a8 8 0 0 0 8 8zm8-32h16a8 8 0 0 0 8-8v-16h16v16a8 8 0 0 0 8 8h16v16h-16a8 8 0 0 0 -8 8v16h-16v-16a8 8 0 0 0 -8-8h-16z"/><path d="m144 208h24v16h-24z"/><path d="m184 208h128v16h-128z"/><path d="m144 248h128v16h-128z"/><path d="m288 248h24v16h-24z"/><path d="m144 288h104v16h-104z"/><path d="m264 288h24v16h-24z"/><path d="m488 96h-24v-8.954a23.072 23.072 0 0 0 -23.046-23.046h-17.908a23.072 23.072 0 0 0 -23.046 23.046v240.954a8 8 0 0 0 8 8v64a8 8 0 0 0 13.657 5.657l32-32a8 8 0 0 0 2.343-5.657v-32a8 8 0 0 0 8-8v-216h16v96h16v-104a8 8 0 0 0 -8-8zm-64.954-16h17.908a7.054 7.054 0 0 1 7.046 7.046v8.954h-32v-8.954a7.054 7.054 0 0 1 7.046-7.046zm-7.046 240v-48h32v48zm24 44.687-16 16v-44.687h16zm8-108.687h-32v-144h32z"/><path d="m144 96a48 48 0 1 0 -48 48 48.055 48.055 0 0 0 48-48zm-80 0a32 32 0 1 1 32 32 32.036 32.036 0 0 1 -32-32z"/></svg>