<svg id="filled_outline" height="512" viewBox="0 0 512 512" width="512" xmlns="http://www.w3.org/2000/svg" data-name="filled outline"><path d="m448 488h-128l-8-30.658v-146.679l8-22.663-15.458-5.312a18.471 18.471 0 0 1 -11.522-11.628 22.025 22.025 0 0 1 7.68-24.585l10.131-7.6a22.923 22.923 0 0 0 9.169-18.336 12.539 12.539 0 0 1 12.538-12.539h84.991a30.471 30.471 0 0 1 30.471 30.471z" fill="#afeaef"/><path d="m417.529 208h-17.529l1.024 1.024a51.13 51.13 0 0 1 14.976 36.155v18.155c0 17.437-13.671 32.176-31.1 32.654a32 32 0 0 1 -32.9-31.988v-13.471a47.988 47.988 0 0 1 -59.809 17.19 22.094 22.094 0 0 0 .829 3.341 10.745 10.745 0 0 0 7.253 10.162l19.727 6.778-8 22.663v146.679l8 30.658h128v-249.529a30.471 30.471 0 0 0 -30.471-30.471z" fill="#77d5d8"/><path d="m417.529 208h-16a30.471 30.471 0 0 1 30.471 30.471v22.448a63.632 63.632 0 0 1 -40 59.081l8 168h48v-249.529a30.471 30.471 0 0 0 -30.471-30.471z" fill="#4abdcc"/><circle cx="344" cy="384" fill="#afeaef" r="80"/><path d="m380.589 312.865a80 80 0 0 1 -113.178 94.27 80 80 0 1 0 113.178-94.27z" fill="#77d5d8"/><path d="m402.987 330a79.985 79.985 0 0 1 -129.372 92.024 79.99 79.99 0 1 0 129.372-92.024z" fill="#4abdcc"/><path d="m288 176v-78.8a73.2 73.2 0 0 1 73.2-73.2h13.6a73.2 73.2 0 0 1 73.2 73.2v78.8z" fill="#f7b023"/><path d="m397.083 27.465a73.09 73.09 0 0 1 30.917 59.735v41.585a37.216 37.216 0 0 1 -37.216 37.215h-102.784v10h160v-78.8a73.222 73.222 0 0 0 -50.917-69.735z" fill="#f99321"/><path d="m448 336.971a16.972 16.972 0 0 1 -4.971 12l-55.029 55.029a16.971 16.971 0 0 1 -24 0 16.971 16.971 0 0 1 0-24l47.029-47.029a16.972 16.972 0 0 0 4.971-12v-72.971h32z" fill="#faa6a6"/><path d="m432.971 248v72.971a16.967 16.967 0 0 1 -4.971 12l-55.029 55.029a16.928 16.928 0 0 1 -13.9 4.853 16.95 16.95 0 0 0 28.929 11.147l55.029-55.03a16.967 16.967 0 0 0 4.971-12v-88.97z" fill="#e88080"/><rect fill="#faa6a6" height="56.569" rx="16.971" transform="matrix(.707 -.707 .707 .707 -159.862 304)" width="33.941" x="270.059" y="316.686"/><path d="m384 168v56a16 16 0 0 1 -16 16 16 16 0 0 1 -16-16v-56z" fill="#faa6a6"/><path d="m368 168v56a15.98 15.98 0 0 1 -8 13.842 15.98 15.98 0 0 0 24-13.842v-56z" fill="#e88080"/><path d="m152 232a133.687 133.687 0 0 1 -88-125.638v-50.362l88-32 88 32v50.362a133.687 133.687 0 0 1 -88 125.638z" fill="#066991"/><path d="m320 104a48 48 0 0 1 96 0z" fill="#f7ce23"/><path d="m392.669 62.822.246.26c11.731 12.437 2.675 32.918-14.421 32.918h-57.818a48.267 48.267 0 0 0 -.676 8h96a47.97 47.97 0 0 0 -23.331-41.178z" fill="#f99321"/><path d="m152 24v208a133.686 133.686 0 0 0 88-125.638v-50.362z" fill="#4abdcc"/><path d="m152 176h24v-32h32v-32h-32v-32h-24z" fill="#3b9daf"/><path d="m200 104h-32v-32h-32v32h-32v32h32v32h32v-32h32z" fill="#f44a2a"/><path d="m416 103.905v32.195a39.9 39.9 0 0 1 -39.9 39.9h-16.19a39.9 39.9 0 0 1 -39.91-39.9v-32.19z" fill="#faa6a6"/><path d="m320 103.905v10h79.625a6.376 6.376 0 0 1 6.375 6.376v25.819a39.7 39.7 0 0 1 -7.139 22.766 39.85 39.85 0 0 0 17.139-32.766v-32.19z" fill="#e88080"/><rect fill="#fff" height="40" rx="8" width="16" x="72" y="88"/><circle cx="80" cy="72" fill="#fff" r="8"/><path d="m456 496v-257.529a38.515 38.515 0 0 0 -38.471-38.471h-25.529v-18.725a47.981 47.981 0 0 0 32-45.18v-32.19a56 56 0 0 0 -111.995 0v32.195a47.981 47.981 0 0 0 32 45.18v18.72h-11.467a20.561 20.561 0 0 0 -20.538 20.539 15 15 0 0 1 -5.969 11.938l-10.13 7.6a29.984 29.984 0 0 0 -10.47 33.514 26.624 26.624 0 0 0 16.512 16.665l7.828 2.69-4.2 11.885a87.871 87.871 0 0 0 -15.567 9.706 24.971 24.971 0 0 0 -28.881 39.834 88.021 88.021 0 0 0 44.073 108.6l7.059 27.051 15.482-4.04-4.281-16.406a88.037 88.037 0 0 0 87.411-28.368l-12.15-10.408a72.007 72.007 0 0 1 -124.741-63.569l3.4 3.4a24.971 24.971 0 0 0 35.314-35.314l-10.156-10.156a71.846 71.846 0 0 1 41.466-13.161v-16a88.151 88.151 0 0 0 -19.082 2.1l2.626-7.44a8 8 0 0 0 -4.944-10.229l-15.458-5.311a10.535 10.535 0 0 1 -6.532-6.593 14.005 14.005 0 0 1 4.89-15.655l10.132-7.6a31.075 31.075 0 0 0 12.368-24.733 4.544 4.544 0 0 1 4.538-4.539h11.462v8a24 24 0 0 0 48 0v-8h25.529a22.5 22.5 0 0 1 22.471 22.471v1.529h-24a8 8 0 0 0 -8 8v16a24 24 0 0 1 -48 0h-16a39.978 39.978 0 0 0 64 31.978v24.993a8.909 8.909 0 0 1 -2.628 6.343l-47.029 47.029a24.971 24.971 0 1 0 35.314 35.314l46.343-46.343v132.686zm-154.628-136.686a8.97 8.97 0 0 1 -12.685 0l-16-16a8.97 8.97 0 1 1 12.685-12.687l16 16a8.97 8.97 0 0 1 0 12.686zm66.628-295.314a40.069 40.069 0 0 1 39.2 32h-78.4a40.071 40.071 0 0 1 39.2-32zm-40 72.1v-24.1h80v24.1a31.94 31.94 0 0 1 -31.9 31.9h-16.19a31.941 31.941 0 0 1 -31.91-31.9zm40 95.9a8.009 8.009 0 0 1 -8-8v-40h16v40a8.009 8.009 0 0 1 -8 8zm69.372 111.314-55.029 55.029a8.97 8.97 0 0 1 -12.686-12.686l47.03-47.03a24.809 24.809 0 0 0 7.313-17.656v-64.971h16v80.971a8.909 8.909 0 0 1 -2.628 6.343z"/><path d="m456 97.2a81.291 81.291 0 0 0 -81.2-81.2h-13.6a81.291 81.291 0 0 0 -81.2 81.2v78.8a8 8 0 0 0 8 8h32v-16h-24v-70.8a65.272 65.272 0 0 1 65.2-65.2h13.6a65.272 65.272 0 0 1 65.2 65.2v70.8h-24v16h32a8 8 0 0 0 8-8z"/><path d="m168 176a8 8 0 0 0 8-8v-24h24a8 8 0 0 0 8-8v-32a8 8 0 0 0 -8-8h-24v-24a8 8 0 0 0 -8-8h-32a8 8 0 0 0 -8 8v24h-24a8 8 0 0 0 -8 8v32a8 8 0 0 0 8 8h24v24a8 8 0 0 0 8 8zm-56-48v-16h24a8 8 0 0 0 8-8v-24h16v24a8 8 0 0 0 8 8h24v16h-24a8 8 0 0 0 -8 8v24h-16v-24a8 8 0 0 0 -8-8z"/><path d="m152 240a8.023 8.023 0 0 0 2.734-.481 142.12 142.12 0 0 0 93.266-133.157v-50.362a8 8 0 0 0 -5.266-7.519l-88-32a8.014 8.014 0 0 0 -5.468 0l-88 32a8 8 0 0 0 -5.266 7.519v50.362a142.122 142.122 0 0 0 93.266 133.157 8.027 8.027 0 0 0 2.734.481zm-80-133.638v-44.762l72-26.182v12.582h16v-12.578l72 26.178v44.758a126.125 126.125 0 0 1 -72 113.625v-27.983h-16v27.987a126.127 126.127 0 0 1 -72-113.625z"/></svg>