<svg id="filled_outline" height="512" viewBox="0 0 512 512" width="512" xmlns="http://www.w3.org/2000/svg" data-name="filled outline"><path d="m352 258.315h-16v-74.315a24 24 0 0 1 48 0v24a8 8 0 0 0 16 0v-80h16v80a24 24 0 0 1 -48 0v-24a8 8 0 0 0 -16 0z" fill="#4abdcc"/><path d="m128 16v16h-112v16h40v33.7h16v-33.7h64a8 8 0 0 0 8-8v-24z" fill="#b7b7b7"/><path d="m24 72h80a0 0 0 0 1 0 0v80.259a15.741 15.741 0 0 1 -15.741 15.741h-48.518a15.741 15.741 0 0 1 -15.741-15.741v-80.259a0 0 0 0 1 0 0z" fill="#afeaef"/><path d="m63.741 119.677a15.741 15.741 0 0 1 -15.741-15.741v-31.936h-24v80.259a15.74 15.74 0 0 0 15.741 15.741h48.518a15.74 15.74 0 0 0 15.741-15.741v-32.582z" fill="#77d5d8"/><rect fill="#faa6a6" height="208" rx="63.364" width="144" x="168" y="24"/><path d="m184 168.636v-81.272a63.364 63.364 0 0 1 63.364-63.364h-16a63.364 63.364 0 0 0 -63.364 63.364v81.272a63.364 63.364 0 0 0 63.364 63.364h16a63.364 63.364 0 0 1 -63.364-63.364z" fill="#e88080"/><path d="m360 488-.826-216a40.158 40.158 0 0 0 -39.317-32h-159.714a40.143 40.143 0 0 0 -40.143 40.143v207.857z" fill="#faa6a6"/><path d="m180.143 240h-20a40.143 40.143 0 0 0 -40.143 40.143v207.857h20v-207.857a40.143 40.143 0 0 1 40.143-40.143z" fill="#e88080"/><path d="m208.708 240a8.708 8.708 0 0 1 -8.708-8.708v-39.292a40 40 0 0 1 40-40 40 40 0 0 1 40 40v39.292a8.708 8.708 0 0 1 -8.708 8.708z" fill="#e5e5e5"/><path d="m272 168v20a20 20 0 0 1 -20 20 20 20 0 0 1 -20-20v-35.2a40.011 40.011 0 0 0 -32 39.2v39.292a8.708 8.708 0 0 0 8.708 8.708h62.584a8.708 8.708 0 0 0 8.708-8.708v-39.292a39.819 39.819 0 0 0 -8-24z" fill="#b7b7b7"/><path d="m272 224h-47.292a8.708 8.708 0 0 1 -8.708-8.708v-39.292a39.821 39.821 0 0 1 4.866-19.134 39.992 39.992 0 0 0 -20.866 35.134v39.292a8.708 8.708 0 0 0 8.708 8.708h62.584a8.708 8.708 0 0 0 8.708-8.708v-7.292z" fill="#898989"/><path d="m448 272h-168.409a23.591 23.591 0 0 1 -23.591-23.591v-40.409a16 16 0 0 0 -16-16 16 16 0 0 0 -16 16v48.186a47.814 47.814 0 0 0 47.814 47.814h176.186z" fill="#f9e48c"/><path d="m160 288h16v200h-16z" fill="#e88080"/><path d="m302 304h16v184h-16z" fill="#e88080"/><path d="m318 352h42v64h-42z" fill="#066991"/><path d="m344 352h16v64h-16z" fill="#3b9daf"/><path d="m480 288h-24v-40h-16v88h16v-32h24z" fill="#b7b7b7"/><path d="m448 328a40 40 0 0 1 40 40v120a0 0 0 0 1 0 0h-80a0 0 0 0 1 0 0v-120a40 40 0 0 1 40-40z" fill="#1dbf5e"/><path d="m464.456 331.544a39.834 39.834 0 0 1 3.544 16.456 28 28 0 0 1 -28 28h-32v112h80v-120a40 40 0 0 0 -23.544-36.456z" fill="#16994a"/><path d="m408 394h80v94h-80z" fill="#b7b7b7"/><path d="m467.631 394v10.426a59.631 59.631 0 0 1 -59.631 59.631v23.943h80v-94z" fill="#898989"/><path d="m472 280h16v32h-16z" fill="#16994a"/><path d="m432 240h32v16h-32z" fill="#16994a"/><path d="m248.636 24h-17.272a63.364 63.364 0 0 0 -63.364 63.364v40.636l143.578-47.859a63.363 63.363 0 0 0 -62.942-56.141z" fill="#afeaef"/><path d="m184 87.364a63.364 63.364 0 0 1 63.364-63.364h-16a63.364 63.364 0 0 0 -63.364 63.364v40.636l16-5.333z" fill="#77d5d8"/><path d="m257.043 57.043-32.653-32.653a63.152 63.152 0 0 0 -37.539 17.891l36.745 29.4z" fill="#77d5d8"/><path d="m251.385 51.385-28.833 12.615-31.69-25.352q-2.082 1.732-4.011 3.633l36.745 29.4 33.447-14.634z" fill="#4abdcc"/><path d="m285.99 36.208-34.6 15.178 5.657 5.657 35.353-15.47a63.672 63.672 0 0 0 -6.41-5.365z" fill="#77d5d8"/><path d="m168 87.364v8.636l55.596-24.323-5.336-4.269-41.856 18.311z" fill="#77d5d8"/><path d="m72 432a24.028 24.028 0 0 1 -24-24v-249.691h16v249.691a8 8 0 0 0 16 0v-8.793a23.232 23.232 0 0 1 23.207-23.207h32.793v16h-32.793a7.215 7.215 0 0 0 -7.207 7.207v8.793a24.028 24.028 0 0 1 -24 24z" fill="#f44a2a"/><path d="m136 360h-25.6a30.429 30.429 0 0 1 -30.4-30.395v-137.605h16v137.605a14.411 14.411 0 0 0 14.4 14.395h25.6z" fill="#f44a2a"/><g fill="#afeaef"><circle cx="200" cy="320" r="16"/><circle cx="200" cy="392" r="16"/><circle cx="280" cy="392" r="16"/></g><g fill="#77d5d8"><path d="m186.343 317.657a143.623 143.623 0 0 1 -42.343-102.225v-7.432h16v7.432a127.724 127.724 0 0 0 37.657 90.911z"/><path d="m384 464h-72.833a39.211 39.211 0 0 1 -39.167-39.167v-24.833h16v24.833a23.194 23.194 0 0 0 23.167 23.167h72.833z"/><path d="m168.329 464h-96.329v-16h96.329a23.7 23.7 0 0 0 23.671-23.671v-24.329h16v24.329a39.715 39.715 0 0 1 -39.671 39.671z"/><path d="m360 56h128v80h-128z"/></g><path d="m360 56h128a0 0 0 0 1 0 0v80a0 0 0 0 1 0 0h-48a80 80 0 0 1 -80-80 0 0 0 0 1 0 0z" fill="#afeaef"/><path d="m424 128a8 8 0 0 1 -7.592-5.47l-10.825-32.482-6.927 10.39a8 8 0 0 1 -6.656 3.562h-32v-16h27.719l13.625-20.438a8 8 0 0 1 14.246 1.908l10.5 31.5 15.05-25.086a8 8 0 0 1 12.517-1.541l13.656 13.657h20.687v16h-24a8 8 0 0 1 -5.657-2.343l-8.755-8.757-18.728 31.216a8 8 0 0 1 -6.86 3.884z" fill="#f44a2a"/><path d="m24 128v24.259a15.74 15.74 0 0 0 15.741 15.741h48.518a15.74 15.74 0 0 0 15.741-15.741v-32.259z" fill="#a52016"/><path d="m56 104h80a0 0 0 0 1 0 0v79.949a16.051 16.051 0 0 1 -16.051 16.051h-47.9a16.051 16.051 0 0 1 -16.049-16.051v-79.949a0 0 0 0 1 0 0z" fill="#afeaef"/><path d="m66 183.949v-79.949h-10v79.949a16.052 16.052 0 0 0 16.051 16.051h10a16.052 16.052 0 0 1 -16.051-16.051z" fill="#77d5d8"/><path d="m56 183.949a16.052 16.052 0 0 0 16.051 16.051h47.9a16.052 16.052 0 0 0 16.049-16.051v-39.949l-80 8z" fill="#ce3521"/><path d="m129.949 190h-47.9a16.052 16.052 0 0 1 -16.049-16.051v-22.949l-10 1v31.949a16.052 16.052 0 0 0 16.051 16.051h47.9a16.046 16.046 0 0 0 15.18-10.871 15.977 15.977 0 0 1 -5.182.871z" fill="#a52016"/><path d="m488 48h-128a8 8 0 0 0 -8 8v80a8 8 0 0 0 8 8h40v64a8 8 0 0 1 -16 0v-24a24 24 0 0 0 -48 0v50.812a47.755 47.755 0 0 0 -16.143-2.812h-31.893c.01-.237.036-.469.036-.708v-3.123a71.584 71.584 0 0 0 32-59.532v-81.274a71.445 71.445 0 0 0 -71.363-71.363h-17.274a71.445 71.445 0 0 0 -71.363 71.363v81.274a71.584 71.584 0 0 0 32 59.532v3.123c0 .239.026.471.036.708h-30.966a129.528 129.528 0 0 1 -1.07-16.568v-7.432h-16v7.432a145.476 145.476 0 0 0 1.244 18.939 48.221 48.221 0 0 0 -33.244 45.773v63.856h-1.6a14.411 14.411 0 0 1 -14.4-14.395v-121.605h23.948a24.08 24.08 0 0 0 24.052-24.052v-79.948a8 8 0 0 0 -8-8h-24v-24a8 8 0 0 0 -8-8h-32v-16h64a8 8 0 0 0 8-8v-24h-16v16h-112v16h40v16h-32a8 8 0 0 0 -8 8v80.259a23.768 23.768 0 0 0 23.741 23.741h8.259v232a24 24 0 0 0 48 0v-8.793a7.216 7.216 0 0 1 7.207-7.207h8.793v56h-40v16h40v24h16v-24h24v24h16v-24h.329a39.715 39.715 0 0 0 39.671-39.671v-9.7a24 24 0 1 0 -16 0v9.7a23.7 23.7 0 0 1 -23.671 23.671h-.329v-152.769a145.171 145.171 0 0 0 10.562 14 24.021 24.021 0 1 0 11.57-11.1 128.024 128.024 0 0 1 -25.961-50.131h51.829v8.186a55.877 55.877 0 0 0 55.815 55.814h40.185v136h-.833a23.194 23.194 0 0 1 -23.167-23.167v-10.209a24 24 0 1 0 -16 0v10.209a39.211 39.211 0 0 0 39.167 39.167h.833v24h16v-24h24v24h16v-24h16v-16h-16v-136h72v8.679a48.069 48.069 0 0 0 -40 47.321v120a8 8 0 0 0 8 8h80a8 8 0 0 0 8-8v-120a48.068 48.068 0 0 0 -40-47.321v-16.679h16v8h16v-32h-16v8h-16v-32h8v-16h-32v16h8v8h-74.784a48.079 48.079 0 0 0 -13.216-19.639v-60.361a8 8 0 0 1 16 0v24a24 24 0 0 0 48 0v-64h72a8 8 0 0 0 8-8v-80a8 8 0 0 0 -8-8zm-288 336a8 8 0 1 1 -8 8 8.009 8.009 0 0 1 8-8zm-80.052-192h-47.9a8.061 8.061 0 0 1 -8.048-8.052v-24.708l64-6.4v31.108a8.061 8.061 0 0 1 -8.052 8.052zm8.052-55.24-64 6.4v-31.16h64zm-32-56.76v16h-40a8 8 0 0 0 -8 8v13.56l-16 1.6v-39.16zm-64 72.259v-17.019l16-1.6v26.36h-8.259a7.75 7.75 0 0 1 -7.741-7.741zm71.207 223.741a23.232 23.232 0 0 0 -23.207 23.207v8.793a8 8 0 0 1 -16 0v-201.391a23.933 23.933 0 0 0 8.052 1.391h7.948v121.605a30.429 30.429 0 0 0 30.4 30.395h1.6v16zm48.793-88v160h-24v-56h8v-16h-8v-16h8v-16h-8v-63.856a32.189 32.189 0 0 1 20.247-29.852 143.632 143.632 0 0 0 15.267 37.708zm56 32a8 8 0 1 1 -8-8 8.009 8.009 0 0 1 8 8zm72 64a8 8 0 1 1 -8 8 8.009 8.009 0 0 1 8-8zm22.527-309.276-126.527 42.176v-15.668l114.464-50.078a55.226 55.226 0 0 1 12.063 23.57zm-59.427-20.312-18.279 8-25.337-20.27a55.066 55.066 0 0 1 22.086-9.257zm33.645-14.72-17.9 7.833-15.53-15.525h5.322a55.018 55.018 0 0 1 28.106 7.692zm-88.958 13.583 20.473 16.379-32.126 14.055a55.064 55.064 0 0 1 11.653-30.434zm-11.787 115.362v-34.87l128-42.667v77.537a55.509 55.509 0 0 1 -16 38.908v-15.545a48 48 0 0 0 -96 0v15.545a55.509 55.509 0 0 1 -16-38.908zm32.708 63.363a.709.709 0 0 1 -.708-.708v-39.292a32 32 0 0 1 64 0v39.292a.708.708 0 0 1 -.708.708h-7.292v-24a24 24 0 0 0 -48 0v24zm143.292 176h-24v-48h24zm-24 40v-24h24v24zm24-104h-24v-32h24zm64 136v-80h64v80zm64-112v16h-64v-16a32 32 0 0 1 64 0zm-40-72h-168.185a39.859 39.859 0 0 1 -39.815-39.814v-48.186a8 8 0 0 1 16 0v40.409a31.627 31.627 0 0 0 31.591 31.591h160.409zm-160.409-32a15.609 15.609 0 0 1 -15.591-15.591v-.409h55.857a32.286 32.286 0 0 1 27.789 16zm200.409-200v24h-12.686l-13.657-13.657a8 8 0 0 0 -12.517 1.541l-15.051 25.085-10.5-31.5a8 8 0 0 0 -14.246-1.908l-13.624 20.439h-19.719v-24zm-56 64h-56v-24h24a8 8 0 0 0 6.656-3.562l6.927-10.39 10.827 32.482a8 8 0 0 0 14.45 1.586l18.728-31.216 8.755 8.755a8 8 0 0 0 5.657 2.345h16v24z"/></svg>