<svg id="filled_outline" height="512" viewBox="0 0 512 512" width="512" xmlns="http://www.w3.org/2000/svg" data-name="filled outline"><path d="m256 312v-97.133a30.867 30.867 0 0 1 30.867-30.867h66.266a30.867 30.867 0 0 1 30.867 30.867v97.133z" fill="#4abdcc"/><path d="m353.133 184h-25.133v31.355a56.645 56.645 0 0 1 -56.645 56.645h-15.355v40h128v-97.133a30.867 30.867 0 0 0 -30.867-30.867z" fill="#3b9daf"/><path d="m112 248a133.687 133.687 0 0 1 -88-125.638v-50.362l88-32 88 32v50.362a133.687 133.687 0 0 1 -88 125.638z" fill="#77d5d8"/><path d="m112 40-88 32v8l80.332-28.97 79.668 28.97v50.363a133.687 133.687 0 0 1 -66.029 115.284 133.677 133.677 0 0 0 82.029-123.284v-50.363z" fill="#afeaef"/><path d="m24 72v50.363a133.685 133.685 0 0 0 88 125.637v-208z" fill="#4abdcc"/><path d="m40 130.363v-50.363l72-26.182v-13.818l-88 32v50.363a133.677 133.677 0 0 0 82.029 123.284 133.687 133.687 0 0 1 -66.029-115.284z" fill="#3b9daf"/><path d="m160 120h-32v-32h-32v32h-32v32h32v32h32v-32h32z" fill="#f44a2a"/><path d="m424 280h-16v-120a8 8 0 0 1 8-8h32v16h-24z" fill="#b7b7b7"/><path d="m248 368-80 80h-56l104-112h32z" fill="#e88080"/><path d="m440 144h48v32h-48z" fill="#066991"/><path d="m296 352h-80l-8 8-32-32 15.374-15.374a29.452 29.452 0 0 1 20.826-8.626h83.8z" fill="#faa6a6"/><path d="m280 304v16.273a15.727 15.727 0 0 1 -15.727 15.727h-52.959a27.315 27.315 0 0 0 -19.314 8l16 16 8-8h80v-48z" fill="#e88080"/><path d="m352 224h32v64h-32z" fill="#faa6a6"/><path d="m256 224h32v80h-32z" fill="#faa6a6"/><path d="m272 224h16v80h-16z" fill="#e88080"/><path d="m368 224h16v48h-16z" fill="#e88080"/><path d="m232 352h56v32h-56z" fill="#898989"/><path d="m168 312 48 48-96 96h-60a36 36 0 0 1 -36-36 36 36 0 0 1 36-36h36z" fill="#f9e48c"/><path d="m120 424h-60a36 36 0 0 1 -32.249-20 35.833 35.833 0 0 0 -3.751 16 36 36 0 0 0 36 36h60l96-96-16-16z" fill="#f7b023"/><circle cx="376" cy="376" fill="#066991" r="112"/><circle cx="376" cy="376" fill="#b7b7b7" r="80"/><circle cx="376" cy="376" fill="#b7b7b7" r="80"/><path d="m414.267 305.733a80.019 80.019 0 0 1 -108.534 108.534 80.008 80.008 0 1 0 108.534-108.534z" fill="#898989"/><circle cx="376" cy="376" fill="#e5e5e5" r="16"/><path d="m304 168h32a0 0 0 0 1 0 0v16a16 16 0 0 1 -16 16 16 16 0 0 1 -16-16v-16a0 0 0 0 1 0 0z" fill="#faa6a6"/><path d="m368 56v82.244a45.756 45.756 0 0 1 -45.756 45.756h-4.488a45.756 45.756 0 0 1 -45.756-45.756s-.033-81.536 0-82.244z" fill="#faa6a6"/><g fill="#e88080"><path d="m344.015 56v82.244a45.766 45.766 0 0 1 -36.008 44.705 45.915 45.915 0 0 0 9.749 1.051h4.488a45.756 45.756 0 0 0 45.756-45.756v-82.244z"/><path d="m368 56v64h16v-48a16 16 0 0 0 -16-16z"/><path d="m272 56c-.021.463-.015 35.421-.008 59.607a42.728 42.728 0 0 0 18.92 4.393 50.913 50.913 0 0 0 36-14.912l25.088-25.088v24.887a15.113 15.113 0 0 0 15.113 15.113h.887v-64z"/></g><path d="m384 104h-16.887a15.113 15.113 0 0 1 -15.113-15.113v-24.887l-25.088 25.088a50.913 50.913 0 0 1 -36 14.912 42.912 42.912 0 0 1 -42.912-42.912v-37.088a54.831 54.831 0 0 0 50.781 5.287l3.414-1.365a54.831 54.831 0 0 1 20.365-3.922h29.44a16 16 0 0 1 16 16 16 16 0 0 1 16 16z" fill="#066991"/><path d="m368 104h16a16 16 0 0 1 16 16 16 16 0 0 1 -16 16h-16z" fill="#faa6a6"/><path d="m288 376a88 88 0 1 0 88-88 88.1 88.1 0 0 0 -88 88zm160 0a72 72 0 1 1 -72-72 72.081 72.081 0 0 1 72 72z"/><path d="m352 376a24 24 0 1 0 24-24 24.027 24.027 0 0 0 -24 24zm32 0a8 8 0 1 1 -8-8 8.009 8.009 0 0 1 8 8z"/><path d="m88 184a8 8 0 0 0 8 8h32a8 8 0 0 0 8-8v-24h24a8 8 0 0 0 8-8v-32a8 8 0 0 0 -8-8h-24v-24a8 8 0 0 0 -8-8h-32a8 8 0 0 0 -8 8v24h-24a8 8 0 0 0 -8 8v32a8 8 0 0 0 8 8h24zm-16-40v-16h24a8 8 0 0 0 8-8v-24h16v24a8 8 0 0 0 8 8h24v16h-24a8 8 0 0 0 -8 8v24h-16v-24a8 8 0 0 0 -8-8z"/><path d="m109.266 255.519a8.011 8.011 0 0 0 5.468 0 142.12 142.12 0 0 0 93.266-133.157v-50.362a8 8 0 0 0 -5.266-7.519l-88-32a8.014 8.014 0 0 0 -5.468 0l-88 32a8 8 0 0 0 -5.266 7.519v50.362a142.122 142.122 0 0 0 93.266 133.157zm-77.266-177.919 72-26.182v12.582h16v-12.578l72 26.178v44.758a126.125 126.125 0 0 1 -72 113.625v-27.983h-16v27.987a126.127 126.127 0 0 1 -72-113.625z"/><path d="m488 136h-48a8 8 0 0 0 -8 8v8h-16a8 8 0 0 0 -8 8v100.339a119.162 119.162 0 0 0 -16-3.27v-42.2a38.922 38.922 0 0 0 -32.138-38.269 53.619 53.619 0 0 0 15.826-32.6h8.312a24 24 0 0 0 8-46.624v-41.376a24.043 24.043 0 0 0 -17.031-22.969 24.043 24.043 0 0 0 -22.969-17.031h-29.439a62.559 62.559 0 0 0 -23.337 4.494l-3.414 1.366a46.828 46.828 0 0 1 -43.372-4.516 8 8 0 0 0 -12.438 6.656v37.088a50.915 50.915 0 0 0 24 43.189v33.967a53.585 53.585 0 0 0 16.138 38.356 38.922 38.922 0 0 0 -32.138 38.267v81.133h-35.8a37.207 37.207 0 0 0 -26.483 10.97l-5.717 5.716-6.343-6.343a8 8 0 0 0 -11.314 0l-69.656 69.657h-32.687a44 44 0 0 0 0 88h60a8 8 0 0 0 5.657-2.343l5.657-5.657h36.686a8 8 0 0 0 5.657-2.343l61.657-61.657h21.755a120 120 0 1 0 166.931-125.97v-98.03h8v8a8 8 0 0 0 8 8h48a8 8 0 0 0 8-8v-32a8 8 0 0 0 -8-8zm-128 121.069v-25.069h16v24a120.675 120.675 0 0 0 -16 1.069zm24-129.069h-8v-16h8a8 8 0 0 1 0 16zm-128-90.923a62.826 62.826 0 0 0 45.753-.362l3.414-1.365a46.618 46.618 0 0 1 17.394-3.35h29.439a8.009 8.009 0 0 1 8 8 8 8 0 0 0 8 8 8.009 8.009 0 0 1 8 8v40h-8.887a7.122 7.122 0 0 1 -7.113-7.113v-24.887a8 8 0 0 0 -13.657-5.657l-25.088 25.089a42.628 42.628 0 0 1 -30.343 12.568 34.951 34.951 0 0 1 -34.912-34.912zm24 73.733a50.843 50.843 0 0 0 10.912 1.19 58.523 58.523 0 0 0 41.657-17.255l11.431-11.431v5.573a23.15 23.15 0 0 0 16 21.988v27.369a37.8 37.8 0 0 1 -37.756 37.756h-4.488a37.8 37.8 0 0 1 -37.756-37.756zm6.867 81.19h66.266a22.893 22.893 0 0 1 22.867 22.867v1.133h-24a8 8 0 0 0 -8 8v36.339a119.92 119.92 0 0 0 -48 26.3v-62.639a8 8 0 0 0 -8-8h-24v-1.133a22.893 22.893 0 0 1 22.867-22.867zm-22.867 40h16v64h-16zm-66.97 86.283a21.311 21.311 0 0 1 15.17-6.283h62.338a119.419 119.419 0 0 0 -14.2 32h-44.338a8 8 0 0 0 -3.751.935l-20.935-20.935zm-80.343 129.717h-56.687a28 28 0 0 1 0-56h36a8 8 0 0 0 5.657-2.343l66.343-66.343 36.687 36.686zm48-8h-17.373l74.343-74.343a7.973 7.973 0 0 0 2.343-5.652v20.681zm75.313-64v-16h17.069a120.675 120.675 0 0 0 -1.069 16zm240 0a104 104 0 1 1 -104-104 104.118 104.118 0 0 1 104 104zm0-208h-32v-16h32z"/></svg>