<svg id="filled_outline" height="512" viewBox="0 0 512 512" width="512" xmlns="http://www.w3.org/2000/svg" data-name="filled outline"><path d="m282.786 480.5-26.786 7.5-26.786-7.5a237.16 237.16 0 0 1 -173.214-228.376v-188.124a508.037 508.037 0 0 0 170.873-29.6l29.127-10.4 29.127 10.4a508.037 508.037 0 0 0 170.873 29.6v188.124a237.16 237.16 0 0 1 -173.214 228.376z" fill="#4abdcc"/><path d="m256 24 29.127 10.4a508.037 508.037 0 0 0 170.873 29.6v188.124a237.16 237.16 0 0 1 -173.214 228.376l-26.786 7.5z" fill="#3b9daf"/><path d="m424 243.3a218.642 218.642 0 0 1 -168 212.7 218.642 218.642 0 0 1 -168-212.7v-147.3a372.776 372.776 0 0 0 166.71-39.355l1.29-.645 1.29.645a372.776 372.776 0 0 0 166.71 39.355z" fill="#066991"/><path d="m159.183 160.817a57.416 57.416 0 0 1 40.599-16.817h8.436a57.416 57.416 0 0 1 40.6 16.817l7.182 7.183 7.183-7.183a57.416 57.416 0 0 1 40.599-16.817h8.436a57.416 57.416 0 0 1 40.6 16.817 57.414 57.414 0 0 1 15 54.931l-34.027 131.983a27.945 27.945 0 0 1 -26.871 20.269 27.946 27.946 0 0 1 -25.947-17.567l-24.973-62.433-24.973 62.433a27.946 27.946 0 0 1 -25.947 17.567 27.945 27.945 0 0 1 -26.871-20.269l-34.024-131.983a57.414 57.414 0 0 1 14.998-54.931z" fill="#e5e5e5"/><path d="m333.791 317.731a27.945 27.945 0 0 1 -26.871 20.269 27.946 27.946 0 0 1 -25.947-17.567l-18.065-45.162a7.44 7.44 0 0 0 -13.816 0l-18.065 45.162a27.946 27.946 0 0 1 -25.947 17.567 27.945 27.945 0 0 1 -26.871-20.269l-33.849-131.3a57.37 57.37 0 0 0 -.175 29.32l34.024 131.983a27.945 27.945 0 0 0 26.871 20.266 27.946 27.946 0 0 0 25.947-17.567l24.973-62.433 24.973 62.433a27.946 27.946 0 0 0 25.947 17.567 27.945 27.945 0 0 0 26.871-20.269l34.024-131.983a57.37 57.37 0 0 0 -.175-29.32z" fill="#b7b7b7"/><circle cx="200" cy="200" fill="#fff" r="24"/><path d="m259.6 260a39.6 39.6 0 0 0 56 0l53.81-53.493a57.424 57.424 0 0 0 -16.591-45.69 57.4 57.4 0 0 0 -33.366-16.342l-59.853 59.525a39.6 39.6 0 0 0 0 56z" fill="#f7b023"/><path d="m352.817 160.817a57.4 57.4 0 0 0 -33.366-16.342l-39.6 39.379 56.005 56 33.549-33.351a57.424 57.424 0 0 0 -16.588-45.686z" fill="#f9e48c"/><g fill="#f7b023"><path d="m328 192h16v16h-16z"/><path d="m344 176h16v16h-16z"/><path d="m328 160h16v16h-16z"/><path d="m312 176h16v16h-16z"/></g><path d="m456 56a498.7 498.7 0 0 1 -168.182-29.132l-29.127-10.4a8.007 8.007 0 0 0 -5.382 0l-29.127 10.4a498.7 498.7 0 0 1 -168.182 29.132 8 8 0 0 0 -8 8v188.124a245.161 245.161 0 0 0 179.057 236.076l26.786 7.5a8.007 8.007 0 0 0 4.314 0l26.786-7.5a245.161 245.161 0 0 0 179.057-236.076v-188.124a8 8 0 0 0 -8-8zm-8 196.124a229.159 229.159 0 0 1 -167.371 220.676l-24.629 6.892-24.628-6.9a229.159 229.159 0 0 1 -167.372-220.668v-180.186a514.562 514.562 0 0 0 165.564-30l26.436-9.443 26.436 9.442a514.562 514.562 0 0 0 165.564 30.001z"/><path d="m259.579 48.845a8 8 0 0 0 -7.157 0l-1.29.645a366.625 366.625 0 0 1 -163.132 38.51 8 8 0 0 0 -8 8v147.3a226.642 226.642 0 0 0 174.147 220.482 7.984 7.984 0 0 0 3.706 0 226.642 226.642 0 0 0 174.147-220.482v-52.044h-16v52.044a210.644 210.644 0 0 1 -160 204.468 210.644 210.644 0 0 1 -160-204.468v-139.386a382.922 382.922 0 0 0 160-38.979 382.938 382.938 0 0 0 160 38.979v72.086h16v-80a8 8 0 0 0 -8-8 366.617 366.617 0 0 1 -163.131-38.51z"/><path d="m168 208h16a24.027 24.027 0 0 1 24-24v-16a40.045 40.045 0 0 0 -40 40z"/><path d="m312 176h16v16h-16z"/><path d="m328 192h16v16h-16z"/><path d="m358.474 155.16a64.987 64.987 0 0 0 -46.256-19.16h-8.436a64.988 64.988 0 0 0 -46.255 19.159l-1.527 1.528-1.526-1.527a64.987 64.987 0 0 0 -46.256-19.16h-8.436a64.988 64.988 0 0 0 -46.255 19.159 65.681 65.681 0 0 0 -17.089 62.586l34.025 131.984c.017.067.035.133.054.2a35.946 35.946 0 0 0 67.938 3.473l17.545-43.861 17.546 43.859a35.946 35.946 0 0 0 67.938-3.473c.019-.068.037-.134.054-.2l34.024-131.984a65.681 65.681 0 0 0 -17.088-62.583zm-32.4 190.464a19.946 19.946 0 0 1 -37.672 1.838l-24.973-62.433a8 8 0 0 0 -14.856 0l-24.973 62.433a19.946 19.946 0 0 1 -37.672-1.838l-34-131.873a49.618 49.618 0 0 1 12.909-47.277 49.086 49.086 0 0 1 34.945-14.474h8.436a49.088 49.088 0 0 1 34.942 14.474l7.183 7.183a8 8 0 0 0 11.314 0l7.184-7.183a49.033 49.033 0 0 1 31.632-14.352l-46.531 46.221a47.6 47.6 0 0 0 67.292 67.335l34.2-33.951zm-46.226-150.462 44.691 44.69-14.6 14.491a31.6 31.6 0 0 1 -44.706-44.667zm81.722 7.93-25.676 25.488-44.695-44.7 31.069-30.861a48.8 48.8 0 0 1 16.918 6.981h-11.186v16h16v-12.414c1.086.915 2.144 1.872 3.16 2.888a48.963 48.963 0 0 1 7.4 9.526h-10.56v16h16.676a49.825 49.825 0 0 1 .894 11.092z"/></svg>