<svg id="filled_outline" height="512" viewBox="0 0 512 512" width="512" xmlns="http://www.w3.org/2000/svg" data-name="filled outline"><path d="m112 232h288v256h-288z" fill="#f9e48c"/><path d="m384 232v102.8a121.2 121.2 0 0 1 -121.2 121.2h-150.8v32h288v-256z" fill="#f7b023"/><path d="m336 152h32l56 64v40a24 24 0 0 1 -24 24 24 24 0 0 1 -24-24h-48a24 24 0 0 1 -24 24 24 24 0 0 1 -24-24h-48a24 24 0 0 1 -24 24 24 24 0 0 1 -24-24h-48a24 24 0 0 1 -24 24 24 24 0 0 1 -24-24v-40l64-64h24" fill="#77d5d8"/><path d="m376 232h-264v64a24 24 0 0 0 24-24 24 24 0 0 0 48 0 24 24 0 0 0 48 0 24 24 0 0 0 48 0 24 24 0 0 0 48 0 24 24 0 0 0 48 0 24 24 0 0 0 24 24v-64z" fill="#f7b023"/><path d="m184 216v40a24 24 0 0 1 -24 24 24 24 0 0 1 -24-24v-40z" fill="#f7ce23"/><g fill="#4abdcc"><path d="m136 216v40a24 24 0 0 1 -24 24 24 24 0 0 1 -24-24v-40z"/><path d="m232 216v40a24 24 0 0 1 -24 24 24 24 0 0 1 -24-24v-40z"/><path d="m328 216v40a24 24 0 0 1 -24 24 24 24 0 0 1 -24-24v-40z"/><path d="m424 216v40a24 24 0 0 1 -24 24 24 24 0 0 1 -24-24v-40z"/></g><path d="m280 216v40a24 24 0 0 1 -24 24 24 24 0 0 1 -24-24v-40z" fill="#f7ce23"/><path d="m376 216v40a24 24 0 0 1 -24 24 24 24 0 0 1 -24-24v-40z" fill="#f7ce23"/><path d="m176 360h160v128h-160z" fill="#77d5d8"/><path d="m256 360h80v128h-80z" fill="#afeaef"/><path d="m256 360h40v128h-40z" fill="#77d5d8"/><path d="m216 360h40v128h-40z" fill="#afeaef"/><g fill="#fff"><path d="m280 360 56 56v-56z"/><path d="m256 384 80 80v24h-8l-72-72z"/><path d="m200 360 56 56v-56z"/><path d="m256 464-80-80v40l64 64h16z"/></g><path d="m160 328h192v32h-192z" fill="#3b9daf"/><path d="m160 344h192v16h-192z" fill="#066991"/><path d="m352 192 16.569-39.35-.569-.65h-32-127.158l-16.842 40z" fill="#4abdcc"/><path d="m176 24h160v160h-160z" fill="#b7b7b7"/><path d="m176 24h160a0 0 0 0 1 0 0 160 160 0 0 1 -160 160 0 0 0 0 1 0 0v-160a0 0 0 0 1 0 0z" fill="#e5e5e5"/><path d="m304 88h-32v-32h-32v32h-32v32h32v32h32v-32h32z" fill="#f44a2a"/><path d="m168 360h8v128h-8z" fill="#f99321"/><path d="m336 360h8v128h-8z" fill="#f99321"/><path d="m256 360h8v128h-8z" fill="#4abdcc"/><path d="m304 80h-24v-24a8 8 0 0 0 -8-8h-32a8 8 0 0 0 -8 8v24h-24a8 8 0 0 0 -8 8v32a8 8 0 0 0 8 8h24v24a8 8 0 0 0 8 8h32a8 8 0 0 0 8-8v-24h24a8 8 0 0 0 8-8v-32a8 8 0 0 0 -8-8zm-8 32h-24a8 8 0 0 0 -8 8v24h-16v-24a8 8 0 0 0 -8-8h-24v-16h24a8 8 0 0 0 8-8v-24h16v24a8 8 0 0 0 8 8h24z"/><path d="m112 496h288a8 8 0 0 0 8-8v-201.013a32.056 32.056 0 0 0 24-30.987v-40a8 8 0 0 0 -1.979-5.268l-56-64a8 8 0 0 0 -6.021-2.732h-24v-120a8 8 0 0 0 -8-8h-160a8 8 0 0 0 -8 8v120h-16a8 8 0 0 0 -5.657 2.343l-64 64a8 8 0 0 0 -2.343 5.657v40a32.056 32.056 0 0 0 24 30.987v201.013a8 8 0 0 0 8 8zm216-128v112h-64v-112zm-160-16v-16h176v16zm80 16v112h-64v-112zm96 112v-112h8a8 8 0 0 0 8-8v-32a8 8 0 0 0 -8-8h-192a8 8 0 0 0 -8 8v32a8 8 0 0 0 8 8h8v112h-48v-193.013a32.037 32.037 0 0 0 16-9.855 31.934 31.934 0 0 0 48 0 31.934 31.934 0 0 0 48 0 31.934 31.934 0 0 0 48 0 31.934 31.934 0 0 0 48 0 31.934 31.934 0 0 0 48 0 32.037 32.037 0 0 0 16 9.855v193.013zm-160-448h144v144h-144zm-88 224v-36.687l59.314-59.313h12.686v24a8 8 0 0 0 8 8h160a8 8 0 0 0 8-8v-24h20.37l51.63 59.006v36.994a16 16 0 0 1 -32 0v-40h-16v40a16 16 0 0 1 -32 0v-40h-16v40a16 16 0 0 1 -32 0v-40h-16v40a16 16 0 0 1 -32 0v-40h-16v40a16 16 0 0 1 -32 0v-40h-16v40a16 16 0 0 1 -32 0v-40h-16v40a16 16 0 0 1 -32 0z"/><path d="m296 372.686h16v22.627h-16z" transform="matrix(.707 -.707 .707 .707 -182.489 327.432)"/><path d="m280 393.373h16v45.255h-16z" transform="matrix(.707 -.707 .707 .707 -209.803 325.49)"/><path d="m216 372.686h16v22.627h-16z" transform="matrix(.707 -.707 .707 .707 -205.921 270.863)"/><path d="m200 393.373h16v45.255h-16z" transform="matrix(.707 -.707 .707 .707 -233.235 268.922)"/></svg>