<svg id="filled_outline" height="512" viewBox="0 0 512 512" width="512" xmlns="http://www.w3.org/2000/svg" data-name="filled outline"><path d="m288 40h16v128h-16z" fill="#4abdcc"/><path d="m120 160h304v32h-304z" fill="#77d5d8"/><path d="m360 216h16v56h-16z" fill="#b7b7b7"/><path d="m136 216h16v56h-16z" fill="#b7b7b7"/><path d="m120 128h64a16 16 0 0 1 16 16 16 16 0 0 1 -16 16h-64z" fill="#afeaef"/><path d="m232 160h192v32h-192z" fill="#f7ce23"/><path d="m232 176h192v16h-192z" fill="#f7b023"/><path d="m120 176h112v16h-112z" fill="#4abdcc"/><path d="m200 48h32v120h16v-120h64a8 8 0 0 0 8-8v-24h-16v16h-56v-16h-16v16h-24v-16h-16v24a8 8 0 0 0 8 8z" fill="#b7b7b7"/><path d="m144 248h224v16h-224z" fill="#b7b7b7"/><path d="m112 192h312v32h-312z" fill="#f99321"/><path d="m112 400 40-40v-28.686a27.315 27.315 0 0 1 8-19.314l8-8a27.315 27.315 0 0 1 19.314-8h49.372a27.315 27.315 0 0 1 19.314 8 27.315 27.315 0 0 1 8 19.314v20.686h48l100.761-43.183a18.061 18.061 0 0 1 19.886 3.83 18.061 18.061 0 0 1 -2.539 27.654l-110.108 75.699h-104l-48 48z" fill="#faa6a6"/><path d="m272 72h48a0 0 0 0 1 0 0v32.426a15.574 15.574 0 0 1 -15.574 15.574h-16.852a15.574 15.574 0 0 1 -15.574-15.574v-32.426a0 0 0 0 1 0 0z" fill="#afeaef"/><path d="m312 72v24.426a15.574 15.574 0 0 1 -15.574 15.574h-16.852a15.486 15.486 0 0 1 -6.256-1.318 15.569 15.569 0 0 0 14.256 9.318h16.852a15.574 15.574 0 0 0 15.574-15.574v-32.426z" fill="#77d5d8"/><path d="m432.28 304.307-101.88 72.312a40 40 0 0 1 -23.152 7.381h-74.679a40 40 0 0 0 -28.285 11.716 40 40 0 0 1 -56.568 0l-15.716-15.716-20 20 56 56 48-48h104l110.108-75.7a18.061 18.061 0 0 0 2.192-27.992z" fill="#e88080"/><path d="m113.373 375.431h45.255v113.137h-45.255z" fill="#066991" transform="matrix(.707 -.707 .707 .707 -265.637 222.696)"/><path d="m232 160h32v32h-32z" fill="#e5e5e5"/><g fill="#066991"><circle cx="368" cy="272" r="16"/><circle cx="144" cy="272" r="16"/><path d="m104 80a16 16 0 0 1 16 16v128a0 0 0 0 1 0 0h-12.248a19.752 19.752 0 0 1 -19.752-19.752v-108.248a16 16 0 0 1 16-16z"/><path d="m416 128h16v96h-16z"/></g><path d="m208 328h56v16h-56z" fill="#e88080"/><path d="m424 232a8 8 0 0 0 8-8v-96h-16v24h-112v-24h.426a23.6 23.6 0 0 0 23.574-23.574v-32.426a8 8 0 0 0 -8-8h-16v-16h8a8 8 0 0 0 8-8v-24h-16v16h-56v-16h-16v16h-24v-16h-16v24a8 8 0 0 0 8 8h32v104h-25.376a23.992 23.992 0 0 0 -22.624-32h-56v-24a24 24 0 0 0 -48 0v108.248a27.784 27.784 0 0 0 27.753 27.752h28.247v17.376a24.005 24.005 0 1 0 30.624 14.624h178.752a24 24 0 1 0 30.624-14.624v-17.376zm-312-16h-4.247a11.766 11.766 0 0 1 -11.753-11.752v-108.248a8 8 0 0 1 16 0zm304-32h-96v16h96v16h-288v-16h176v-16h-64v-16h176zm-288 0v-16h96v16zm184-79.574a7.582 7.582 0 0 1 -7.574 7.574h-16.852a7.582 7.582 0 0 1 -7.574-7.574v-24.426h32zm-64-56.426h40v16h-16a8 8 0 0 0 -8 8v32.426a23.6 23.6 0 0 0 23.574 23.574h.426v24h-40zm-64 88a8 8 0 0 1 0 16h-56v-16zm-32 136a8 8 0 1 1 -8-8 8.009 8.009 0 0 1 8 8zm216 8a8 8 0 1 1 8-8 8.009 8.009 0 0 1 -8 8zm-8-32h-208v-16h208z"/><path d="m154.343 493.657a8 8 0 0 0 11.314 0l32-32a8 8 0 0 0 0-11.314l-6.343-6.343 28-28h100.686a8 8 0 0 0 4.532-1.408l110.108-75.7a26.062 26.062 0 0 0 -25.031-45.43l-99.251 42.538h-38.358v-12.687a35.313 35.313 0 0 0 -35.313-35.313h-49.373a35.082 35.082 0 0 0 -24.971 10.343l-8 8a35.082 35.082 0 0 0 -10.343 24.97v25.374l-20 20-6.343-6.344a8 8 0 0 0 -11.314 0l-32 32a8 8 0 0 0 0 11.314zm3.314-128a8 8 0 0 0 2.343-5.657v-28.687a19.187 19.187 0 0 1 5.657-13.656l8-8a19.187 19.187 0 0 1 13.657-5.657h49.373a19.314 19.314 0 0 1 19.313 19.313v12.687h-48v16h104a7.989 7.989 0 0 0 3.151-.647l100.761-43.183a10.061 10.061 0 0 1 9.663 17.539l-108.06 74.291h-101.515a8 8 0 0 0 -5.657 2.343l-30.343 30.344-44.686-44.687zm-45.657 21.657 68.686 68.686-20.686 20.686-68.686-68.686z"/></svg>