<svg id="filled_outline" height="512" viewBox="0 0 512 512" width="512" xmlns="http://www.w3.org/2000/svg" data-name="filled outline"><path d="m68.8 238.051a26.376 26.376 0 0 1 -12.8-22.615 26.374 26.374 0 0 1 18.033-25.02l32.879-10.96a53.576 53.576 0 0 1 53.278-13.432l65.11 19.533a71.963 71.963 0 0 1 30.205 18.043 71.956 71.956 0 0 0 22.536 15.257l66.459 28.482 33.941-33.939 33.941 11.313-33.941 56.567-11.314 45.255-204.981-50.107a336.927 336.927 0 0 1 -93.346-38.377z" fill="#77d5d8"/><path d="m242.146 256.665a336.929 336.929 0 0 1 -93.346-38.378 26.373 26.373 0 0 1 -12.8-22.615 26.372 26.372 0 0 1 18.033-25.019l10.224-3.408-4.067-1.221a53.575 53.575 0 0 0 -53.278 13.433l-32.879 10.959a26.374 26.374 0 0 0 -18.033 25.02 26.376 26.376 0 0 0 12.8 22.615 336.927 336.927 0 0 0 93.342 38.377l204.981 50.107 9.264-37.055z" fill="#4abdcc"/><path d="m177.755 264.665a336.911 336.911 0 0 1 -93.341-38.378 26.371 26.371 0 0 1 -8.946-36.349l-1.435.478a26.374 26.374 0 0 0 -5.233 47.635 336.927 336.927 0 0 0 93.342 38.377l204.981 50.107 3.67-14.682z" fill="#3b9daf"/><path d="m174.794 247.339 107.48 141.421 50.912 5.657-33.941-113.137z" fill="#77d5d8"/><path d="m293.088 378.343-94.666-124.56-23.628-6.444 107.48 141.421 50.912 5.657-3.606-12.019z" fill="#3b9daf"/><path d="m447.22 96.007a39.79 39.79 0 0 0 -18.619 5.007l.469-.8a64.006 64.006 0 0 0 -117.048 34.086l-.022 41.7h153.3a22.7 22.7 0 0 0 22.7-22.7v-16.51c0-22.429-18.355-41.211-40.78-40.783z" fill="#066991"/><path d="m447.22 96.007a39.79 39.79 0 0 0 -18.619 5.007l.469-.8a64 64 0 0 0 -116.9 31.173 64 64 0 0 1 106.9-1.173l-.469.8a39.79 39.79 0 0 1 18.619-5.007c22.425-.428 40.78 18.354 40.78 40.783v5.327a22.677 22.677 0 0 0 10-18.817v-16.51c0-22.429-18.355-41.211-40.78-40.783z" fill="#77d5d8"/><path d="m161.911 209.929a8.1 8.1 0 0 0 1.577.157 8 8 0 0 0 1.561-15.847 92.765 92.765 0 0 1 -45.389-23.4l-.546-.513a53.481 53.481 0 0 0 -12.2 9.129l-1.069.356 2.855 2.689a108.754 108.754 0 0 0 53.211 27.429z" fill="#066991"/><path d="m328.498 144-136-80-56 16-16 64 56 40 136 40 24-40z" fill="#f7ce23"/><path d="m236.431 128.015-26.949-19.249a42.024 42.024 0 0 1 -16.344-44.389l-.638-.377-56 16-16 64 56 40 136 40 24-40-5.128-25.638-82.372-24.226a42 42 0 0 1 -12.569-6.121z" fill="#f7b023"/><path d="m136.498 80-16 64 56 40 24-48z" fill="#898989"/><path d="m312.498 224-136-40 24-48 136 48z" fill="#605f5f"/><g fill="#afeaef"><path d="m328.497 322.239h16.001v83.522h-16.001z" transform="matrix(.287 -.958 .958 .287 -108.843 581.712)"/><path d="m384 249.824h15.999v68.352h-15.999z" transform="matrix(.351 -.936 .936 .351 -11.558 551.322)"/><path d="m432 217.824h15.999v68.352h-15.999z" transform="matrix(.351 -.936 .936 .351 49.551 575.502)"/><path d="m424 305.824h15.999v68.352h-15.999z" transform="matrix(.351 -.936 .936 .351 -38.037 625.112)"/></g><path d="m400 456h-88.439a71.981 71.981 0 0 0 -85.088-62.713l.013-.016a88.015 88.015 0 0 0 -170.486 30.729 32 32 0 0 0 -32 32 32 32 0 0 0 32 32h344a16 16 0 0 0 16-16 16 16 0 0 0 -16-16z" fill="#066991"/><path d="m400 456h-88.439a71.981 71.981 0 0 0 -85.088-62.713l.013-.016a88.016 88.016 0 0 0 -145.219-30.977 88.086 88.086 0 0 1 115.219 50.977l-.013.016a71.981 71.981 0 0 1 85.088 62.713h88.439a15.992 15.992 0 0 1 15.476 12h14.524a16 16 0 0 0 0-32z" fill="#4abdcc"/><path d="m424 305.824h15.999v68.352h-15.999z" transform="matrix(.351 -.936 .936 .351 -38.037 625.112)"/><path d="m481.236 101.732a47.162 47.162 0 0 0 -49.213-10.954 72 72 0 0 0 -126.49 30.432l-108.979-64.11a7.994 7.994 0 0 0 -6.254-.8l-56 16a7.992 7.992 0 0 0 -5.553 5.754h-.011l-16 64a8 8 0 0 0 3.112 8.45l11.071 7.907a61.586 61.586 0 0 0 -24.263 14.025l-31.156 10.39a34.374 34.374 0 0 0 -6.815 62.085 344.6 344.6 0 0 0 95.562 39.289l39.931 9.76 74.368 97.852a80.112 80.112 0 0 0 -43.06-7.354 96.006 96.006 0 0 0 -183.214 32.3 40 40 0 0 0 7.728 79.242h344a24 24 0 0 0 0-48h-81.6a79.719 79.719 0 0 0 -34.678-51.03l48.578 5.4a8 8 0 0 0 8.546-10.25l-6.086-20.285 39.436 11.83 4.6-15.326-49.541-14.862-9.055-30.177 45.025 11.006a7.993 7.993 0 0 0 9.66-5.831l9.68-38.718 36.623 13.733 5.618-14.98-35.406-13.279 16.12-26.867 61.671 23.126 5.618-14.98-58.92-22.095 3.353-5.588a8 8 0 0 0 -4.33-11.706l-33.941-11.313a8 8 0 0 0 -8.187 1.932l-30.112 30.113-23.192-9.94 23.877-39.8-.013-.008a7.99 7.99 0 0 0 1-5.677l-8-40a8 8 0 0 0 -3.788-5.327l-12.216-7.181a55.982 55.982 0 0 1 97.5-31.129 48.026 48.026 0 0 0 -17.84 37.209h16a32.156 32.156 0 0 1 31.373-31.994 31.451 31.451 0 0 1 22.658 9.148 33.333 33.333 0 0 1 9.969 23.636v16.51a14.718 14.718 0 0 1 -14.7 14.7h-89.3v16h89.3a30.735 30.735 0 0 0 30.7-30.7v-16.51a49.429 49.429 0 0 0 -14.764-35.058zm-177.627 355.147a8 8 0 0 0 7.952 7.121h88.439a8 8 0 0 1 0 16h-344a24 24 0 1 1 24-24h16a40.066 40.066 0 0 0 -31.666-39.121 80 80 0 0 1 151.066-28.992 80.13 80.13 0 0 0 -55.4 76.113h16a64 64 0 0 1 127.609-7.121zm-115.679-277.855 16.57-33.124 120.1 42.389-15.778 26.3zm-14.4-6.975-43.95-31.393 11.5-46.013 49.5 43.307zm176.626 80.951 30.444-30.449 19.789 6.595-24.221 40.374-13.359-5.01-5.618 14.98 12.3 4.612-8.191 32.771-46.43-11.349-7.963-26.543-15.325 4.6 19.318 64.387-12.1-3.631-4.6 15.326 22.207 6.662 5.642 18.805-35.48-3.942-105.406-138.688-12.738 9.682 16.375 21.549-20.758-5.074a328.631 328.631 0 0 1 -91.122-37.466 18.373 18.373 0 0 1 3.643-33.185l32.878-10.96a8.008 8.008 0 0 0 2.648-1.506 108.743 108.743 0 0 0 49.822 24.389 8.1 8.1 0 0 0 1.577.157 8 8 0 0 0 1.561-15.847 92.749 92.749 0 0 1 -39.394-18.239 45.6 45.6 0 0 1 19.968-4.22l26.225 18.732a7.972 7.972 0 0 0 2.4 1.153v.012l83.657 24.6a79.938 79.938 0 0 0 16.993 9.93l66.458 28.482a8 8 0 0 0 8.8-1.689zm-24.262-81.223-121.285-42.809-51.785-45.313 38.576-11.02 23.7 13.944-14.948 2.99 1.018 5.088-13.426-5.968-6.5 14.622 23.767 10.563 3.139 15.695 15.69-3.138-.92-4.6 30.324 13.478 6.5-14.622-40.665-18.073-3.1-15.522 105.376 61.988z"/></svg>